$
note_on channel=0 note=68 velocity=37 time=7800
note_on channel=0 note=68 velocity=0 time=120
note_on channel=0 note=69 velocity=41 time=0
note_on channel=0 note=69 velocity=0 time=120
note_on channel=0 note=68 velocity=38 time=0
note_on channel=0 note=68 velocity=0 time=120
note_on channel=0 note=67 velocity=39 time=0
note_on channel=0 note=67 velocity=0 time=120
note_on channel=0 note=68 velocity=40 time=0
note_on channel=0 note=68 velocity=0 time=120
note_on channel=0 note=73 velocity=42 time=0
note_on channel=0 note=73 velocity=0 time=120
note_on channel=0 note=76 velocity=43 time=0
note_on channel=0 note=76 velocity=0 time=120
note_on channel=0 note=75 velocity=45 time=0
note_on channel=0 note=75 velocity=0 time=120
note_on channel=0 note=73 velocity=43 time=0
note_on channel=0 note=73 velocity=0 time=120
note_on channel=0 note=75 velocity=45 time=0
note_on channel=0 note=75 velocity=0 time=120
note_on channel=0 note=73 velocity=43 time=0
note_on channel=0 note=73 velocity=0 time=120
note_on channel=0 note=72 velocity=44 time=0
note_on channel=0 note=72 velocity=0 time=120
note_on channel=0 note=73 velocity=46 time=0
note_on channel=0 note=73 velocity=0 time=120
note_on channel=0 note=76 velocity=49 time=0
note_on channel=0 note=76 velocity=0 time=120
note_on channel=0 note=80 velocity=47 time=0
note_on channel=0 note=80 velocity=0 time=120
note_on channel=0 note=68 velocity=45 time=120
note_on channel=0 note=68 velocity=0 time=120
note_on channel=0 note=69 velocity=49 time=0
note_on channel=0 note=69 velocity=0 time=120
note_on channel=0 note=68 velocity=45 time=0
note_on channel=0 note=68 velocity=0 time=120
note_on channel=0 note=67 velocity=46 time=0
note_on channel=0 note=67 velocity=0 time=120
note_on channel=0 note=68 velocity=48 time=0
note_on channel=0 note=68 velocity=0 time=120
note_on channel=0 note=73 velocity=50 time=0
note_on channel=0 note=73 velocity=0 time=120
note_on channel=0 note=76 velocity=51 time=0
note_on channel=0 note=76 velocity=0 time=120
note_on channel=0 note=75 velocity=54 time=0
note_on channel=0 note=75 velocity=0 time=120
note_on channel=0 note=73 velocity=51 time=0
note_on channel=0 note=73 velocity=0 time=120
note_on channel=0 note=75 velocity=53 time=0
note_on channel=0 note=75 velocity=0 time=120
note_on channel=0 note=73 velocity=51 time=0
note_on channel=0 note=73 velocity=0 time=120
note_on channel=0 note=72 velocity=52 time=0
note_on channel=0 note=72 velocity=0 time=120
note_on channel=0 note=73 velocity=54 time=0
note_on channel=0 note=73 velocity=0 time=120
note_on channel=0 note=76 velocity=57 time=0
note_on channel=0 note=76 velocity=0 time=120
note_on channel=0 note=80 velocity=55 time=0
note_on channel=0 note=80 velocity=0 time=120
note_on channel=0 note=69 velocity=55 time=120
note_on channel=0 note=69 velocity=0 time=120
note_on channel=0 note=73 velocity=55 time=0
note_on channel=0 note=73 velocity=0 time=120
note_on channel=0 note=75 velocity=58 time=0
note_on channel=0 note=75 velocity=0 time=120
note_on channel=0 note=78 velocity=61 time=0
note_on channel=0 note=78 velocity=0 time=120
note_on channel=0 note=81 velocity=64 time=0
note_on channel=0 note=81 velocity=0 time=120
note_on channel=0 note=85 velocity=67 time=0
note_on channel=0 note=85 velocity=0 time=120
note_on channel=0 note=87 velocity=70 time=0
note_on channel=0 note=87 velocity=0 time=120
note_on channel=0 note=95 velocity=74 time=0
note_on channel=0 note=95 velocity=0 time=120
note_on channel=0 note=93 velocity=72 time=0
note_on channel=0 note=93 velocity=0 time=120
note_on channel=0 note=92 velocity=71 time=0
note_on channel=0 note=92 velocity=0 time=120
note_on channel=0 note=90 velocity=70 time=0
note_on channel=0 note=90 velocity=0 time=120
note_on channel=0 note=88 velocity=69 time=0
note_on channel=0 note=88 velocity=0 time=120
note_on channel=0 note=87 velocity=68 time=0
note_on channel=0 note=87 velocity=0 time=120
note_on channel=0 note=90 velocity=67 time=0
note_on channel=0 note=90 velocity=0 time=120
note_on channel=0 note=85 velocity=66 time=0
note_on channel=0 note=85 velocity=0 time=120
note_on channel=0 note=84 velocity=68 time=0
note_on channel=0 note=84 velocity=0 time=120
note_on channel=0 note=87 velocity=63 time=0
note_on channel=0 note=87 velocity=0 time=120
note_on channel=0 note=81 velocity=63 time=0
note_on channel=0 note=81 velocity=0 time=120
note_on channel=0 note=80 velocity=63 time=0
note_on channel=0 note=80 velocity=0 time=120
note_on channel=0 note=78 velocity=60 time=0
note_on channel=0 note=78 velocity=0 time=120
note_on channel=0 note=81 velocity=58 time=0
note_on channel=0 note=81 velocity=0 time=120
note_on channel=0 note=76 velocity=54 time=0
note_on channel=0 note=76 velocity=0 time=120
note_on channel=0 note=75 velocity=54 time=0
note_on channel=0 note=75 velocity=0 time=120
note_on channel=0 note=78 velocity=53 time=0
note_on channel=0 note=78 velocity=0 time=120
note_on channel=0 note=73 velocity=48 time=0
note_on channel=0 note=73 velocity=0 time=120
note_on channel=0 note=72 velocity=48 time=0
note_on channel=0 note=72 velocity=0 time=120
note_on channel=0 note=75 velocity=47 time=0
note_on channel=0 note=75 velocity=0 time=120
note_on channel=0 note=69 velocity=45 time=0
note_on channel=0 note=69 velocity=0 time=120
note_on channel=0 note=68 velocity=42 time=0
note_on channel=0 note=68 velocity=0 time=120
note_on channel=0 note=71 velocity=42 time=0
note_on channel=0 note=71 velocity=0 time=120
note_on channel=0 note=69 velocity=41 time=0
note_on channel=0 note=69 velocity=0 time=240
note_on channel=0 note=68 velocity=37 time=0
note_on channel=0 note=68 velocity=0 time=120
note_on channel=0 note=69 velocity=41 time=0
note_on channel=0 note=69 velocity=0 time=120
note_on channel=0 note=68 velocity=38 time=0
note_on channel=0 note=68 velocity=0 time=120
note_on channel=0 note=67 velocity=39 time=0
note_on channel=0 note=67 velocity=0 time=120
note_on channel=0 note=68 velocity=40 time=0
note_on channel=0 note=68 velocity=0 time=120
note_on channel=0 note=73 velocity=42 time=0
note_on channel=0 note=73 velocity=0 time=120
note_on channel=0 note=76 velocity=43 time=0
note_on channel=0 note=76 velocity=0 time=120
note_on channel=0 note=75 velocity=45 time=0
note_on channel=0 note=75 velocity=0 time=120
note_on channel=0 note=73 velocity=43 time=0
note_on channel=0 note=73 velocity=0 time=120
note_on channel=0 note=75 velocity=45 time=0
note_on channel=0 note=75 velocity=0 time=120
note_on channel=0 note=73 velocity=43 time=0
note_on channel=0 note=73 velocity=0 time=120
note_on channel=0 note=72 velocity=44 time=0
note_on channel=0 note=72 velocity=0 time=120
note_on channel=0 note=73 velocity=46 time=0
note_on channel=0 note=73 velocity=0 time=120
note_on channel=0 note=76 velocity=49 time=0
note_on channel=0 note=76 velocity=0 time=120
note_on channel=0 note=80 velocity=47 time=0
note_on channel=0 note=80 velocity=0 time=120
note_on channel=0 note=68 velocity=45 time=120
note_on channel=0 note=68 velocity=0 time=120
note_on channel=0 note=70 velocity=49 time=0
note_on channel=0 note=70 velocity=0 time=120
note_on channel=0 note=68 velocity=45 time=0
note_on channel=0 note=68 velocity=0 time=120
note_on channel=0 note=67 velocity=46 time=0
note_on channel=0 note=67 velocity=0 time=120
note_on channel=0 note=68 velocity=48 time=0
note_on channel=0 note=68 velocity=0 time=120
note_on channel=0 note=73 velocity=50 time=0
note_on channel=0 note=73 velocity=0 time=120
note_on channel=0 note=76 velocity=51 time=0
note_on channel=0 note=76 velocity=0 time=120
note_on channel=0 note=75 velocity=54 time=0
note_on channel=0 note=75 velocity=0 time=120
note_on channel=0 note=73 velocity=51 time=0
note_on channel=0 note=73 velocity=0 time=120
note_on channel=0 note=75 velocity=53 time=0
note_on channel=0 note=75 velocity=0 time=120
note_on channel=0 note=73 velocity=51 time=0
note_on channel=0 note=73 velocity=0 time=120
note_on channel=0 note=72 velocity=52 time=0
note_on channel=0 note=72 velocity=0 time=120
note_on channel=0 note=73 velocity=54 time=0
note_on channel=0 note=73 velocity=0 time=120
note_on channel=0 note=76 velocity=57 time=0
note_on channel=0 note=76 velocity=0 time=120
note_on channel=0 note=80 velocity=55 time=0
note_on channel=0 note=80 velocity=0 time=120
note_on channel=0 note=75 velocity=64 time=0
note_on channel=0 note=75 velocity=0 time=120
note_on channel=0 note=76 velocity=58 time=0
note_on channel=0 note=76 velocity=0 time=120
note_on channel=0 note=75 velocity=61 time=0
note_on channel=0 note=75 velocity=0 time=120
note_on channel=0 note=74 velocity=50 time=0
note_on channel=0 note=74 velocity=0 time=120
note_on channel=0 note=75 velocity=56 time=0
note_on channel=0 note=75 velocity=0 time=120
note_on channel=0 note=83 velocity=68 time=0
note_on channel=0 note=83 velocity=0 time=120
note_on channel=0 note=82 velocity=62 time=0
note_on channel=0 note=82 velocity=0 time=120
note_on channel=0 note=80 velocity=65 time=0
note_on channel=0 note=80 velocity=0 time=120
note_on channel=0 note=79 velocity=69 time=0
note_on channel=0 note=79 velocity=0 time=120
note_on channel=0 note=88 velocity=73 time=0
note_on channel=0 note=88 velocity=0 time=120
note_on channel=0 note=87 velocity=72 time=0
note_on channel=0 note=87 velocity=0 time=120
note_on channel=0 note=85 velocity=72 time=0
note_on channel=0 note=85 velocity=0 time=120
note_on channel=0 note=83 velocity=75 time=0
note_on channel=0 note=83 velocity=0 time=120
note_on channel=0 note=82 velocity=69 time=0
note_on channel=0 note=82 velocity=0 time=120
note_on channel=0 note=80 velocity=68 time=0
note_on channel=0 note=80 velocity=0 time=120
note_on channel=0 note=79 velocity=68 time=0
note_on channel=0 note=79 velocity=0 time=120
note_on channel=0 note=82 velocity=72 time=0
note_on channel=0 note=82 velocity=0 time=120
note_on channel=0 note=80 velocity=70 time=0
note_on channel=0 note=80 velocity=0 time=120
note_on channel=0 note=83 velocity=64 time=0
note_on channel=0 note=83 velocity=0 time=120
note_on channel=0 note=74 velocity=57 time=0
note_on channel=0 note=74 velocity=0 time=120
note_on channel=0 note=76 velocity=65 time=0
note_on channel=0 note=76 velocity=0 time=120
note_on channel=0 note=75 velocity=57 time=0
note_on channel=0 note=75 velocity=0 time=120
note_on channel=0 note=80 velocity=63 time=0
note_on channel=0 note=80 velocity=0 time=120
note_on channel=0 note=70 velocity=57 time=0
note_on channel=0 note=70 velocity=0 time=120
note_on channel=0 note=73 velocity=61 time=0
note_on channel=0 note=73 velocity=0 time=120
note_on channel=0 note=71 velocity=59 time=0
note_on channel=0 note=71 velocity=0 time=120
note_on channel=0 note=75 velocity=58 time=0
note_on channel=0 note=75 velocity=0 time=120
note_on channel=0 note=67 velocity=56 time=0
note_on channel=0 note=67 velocity=0 time=120
note_on channel=0 note=70 velocity=60 time=0
note_on channel=0 note=70 velocity=0 time=120
note_on channel=0 note=68 velocity=51 time=0
note_on channel=0 note=68 velocity=0 time=120
note_on channel=0 note=67 velocity=55 time=0
note_on channel=0 note=67 velocity=0 time=120
note_on channel=0 note=68 velocity=50 time=0
note_on channel=0 note=68 velocity=0 time=120
note_on channel=0 note=68 velocity=72 time=0
note_on channel=0 note=68 velocity=0 time=120
note_on channel=0 note=80 velocity=58 time=0
note_on channel=0 note=80 velocity=0 time=120
note_on channel=0 note=72 velocity=59 time=0
note_on channel=0 note=72 velocity=0 time=120
note_on channel=0 note=73 velocity=59 time=0
note_on channel=0 note=73 velocity=0 time=120
note_on channel=0 note=66 velocity=71 time=0
note_on channel=0 note=66 velocity=0 time=120
note_on channel=0 note=78 velocity=60 time=0
note_on channel=0 note=78 velocity=0 time=120
note_on channel=0 note=72 velocity=60 time=0
note_on channel=0 note=72 velocity=0 time=120
note_on channel=0 note=73 velocity=61 time=0
note_on channel=0 note=73 velocity=0 time=120
note_on channel=0 note=65 velocity=75 time=0
note_on channel=0 note=65 velocity=0 time=120
note_on channel=0 note=77 velocity=62 time=0
note_on channel=0 note=77 velocity=0 time=120
note_on channel=0 note=72 velocity=63 time=0
note_on channel=0 note=72 velocity=0 time=120
note_on channel=0 note=73 velocity=63 time=0
note_on channel=0 note=73 velocity=0 time=120
note_on channel=0 note=66 velocity=74 time=0
note_on channel=0 note=66 velocity=0 time=120
note_on channel=0 note=78 velocity=65 time=0
note_on channel=0 note=78 velocity=0 time=120
note_on channel=0 note=72 velocity=64 time=0
note_on channel=0 note=72 velocity=0 time=120
note_on channel=0 note=73 velocity=64 time=0
note_on channel=0 note=73 velocity=0 time=120
note_on channel=0 note=61 velocity=77 time=0
note_on channel=0 note=61 velocity=0 time=120
note_on channel=0 note=73 velocity=65 time=0
note_on channel=0 note=73 velocity=0 time=120
note_on channel=0 note=66 velocity=65 time=0
note_on channel=0 note=66 velocity=0 time=120
note_on channel=0 note=69 velocity=65 time=0
note_on channel=0 note=69 velocity=0 time=120
note_on channel=0 note=63 velocity=75 time=0
note_on channel=0 note=63 velocity=0 time=120
note_on channel=0 note=75 velocity=65 time=0
note_on channel=0 note=75 velocity=0 time=120
note_on channel=0 note=66 velocity=65 time=0
note_on channel=0 note=66 velocity=0 time=120
note_on channel=0 note=69 velocity=65 time=0
note_on channel=0 note=69 velocity=0 time=120
note_on channel=0 note=64 velocity=79 time=0
note_on channel=0 note=64 velocity=0 time=120
note_on channel=0 note=76 velocity=66 time=0
note_on channel=0 note=76 velocity=0 time=120
note_on channel=0 note=68 velocity=66 time=0
note_on channel=0 note=68 velocity=0 time=120
note_on channel=0 note=71 velocity=66 time=0
note_on channel=0 note=71 velocity=0 time=120
note_on channel=0 note=68 velocity=77 time=0
note_on channel=0 note=68 velocity=0 time=120
note_on channel=0 note=80 velocity=67 time=0
note_on channel=0 note=80 velocity=0 time=120
note_on channel=0 note=71 velocity=66 time=0
note_on channel=0 note=71 velocity=0 time=120
note_on channel=0 note=76 velocity=65 time=0
note_on channel=0 note=76 velocity=0 time=120
note_on channel=0 note=68 velocity=81 time=0
note_on channel=0 note=68 velocity=0 time=120
note_on channel=0 note=80 velocity=65 time=0
note_on channel=0 note=80 velocity=0 time=120
note_on channel=0 note=72 velocity=65 time=0
note_on channel=0 note=72 velocity=0 time=120
note_on channel=0 note=73 velocity=65 time=0
note_on channel=0 note=73 velocity=0 time=120
note_on channel=0 note=66 velocity=78 time=0
note_on channel=0 note=66 velocity=0 time=120
note_on channel=0 note=78 velocity=65 time=0
note_on channel=0 note=78 velocity=0 time=120
note_on channel=0 note=72 velocity=65 time=0
note_on channel=0 note=72 velocity=0 time=120
note_on channel=0 note=73 velocity=65 time=0
note_on channel=0 note=73 velocity=0 time=120
note_on channel=0 note=65 velocity=79 time=0
note_on channel=0 note=65 velocity=0 time=120
note_on channel=0 note=77 velocity=66 time=0
note_on channel=0 note=77 velocity=0 time=120
note_on channel=0 note=72 velocity=66 time=0
note_on channel=0 note=72 velocity=0 time=120
note_on channel=0 note=73 velocity=66 time=0
note_on channel=0 note=73 velocity=0 time=120
note_on channel=0 note=66 velocity=77 time=0
note_on channel=0 note=66 velocity=0 time=120
note_on channel=0 note=78 velocity=67 time=0
note_on channel=0 note=78 velocity=0 time=120
note_on channel=0 note=72 velocity=66 time=0
note_on channel=0 note=72 velocity=0 time=120
note_on channel=0 note=73 velocity=65 time=0
note_on channel=0 note=73 velocity=0 time=120
note_on channel=0 note=65 velocity=81 time=0
note_on channel=0 note=65 velocity=0 time=120
note_on channel=0 note=77 velocity=65 time=0
note_on channel=0 note=77 velocity=0 time=120
note_on channel=0 note=71 velocity=65 time=0
note_on channel=0 note=71 velocity=0 time=120
note_on channel=0 note=75 velocity=65 time=0
note_on channel=0 note=75 velocity=0 time=120
note_on channel=0 note=66 velocity=78 time=0
note_on channel=0 note=66 velocity=0 time=120
note_on channel=0 note=78 velocity=65 time=0
note_on channel=0 note=78 velocity=0 time=120
note_on channel=0 note=71 velocity=65 time=0
note_on channel=0 note=71 velocity=0 time=120
note_on channel=0 note=75 velocity=65 time=0
note_on channel=0 note=75 velocity=0 time=120
note_on channel=0 note=69 velocity=79 time=0
note_on channel=0 note=69 velocity=0 time=120
note_on channel=0 note=81 velocity=66 time=0
note_on channel=0 note=81 velocity=0 time=120
note_on channel=0 note=71 velocity=66 time=0
note_on channel=0 note=71 velocity=0 time=120
note_on channel=0 note=76 velocity=66 time=0
note_on channel=0 note=76 velocity=0 time=120
note_on channel=0 note=68 velocity=77 time=0
note_on channel=0 note=68 velocity=0 time=120
note_on channel=0 note=80 velocity=67 time=0
note_on channel=0 note=80 velocity=0 time=120
note_on channel=0 note=71 velocity=66 time=0
note_on channel=0 note=71 velocity=0 time=120
note_on channel=0 note=76 velocity=65 time=0
note_on channel=0 note=76 velocity=0 time=120
note_on channel=0 note=68 velocity=52 time=0
note_on channel=0 note=68 velocity=0 time=120
note_on channel=0 note=80 velocity=57 time=0
note_on channel=0 note=80 velocity=0 time=120
note_on channel=0 note=72 velocity=47 time=0
note_on channel=0 note=72 velocity=0 time=120
note_on channel=0 note=73 velocity=47 time=0
note_on channel=0 note=73 velocity=0 time=120
note_on channel=0 note=66 velocity=49 time=0
note_on channel=0 note=66 velocity=0 time=120
note_on channel=0 note=78 velocity=54 time=0
note_on channel=0 note=78 velocity=0 time=120
note_on channel=0 note=72 velocity=48 time=0
note_on channel=0 note=72 velocity=0 time=120
note_on channel=0 note=73 velocity=48 time=0
note_on channel=0 note=73 velocity=0 time=120
note_on channel=0 note=65 velocity=51 time=0
note_on channel=0 note=65 velocity=0 time=120
note_on channel=0 note=77 velocity=56 time=0
note_on channel=0 note=77 velocity=0 time=120
note_on channel=0 note=72 velocity=50 time=0
note_on channel=0 note=72 velocity=0 time=120
note_on channel=0 note=73 velocity=50 time=0
note_on channel=0 note=73 velocity=0 time=120
note_on channel=0 note=66 velocity=53 time=0
note_on channel=0 note=66 velocity=0 time=120
note_on channel=0 note=78 velocity=58 time=0
note_on channel=0 note=78 velocity=0 time=120
note_on channel=0 note=72 velocity=51 time=0
note_on channel=0 note=72 velocity=0 time=120
note_on channel=0 note=73 velocity=51 time=0
note_on channel=0 note=73 velocity=0 time=120
note_on channel=0 note=61 velocity=55 time=0
note_on channel=0 note=61 velocity=0 time=120
note_on channel=0 note=73 velocity=60 time=0
note_on channel=0 note=73 velocity=0 time=120
note_on channel=0 note=66 velocity=52 time=0
note_on channel=0 note=66 velocity=0 time=120
note_on channel=0 note=69 velocity=53 time=0
note_on channel=0 note=69 velocity=0 time=120
note_on channel=0 note=63 velocity=55 time=0
note_on channel=0 note=63 velocity=0 time=120
note_on channel=0 note=75 velocity=62 time=0
note_on channel=0 note=75 velocity=0 time=120
note_on channel=0 note=66 velocity=54 time=0
note_on channel=0 note=66 velocity=0 time=120
note_on channel=0 note=69 velocity=54 time=0
note_on channel=0 note=69 velocity=0 time=120
note_on channel=0 note=64 velocity=57 time=0
note_on channel=0 note=64 velocity=0 time=120
note_on channel=0 note=76 velocity=65 time=0
note_on channel=0 note=76 velocity=0 time=120
note_on channel=0 note=68 velocity=56 time=0
note_on channel=0 note=68 velocity=0 time=120
note_on channel=0 note=71 velocity=56 time=0
note_on channel=0 note=71 velocity=0 time=120
note_on channel=0 note=68 velocity=60 time=0
note_on channel=0 note=68 velocity=0 time=120
note_on channel=0 note=80 velocity=68 time=0
note_on channel=0 note=80 velocity=0 time=120
note_on channel=0 note=71 velocity=57 time=0
note_on channel=0 note=71 velocity=0 time=120
note_on channel=0 note=76 velocity=58 time=0
note_on channel=0 note=76 velocity=0 time=120
note_on channel=0 note=68 velocity=62 time=0
note_on channel=0 note=68 velocity=0 time=120
note_on channel=0 note=80 velocity=68 time=0
note_on channel=0 note=80 velocity=0 time=120
note_on channel=0 note=72 velocity=59 time=0
note_on channel=0 note=72 velocity=0 time=120
note_on channel=0 note=73 velocity=59 time=0
note_on channel=0 note=73 velocity=0 time=120
note_on channel=0 note=66 velocity=62 time=0
note_on channel=0 note=66 velocity=0 time=120
note_on channel=0 note=78 velocity=70 time=0
note_on channel=0 note=78 velocity=0 time=120
note_on channel=0 note=72 velocity=61 time=0
note_on channel=0 note=72 velocity=0 time=120
note_on channel=0 note=73 velocity=61 time=0
note_on channel=0 note=73 velocity=0 time=120
note_on channel=0 note=75 velocity=64 time=0
note_on channel=0 note=75 velocity=0 time=120
note_on channel=0 note=87 velocity=73 time=0
note_on channel=0 note=87 velocity=0 time=120
note_on channel=0 note=78 velocity=62 time=0
note_on channel=0 note=78 velocity=0 time=120
note_on channel=0 note=81 velocity=62 time=0
note_on channel=0 note=81 velocity=0 time=120
note_on channel=0 note=73 velocity=66 time=0
note_on channel=0 note=73 velocity=0 time=120
note_on channel=0 note=85 velocity=74 time=0
note_on channel=0 note=85 velocity=0 time=120
note_on channel=0 note=78 velocity=62 time=0
note_on channel=0 note=78 velocity=0 time=120
note_on channel=0 note=81 velocity=62 time=0
note_on channel=0 note=81 velocity=0 time=120
note_on channel=0 note=73 velocity=64 time=0
note_on channel=0 note=73 velocity=0 time=120
note_on channel=0 note=85 velocity=73 time=0
note_on channel=0 note=85 velocity=0 time=120
note_on channel=0 note=75 velocity=61 time=0
note_on channel=0 note=75 velocity=0 time=120
note_on channel=0 note=78 velocity=61 time=0
note_on channel=0 note=78 velocity=0 time=120
note_on channel=0 note=72 velocity=64 time=0
note_on channel=0 note=72 velocity=0 time=120
note_on channel=0 note=84 velocity=71 time=0
note_on channel=0 note=84 velocity=0 time=120
note_on channel=0 note=75 velocity=60 time=0
note_on channel=0 note=75 velocity=0 time=120
note_on channel=0 note=78 velocity=59 time=0
note_on channel=0 note=78 velocity=0 time=120
note_on channel=0 note=72 velocity=60 time=0
note_on channel=0 note=72 velocity=0 time=120
note_on channel=0 note=84 velocity=69 time=0
note_on channel=0 note=84 velocity=0 time=120
note_on channel=0 note=75 velocity=58 time=0
note_on channel=0 note=75 velocity=0 time=120
note_on channel=0 note=78 velocity=58 time=0
note_on channel=0 note=78 velocity=0 time=120
note_on channel=0 note=72 velocity=61 time=0
note_on channel=0 note=72 velocity=0 time=120
note_on channel=0 note=84 velocity=68 time=0
note_on channel=0 note=84 velocity=0 time=120
note_on channel=0 note=75 velocity=57 time=0
note_on channel=0 note=75 velocity=0 time=120
note_on channel=0 note=78 velocity=56 time=0
note_on channel=0 note=78 velocity=0 time=120
note_on channel=0 note=72 velocity=57 time=0
note_on channel=0 note=72 velocity=0 time=120
note_on channel=0 note=84 velocity=65 time=0
note_on channel=0 note=84 velocity=0 time=120
note_on channel=0 note=75 velocity=55 time=0
note_on channel=0 note=75 velocity=0 time=120
note_on channel=0 note=78 velocity=55 time=0
note_on channel=0 note=78 velocity=0 time=120
note_on channel=0 note=71 velocity=58 time=0
note_on channel=0 note=71 velocity=0 time=120
note_on channel=0 note=83 velocity=64 time=0
note_on channel=0 note=83 velocity=0 time=120
note_on channel=0 note=75 velocity=53 time=0
note_on channel=0 note=75 velocity=0 time=120
note_on channel=0 note=78 velocity=53 time=0
note_on channel=0 note=78 velocity=0 time=120
note_on channel=0 note=71 velocity=54 time=0
note_on channel=0 note=71 velocity=0 time=120
note_on channel=0 note=83 velocity=62 time=0
note_on channel=0 note=83 velocity=0 time=120
note_on channel=0 note=75 velocity=52 time=0
note_on channel=0 note=75 velocity=0 time=120
note_on channel=0 note=78 velocity=52 time=0
note_on channel=0 note=78 velocity=0 time=120
note_on channel=0 note=70 velocity=54 time=0
note_on channel=0 note=70 velocity=0 time=120
note_on channel=0 note=82 velocity=60 time=0
note_on channel=0 note=82 velocity=0 time=120
note_on channel=0 note=75 velocity=50 time=0
note_on channel=0 note=75 velocity=0 time=120
note_on channel=0 note=78 velocity=50 time=0
note_on channel=0 note=78 velocity=0 time=120
note_on channel=0 note=70 velocity=55 time=0
note_on channel=0 note=70 velocity=0 time=120
note_on channel=0 note=82 velocity=49 time=6
note_on channel=0 note=75 velocity=48 time=114
note_on channel=0 note=82 velocity=0 time=6
note_on channel=0 note=75 velocity=0 time=114
note_on channel=0 note=78 velocity=48 time=0
note_on channel=0 note=78 velocity=0 time=120
note_on channel=0 note=69 velocity=53 time=0
note_on channel=0 note=69 velocity=0 time=120
note_on channel=0 note=81 velocity=48 time=6
note_on channel=0 note=75 velocity=47 time=114
note_on channel=0 note=81 velocity=0 time=6
note_on channel=0 note=75 velocity=0 time=114
note_on channel=0 note=78 velocity=47 time=0
note_on channel=0 note=78 velocity=0 time=120
note_on channel=0 note=69 velocity=52 time=0
note_on channel=0 note=69 velocity=0 time=120
note_on channel=0 note=81 velocity=49 time=0
note_on channel=0 note=81 velocity=0 time=120
note_on channel=0 note=75 velocity=45 time=0
note_on channel=0 note=75 velocity=0 time=120
note_on channel=0 note=78 velocity=45 time=0
note_on channel=0 note=78 velocity=0 time=120
note_on channel=0 note=69 velocity=51 time=0
note_on channel=0 note=69 velocity=0 time=120
note_on channel=0 note=81 velocity=47 time=0
note_on channel=0 note=81 velocity=0 time=120
note_on channel=0 note=75 velocity=44 time=0
note_on channel=0 note=75 velocity=0 time=120
note_on channel=0 note=78 velocity=44 time=0
note_on channel=0 note=78 velocity=0 time=120
note_on channel=0 note=72 velocity=52 time=0
note_on channel=0 note=72 velocity=0 time=120
note_on channel=0 note=84 velocity=47 time=6
note_on channel=0 note=75 velocity=46 time=114
note_on channel=0 note=84 velocity=0 time=6
note_on channel=0 note=75 velocity=0 time=114
note_on channel=0 note=78 velocity=46 time=0
note_on channel=0 note=78 velocity=0 time=120
note_on channel=0 note=71 velocity=49 time=0
note_on channel=0 note=71 velocity=0 time=120
note_on channel=0 note=83 velocity=44 time=0
note_on channel=0 note=83 velocity=0 time=120
note_on channel=0 note=75 velocity=44 time=0
note_on channel=0 note=75 velocity=0 time=120
note_on channel=0 note=78 velocity=44 time=0
note_on channel=0 note=78 velocity=0 time=120
note_on channel=0 note=71 velocity=48 time=0
note_on channel=0 note=71 velocity=0 time=120
note_on channel=0 note=83 velocity=45 time=0
note_on channel=0 note=83 velocity=0 time=120
note_on channel=0 note=75 velocity=42 time=0
note_on channel=0 note=75 velocity=0 time=120
note_on channel=0 note=78 velocity=42 time=0
note_on channel=0 note=78 velocity=0 time=120
note_on channel=0 note=70 velocity=47 time=0
note_on channel=0 note=70 velocity=0 time=120
note_on channel=0 note=82 velocity=43 time=0
note_on channel=0 note=82 velocity=0 time=120
note_on channel=0 note=75 velocity=40 time=0
note_on channel=0 note=75 velocity=0 time=120
note_on channel=0 note=78 velocity=40 time=0
note_on channel=0 note=78 velocity=0 time=120
note_on channel=0 note=70 velocity=46 time=0
note_on channel=0 note=70 velocity=0 time=120
note_on channel=0 note=82 velocity=42 time=0
note_on channel=0 note=82 velocity=0 time=120
note_on channel=0 note=75 velocity=41 time=0
note_on channel=0 note=75 velocity=0 time=120
note_on channel=0 note=78 velocity=41 time=0
note_on channel=0 note=78 velocity=0 time=120
note_on channel=0 note=69 velocity=44 time=0
note_on channel=0 note=69 velocity=0 time=120
note_on channel=0 note=81 velocity=40 time=0
note_on channel=0 note=81 velocity=0 time=120
note_on channel=0 note=75 velocity=40 time=0
note_on channel=0 note=75 velocity=0 time=120
note_on channel=0 note=78 velocity=39 time=0
note_on channel=0 note=78 velocity=0 time=120
note_on channel=0 note=69 velocity=43 time=0
note_on channel=0 note=69 velocity=0 time=120
note_on channel=0 note=81 velocity=40 time=0
note_on channel=0 note=81 velocity=0 time=120
note_on channel=0 note=75 velocity=37 time=0
note_on channel=0 note=75 velocity=0 time=120
note_on channel=0 note=78 velocity=37 time=0
note_on channel=0 note=78 velocity=0 time=120
note_on channel=0 note=68 velocity=42 time=0
note_on channel=0 note=68 velocity=0 time=120
note_on channel=0 note=80 velocity=38 time=0
note_on channel=0 note=80 velocity=0 time=120
note_on channel=0 note=75 velocity=36 time=0
note_on channel=0 note=75 velocity=0 time=120
note_on channel=0 note=78 velocity=35 time=0
note_on channel=0 note=78 velocity=0 time=120
note_on channel=0 note=68 velocity=37 time=120
note_on channel=0 note=68 velocity=0 time=120
note_on channel=0 note=69 velocity=41 time=0
note_on channel=0 note=69 velocity=0 time=120
note_on channel=0 note=68 velocity=38 time=0
note_on channel=0 note=68 velocity=0 time=120
note_on channel=0 note=67 velocity=39 time=0
note_on channel=0 note=67 velocity=0 time=120
note_on channel=0 note=68 velocity=40 time=0
note_on channel=0 note=68 velocity=0 time=120
note_on channel=0 note=73 velocity=42 time=0
note_on channel=0 note=73 velocity=0 time=120
note_on channel=0 note=76 velocity=43 time=0
note_on channel=0 note=76 velocity=0 time=120
note_on channel=0 note=75 velocity=45 time=0
note_on channel=0 note=75 velocity=0 time=120
note_on channel=0 note=73 velocity=43 time=0
note_on channel=0 note=73 velocity=0 time=120
note_on channel=0 note=75 velocity=45 time=0
note_on channel=0 note=75 velocity=0 time=120
note_on channel=0 note=73 velocity=43 time=0
note_on channel=0 note=73 velocity=0 time=120
note_on channel=0 note=72 velocity=44 time=0
note_on channel=0 note=72 velocity=0 time=120
note_on channel=0 note=73 velocity=46 time=0
note_on channel=0 note=73 velocity=0 time=120
note_on channel=0 note=76 velocity=49 time=0
note_on channel=0 note=76 velocity=0 time=120
note_on channel=0 note=80 velocity=47 time=0
note_on channel=0 note=80 velocity=0 time=120
note_on channel=0 note=68 velocity=45 time=120
note_on channel=0 note=68 velocity=0 time=120
note_on channel=0 note=69 velocity=49 time=0
note_on channel=0 note=69 velocity=0 time=120
note_on channel=0 note=68 velocity=45 time=0
note_on channel=0 note=68 velocity=0 time=120
note_on channel=0 note=67 velocity=46 time=0
note_on channel=0 note=67 velocity=0 time=120
note_on channel=0 note=68 velocity=48 time=0
note_on channel=0 note=68 velocity=0 time=120
note_on channel=0 note=73 velocity=50 time=0
note_on channel=0 note=73 velocity=0 time=120
note_on channel=0 note=76 velocity=51 time=0
note_on channel=0 note=76 velocity=0 time=120
note_on channel=0 note=75 velocity=54 time=0
note_on channel=0 note=75 velocity=0 time=120
note_on channel=0 note=73 velocity=51 time=0
note_on channel=0 note=73 velocity=0 time=120
note_on channel=0 note=75 velocity=53 time=0
note_on channel=0 note=75 velocity=0 time=120
note_on channel=0 note=73 velocity=51 time=0
note_on channel=0 note=73 velocity=0 time=120
note_on channel=0 note=72 velocity=52 time=0
note_on channel=0 note=72 velocity=0 time=120
note_on channel=0 note=73 velocity=54 time=0
note_on channel=0 note=73 velocity=0 time=120
note_on channel=0 note=76 velocity=57 time=0
note_on channel=0 note=76 velocity=0 time=120
note_on channel=0 note=80 velocity=55 time=0
note_on channel=0 note=80 velocity=0 time=120
note_on channel=0 note=69 velocity=56 time=120
note_on channel=0 note=69 velocity=0 time=120
note_on channel=0 note=73 velocity=57 time=0
note_on channel=0 note=73 velocity=0 time=120
note_on channel=0 note=75 velocity=59 time=0
note_on channel=0 note=75 velocity=0 time=120
note_on channel=0 note=78 velocity=61 time=0
note_on channel=0 note=78 velocity=0 time=120
note_on channel=0 note=81 velocity=66 time=0
note_on channel=0 note=81 velocity=0 time=120
note_on channel=0 note=85 velocity=69 time=0
note_on channel=0 note=85 velocity=0 time=120
note_on channel=0 note=87 velocity=71 time=0
note_on channel=0 note=87 velocity=0 time=120
note_on channel=0 note=95 velocity=73 time=0
note_on channel=0 note=95 velocity=0 time=120
note_on channel=0 note=93 velocity=71 time=0
note_on channel=0 note=93 velocity=0 time=120
note_on channel=0 note=92 velocity=71 time=0
note_on channel=0 note=92 velocity=0 time=120
note_on channel=0 note=90 velocity=70 time=0
note_on channel=0 note=90 velocity=0 time=120
note_on channel=0 note=88 velocity=69 time=0
note_on channel=0 note=88 velocity=0 time=120
note_on channel=0 note=87 velocity=68 time=0
note_on channel=0 note=87 velocity=0 time=120
note_on channel=0 note=90 velocity=67 time=0
note_on channel=0 note=90 velocity=0 time=120
note_on channel=0 note=85 velocity=67 time=0
note_on channel=0 note=85 velocity=0 time=120
note_on channel=0 note=84 velocity=68 time=0
note_on channel=0 note=84 velocity=0 time=120
note_on channel=0 note=87 velocity=64 time=0
note_on channel=0 note=87 velocity=0 time=120
note_on channel=0 note=81 velocity=65 time=0
note_on channel=0 note=81 velocity=0 time=120
note_on channel=0 note=80 velocity=65 time=0
note_on channel=0 note=80 velocity=0 time=120
note_on channel=0 note=78 velocity=64 time=0
note_on channel=0 note=78 velocity=0 time=120
note_on channel=0 note=81 velocity=62 time=0
note_on channel=0 note=81 velocity=0 time=120
note_on channel=0 note=76 velocity=59 time=0
note_on channel=0 note=76 velocity=0 time=120
note_on channel=0 note=75 velocity=59 time=0
note_on channel=0 note=75 velocity=0 time=120
note_on channel=0 note=78 velocity=59 time=0
note_on channel=0 note=78 velocity=0 time=120
note_on channel=0 note=73 velocity=55 time=0
note_on channel=0 note=73 velocity=0 time=120
note_on channel=0 note=72 velocity=55 time=0
note_on channel=0 note=72 velocity=0 time=120
note_on channel=0 note=75 velocity=55 time=0
note_on channel=0 note=75 velocity=0 time=120
note_on channel=0 note=69 velocity=54 time=0
note_on channel=0 note=69 velocity=0 time=120
note_on channel=0 note=68 velocity=51 time=0
note_on channel=0 note=68 velocity=0 time=120
note_on channel=0 note=71 velocity=51 time=0
note_on channel=0 note=71 velocity=0 time=120
note_on channel=0 note=69 velocity=50 time=0
note_on channel=0 note=69 velocity=0 time=240
note_on channel=0 note=68 velocity=47 time=0
note_on channel=0 note=68 velocity=0 time=120
note_on channel=0 note=69 velocity=51 time=0
note_on channel=0 note=69 velocity=0 time=120
note_on channel=0 note=68 velocity=47 time=0
note_on channel=0 note=68 velocity=0 time=120
note_on channel=0 note=67 velocity=48 time=0
note_on channel=0 note=67 velocity=0 time=120
note_on channel=0 note=68 velocity=49 time=0
note_on channel=0 note=68 velocity=0 time=120
note_on channel=0 note=73 velocity=51 time=0
note_on channel=0 note=73 velocity=0 time=120
note_on channel=0 note=76 velocity=52 time=0
note_on channel=0 note=76 velocity=0 time=120
note_on channel=0 note=75 velocity=54 time=0
note_on channel=0 note=75 velocity=0 time=120
note_on channel=0 note=73 velocity=51 time=0
note_on channel=0 note=73 velocity=0 time=120
note_on channel=0 note=75 velocity=53 time=0
note_on channel=0 note=75 velocity=0 time=120
note_on channel=0 note=73 velocity=51 time=0
note_on channel=0 note=73 velocity=0 time=120
note_on channel=0 note=72 velocity=51 time=0
note_on channel=0 note=72 velocity=0 time=120
note_on channel=0 note=73 velocity=53 time=0
note_on channel=0 note=73 velocity=0 time=120
note_on channel=0 note=76 velocity=57 time=0
note_on channel=0 note=76 velocity=0 time=120
note_on channel=0 note=80 velocity=54 time=0
note_on channel=0 note=80 velocity=0 time=120
note_on channel=0 note=76 velocity=52 time=0
note_on channel=0 note=76 velocity=0 time=120
note_on channel=0 note=75 velocity=48 time=0
note_on channel=0 note=75 velocity=0 time=120
note_on channel=0 note=76 velocity=52 time=0
note_on channel=0 note=76 velocity=0 time=120
note_on channel=0 note=75 velocity=48 time=0
note_on channel=0 note=75 velocity=0 time=120
note_on channel=0 note=74 velocity=49 time=0
note_on channel=0 note=74 velocity=0 time=120
note_on channel=0 note=75 velocity=50 time=0
note_on channel=0 note=75 velocity=0 time=120
note_on channel=0 note=78 velocity=53 time=0
note_on channel=0 note=78 velocity=0 time=120
note_on channel=0 note=81 velocity=54 time=0
note_on channel=0 note=81 velocity=0 time=120
note_on channel=0 note=78 velocity=56 time=0
note_on channel=0 note=78 velocity=0 time=120
note_on channel=0 note=77 velocity=54 time=0
note_on channel=0 note=77 velocity=0 time=120
note_on channel=0 note=78 velocity=56 time=0
note_on channel=0 note=78 velocity=0 time=120
note_on channel=0 note=77 velocity=54 time=0
note_on channel=0 note=77 velocity=0 time=120
note_on channel=0 note=76 velocity=54 time=0
note_on channel=0 note=76 velocity=0 time=120
note_on channel=0 note=77 velocity=56 time=0
note_on channel=0 note=77 velocity=0 time=120
note_on channel=0 note=80 velocity=59 time=0
note_on channel=0 note=80 velocity=0 time=120
note_on channel=0 note=85 velocity=57 time=0
note_on channel=0 note=85 velocity=0 time=120
note_on channel=0 note=73 velocity=50 time=120
note_on channel=0 note=73 velocity=0 time=120
note_on channel=0 note=74 velocity=55 time=0
note_on channel=0 note=74 velocity=0 time=120
note_on channel=0 note=73 velocity=51 time=0
note_on channel=0 note=73 velocity=0 time=120
note_on channel=0 note=72 velocity=52 time=0
note_on channel=0 note=72 velocity=0 time=120
note_on channel=0 note=73 velocity=53 time=0
note_on channel=0 note=73 velocity=0 time=120
note_on channel=0 note=78 velocity=56 time=0
note_on channel=0 note=78 velocity=0 time=120
note_on channel=0 note=81 velocity=57 time=0
note_on channel=0 note=81 velocity=0 time=120
note_on channel=0 note=78 velocity=59 time=0
note_on channel=0 note=78 velocity=0 time=120
note_on channel=0 note=77 velocity=56 time=0
note_on channel=0 note=77 velocity=0 time=120
note_on channel=0 note=78 velocity=59 time=0
note_on channel=0 note=78 velocity=0 time=120
note_on channel=0 note=77 velocity=57 time=0
note_on channel=0 note=77 velocity=0 time=120
note_on channel=0 note=76 velocity=57 time=0
note_on channel=0 note=76 velocity=0 time=120
note_on channel=0 note=77 velocity=59 time=0
note_on channel=0 note=77 velocity=0 time=120
note_on channel=0 note=80 velocity=63 time=0
note_on channel=0 note=80 velocity=0 time=120
note_on channel=0 note=85 velocity=59 time=0
note_on channel=0 note=85 velocity=0 time=120
note_on channel=0 note=80 velocity=58 time=0
note_on channel=0 note=80 velocity=0 time=120
note_on channel=0 note=78 velocity=53 time=0
note_on channel=0 note=78 velocity=0 time=120
note_on channel=0 note=80 velocity=58 time=0
note_on channel=0 note=80 velocity=0 time=120
note_on channel=0 note=78 velocity=54 time=0
note_on channel=0 note=78 velocity=0 time=120
note_on channel=0 note=77 velocity=55 time=0
note_on channel=0 note=77 velocity=0 time=120
note_on channel=0 note=78 velocity=56 time=0
note_on channel=0 note=78 velocity=0 time=120
note_on channel=0 note=81 velocity=59 time=0
note_on channel=0 note=81 velocity=0 time=120
note_on channel=0 note=85 velocity=60 time=0
note_on channel=0 note=85 velocity=0 time=120
note_on channel=0 note=81 velocity=63 time=0
note_on channel=0 note=81 velocity=0 time=120
note_on channel=0 note=80 velocity=59 time=0
note_on channel=0 note=80 velocity=0 time=120
note_on channel=0 note=81 velocity=62 time=0
note_on channel=0 note=81 velocity=0 time=120
note_on channel=0 note=80 velocity=60 time=0
note_on channel=0 note=80 velocity=0 time=120
note_on channel=0 note=79 velocity=60 time=0
note_on channel=0 note=79 velocity=0 time=120
note_on channel=0 note=80 velocity=62 time=0
note_on channel=0 note=80 velocity=0 time=120
note_on channel=0 note=84 velocity=66 time=0
note_on channel=0 note=84 velocity=0 time=120
note_on channel=0 note=87 velocity=63 time=0
note_on channel=0 note=87 velocity=0 time=120
note_on channel=0 note=80 velocity=69 time=0
note_on channel=0 note=80 velocity=0 time=120
note_on channel=0 note=81 velocity=64 time=0
note_on channel=0 note=81 velocity=0 time=120
note_on channel=0 note=80 velocity=67 time=0
note_on channel=0 note=80 velocity=0 time=120
note_on channel=0 note=79 velocity=58 time=0
note_on channel=0 note=79 velocity=0 time=120
note_on channel=0 note=80 velocity=62 time=0
note_on channel=0 note=80 velocity=0 time=120
note_on channel=0 note=88 velocity=71 time=0
note_on channel=0 note=88 velocity=0 time=120
note_on channel=0 note=87 velocity=71 time=0
note_on channel=0 note=87 velocity=0 time=120
note_on channel=0 note=86 velocity=70 time=0
note_on channel=0 note=86 velocity=0 time=120
note_on channel=0 note=85 velocity=69 time=0
note_on channel=0 note=85 velocity=0 time=120
note_on channel=0 note=84 velocity=69 time=0
note_on channel=0 note=84 velocity=0 time=120
note_on channel=0 note=83 velocity=68 time=0
note_on channel=0 note=83 velocity=0 time=120
note_on channel=0 note=82 velocity=67 time=0
note_on channel=0 note=82 velocity=0 time=120
note_on channel=0 note=81 velocity=67 time=0
note_on channel=0 note=81 velocity=0 time=120
note_on channel=0 note=80 velocity=66 time=0
note_on channel=0 note=80 velocity=0 time=120
note_on channel=0 note=79 velocity=65 time=0
note_on channel=0 note=79 velocity=0 time=120
note_on channel=0 note=78 velocity=64 time=0
note_on channel=0 note=78 velocity=0 time=120
note_on channel=0 note=76 velocity=69 time=0
note_on channel=0 note=76 velocity=0 time=120
note_on channel=0 note=78 velocity=64 time=0
note_on channel=0 note=78 velocity=0 time=120
note_on channel=0 note=76 velocity=67 time=0
note_on channel=0 note=76 velocity=0 time=120
note_on channel=0 note=75 velocity=58 time=0
note_on channel=0 note=75 velocity=0 time=120
note_on channel=0 note=76 velocity=62 time=0
note_on channel=0 note=76 velocity=0 time=120
note_on channel=0 note=88 velocity=71 time=0
note_on channel=0 note=88 velocity=0 time=120
note_on channel=0 note=87 velocity=71 time=0
note_on channel=0 note=87 velocity=0 time=120
note_on channel=0 note=86 velocity=70 time=0
note_on channel=0 note=86 velocity=0 time=120
note_on channel=0 note=85 velocity=70 time=0
note_on channel=0 note=85 velocity=0 time=120
note_on channel=0 note=84 velocity=71 time=0
note_on channel=0 note=84 velocity=0 time=120
note_on channel=0 note=83 velocity=71 time=0
note_on channel=0 note=83 velocity=0 time=120
note_on channel=0 note=82 velocity=72 time=0
note_on channel=0 note=82 velocity=0 time=120
note_on channel=0 note=81 velocity=73 time=0
note_on channel=0 note=81 velocity=0 time=120
note_on channel=0 note=80 velocity=74 time=0
note_on channel=0 note=80 velocity=0 time=120
note_on channel=0 note=79 velocity=75 time=0
note_on channel=0 note=79 velocity=0 time=120
note_on channel=0 note=78 velocity=76 time=0
note_on channel=0 note=78 velocity=0 time=120
note_on channel=0 note=80 velocity=76 time=0
note_on channel=0 note=80 velocity=0 time=60
note_on channel=0 note=92 velocity=85 time=180
note_on channel=0 note=92 velocity=0 time=120
note_on channel=0 note=91 velocity=85 time=0
note_on channel=0 note=91 velocity=0 time=120
note_on channel=0 note=90 velocity=84 time=0
note_on channel=0 note=90 velocity=0 time=120
note_on channel=0 note=89 velocity=84 time=0
note_on channel=0 note=89 velocity=0 time=120
note_on channel=0 note=88 velocity=83 time=0
note_on channel=0 note=88 velocity=0 time=120
note_on channel=0 note=87 velocity=83 time=0
note_on channel=0 note=87 velocity=0 time=120
note_on channel=0 note=86 velocity=82 time=0
note_on channel=0 note=86 velocity=0 time=120
note_on channel=0 note=85 velocity=81 time=0
note_on channel=0 note=85 velocity=0 time=120
note_on channel=0 note=84 velocity=81 time=0
note_on channel=0 note=84 velocity=0 time=120
note_on channel=0 note=83 velocity=80 time=0
note_on channel=0 note=83 velocity=0 time=120
note_on channel=0 note=82 velocity=80 time=0
note_on channel=0 note=82 velocity=0 time=120
note_on channel=0 note=81 velocity=79 time=0
note_on channel=0 note=81 velocity=0 time=120
note_on channel=0 note=80 velocity=79 time=0
note_on channel=0 note=80 velocity=0 time=120
note_on channel=0 note=79 velocity=78 time=0
note_on channel=0 note=79 velocity=0 time=120
note_on channel=0 note=78 velocity=77 time=0
note_on channel=0 note=78 velocity=0 time=120
note_on channel=0 note=77 velocity=77 time=0
note_on channel=0 note=77 velocity=0 time=120
note_on channel=0 note=76 velocity=77 time=0
note_on channel=0 note=76 velocity=0 time=120
note_on channel=0 note=75 velocity=77 time=0
note_on channel=0 note=75 velocity=0 time=120
note_on channel=0 note=74 velocity=77 time=0
note_on channel=0 note=74 velocity=0 time=120
note_on channel=0 note=73 velocity=77 time=0
note_on channel=0 note=73 velocity=0 time=120
note_on channel=0 note=72 velocity=77 time=0
note_on channel=0 note=72 velocity=0 time=120
note_on channel=0 note=71 velocity=77 time=0
note_on channel=0 note=71 velocity=0 time=120
note_on channel=0 note=70 velocity=77 time=0
note_on channel=0 note=70 velocity=0 time=120
note_on channel=0 note=69 velocity=78 time=0
note_on channel=0 note=69 velocity=0 time=120
note_on channel=0 note=68 velocity=80 time=0
note_on channel=0 note=68 velocity=0 time=120
note_on channel=0 note=67 velocity=82 time=0
note_on channel=0 note=67 velocity=0 time=120
note_on channel=0 note=66 velocity=85 time=0
note_on channel=0 note=66 velocity=0 time=120
note_on channel=0 note=64 velocity=87 time=0
note_on channel=0 note=64 velocity=0 time=120
note_on channel=0 note=63 velocity=90 time=0
note_on channel=0 note=63 velocity=0 time=120
note_on channel=0 note=61 velocity=92 time=0
note_on channel=0 note=61 velocity=0 time=120
note_on channel=0 note=56 velocity=94 time=0
note_on channel=0 note=56 velocity=0 time=120
note_on channel=0 note=93 velocity=90 time=360
note_on channel=0 note=93 velocity=0 time=120
note_on channel=0 note=92 velocity=81 time=0
note_on channel=0 note=92 velocity=0 time=120
note_on channel=0 note=100 velocity=77 time=0
note_on channel=0 note=100 velocity=0 time=120
note_on channel=0 note=88 velocity=77 time=0
note_on channel=0 note=88 velocity=0 time=120
note_on channel=0 note=90 velocity=90 time=0
note_on channel=0 note=90 velocity=0 time=120
note_on channel=0 note=88 velocity=77 time=0
note_on channel=0 note=88 velocity=0 time=120
note_on channel=0 note=97 velocity=77 time=0
note_on channel=0 note=97 velocity=0 time=120
note_on channel=0 note=85 velocity=77 time=0
note_on channel=0 note=85 velocity=0 time=120
note_on channel=0 note=87 velocity=89 time=0
note_on channel=0 note=87 velocity=0 time=120
note_on channel=0 note=85 velocity=77 time=0
note_on channel=0 note=85 velocity=0 time=120
note_on channel=0 note=92 velocity=77 time=0
note_on channel=0 note=92 velocity=0 time=120
note_on channel=0 note=80 velocity=77 time=0
note_on channel=0 note=80 velocity=0 time=120
note_on channel=0 note=81 velocity=89 time=0
note_on channel=0 note=81 velocity=0 time=120
note_on channel=0 note=80 velocity=77 time=0
note_on channel=0 note=80 velocity=0 time=120
note_on channel=0 note=88 velocity=77 time=0
note_on channel=0 note=88 velocity=0 time=120
note_on channel=0 note=76 velocity=77 time=0
note_on channel=0 note=76 velocity=0 time=120
note_on channel=0 note=78 velocity=88 time=0
note_on channel=0 note=78 velocity=0 time=120
note_on channel=0 note=76 velocity=77 time=0
note_on channel=0 note=76 velocity=0 time=120
note_on channel=0 note=85 velocity=77 time=0
note_on channel=0 note=85 velocity=0 time=120
note_on channel=0 note=73 velocity=77 time=0
note_on channel=0 note=73 velocity=0 time=120
note_on channel=0 note=75 velocity=89 time=0
note_on channel=0 note=75 velocity=0 time=120
note_on channel=0 note=73 velocity=77 time=0
note_on channel=0 note=73 velocity=0 time=120
note_on channel=0 note=80 velocity=77 time=0
note_on channel=0 note=80 velocity=0 time=120
note_on channel=0 note=68 velocity=77 time=0
note_on channel=0 note=68 velocity=0 time=120
note_on channel=0 note=69 velocity=90 time=0
note_on channel=0 note=69 velocity=0 time=120
note_on channel=0 note=68 velocity=77 time=0
note_on channel=0 note=68 velocity=0 time=120
note_on channel=0 note=76 velocity=77 time=0
note_on channel=0 note=76 velocity=0 time=120
note_on channel=0 note=64 velocity=77 time=0
note_on channel=0 note=64 velocity=0 time=120
note_on channel=0 note=66 velocity=88 time=0
note_on channel=0 note=66 velocity=0 time=120
note_on channel=0 note=64 velocity=77 time=0
note_on channel=0 note=64 velocity=0 time=120
note_on channel=0 note=73 velocity=77 time=0
note_on channel=0 note=73 velocity=0 time=120
note_on channel=0 note=61 velocity=77 time=0
note_on channel=0 note=61 velocity=0 time=120
note_on channel=0 note=63 velocity=89 time=0
note_on channel=0 note=63 velocity=0 time=120
note_on channel=0 note=61 velocity=77 time=0
note_on channel=0 note=61 velocity=0 time=120
note_on channel=0 note=68 velocity=77 time=0
note_on channel=0 note=68 velocity=0 time=120
note_on channel=0 note=56 velocity=77 time=0
note_on channel=0 note=56 velocity=0 time=120
note_on channel=0 note=63 velocity=89 time=0
note_on channel=0 note=63 velocity=0 time=120
note_on channel=0 note=61 velocity=77 time=0
note_on channel=0 note=61 velocity=0 time=120
note_on channel=0 note=68 velocity=77 time=0
note_on channel=0 note=68 velocity=0 time=120
note_on channel=0 note=56 velocity=77 time=0
note_on channel=0 note=56 velocity=0 time=120
note_on channel=0 note=63 velocity=89 time=0
note_on channel=0 note=63 velocity=0 time=120
note_on channel=0 note=61 velocity=77 time=0
note_on channel=0 note=61 velocity=0 time=120
note_on channel=0 note=69 velocity=77 time=0
note_on channel=0 note=69 velocity=0 time=120
note_on channel=0 note=57 velocity=77 time=0
note_on channel=0 note=57 velocity=0 time=120
note_on channel=0 note=63 velocity=89 time=0
note_on channel=0 note=63 velocity=0 time=120
note_on channel=0 note=61 velocity=75 time=0
note_on channel=0 note=61 velocity=0 time=120
note_on channel=0 note=68 velocity=74 time=0
note_on channel=0 note=68 velocity=0 time=120
note_on channel=0 note=56 velocity=73 time=0
note_on channel=0 note=56 velocity=0 time=120
note_on channel=0 note=63 velocity=83 time=0
note_on channel=0 note=63 velocity=0 time=120
note_on channel=0 note=61 velocity=71 time=0
note_on channel=0 note=61 velocity=0 time=120
note_on channel=0 note=67 velocity=71 time=0
note_on channel=0 note=67 velocity=0 time=120
note_on channel=0 note=55 velocity=70 time=0
note_on channel=0 note=55 velocity=0 time=120
note_on channel=0 note=63 velocity=79 time=0
note_on channel=0 note=63 velocity=0 time=120
note_on channel=0 note=61 velocity=68 time=0
note_on channel=0 note=61 velocity=0 time=120
note_on channel=0 note=68 velocity=67 time=0
note_on channel=0 note=68 velocity=0 time=120
note_on channel=0 note=56 velocity=66 time=0
note_on channel=0 note=56 velocity=0 time=120
note_on channel=0 note=63 velocity=75 time=0
note_on channel=0 note=63 velocity=0 time=120
note_on channel=0 note=60 velocity=63 time=0
note_on channel=0 note=60 velocity=0 time=120
note_on channel=0 note=68 velocity=63 time=0
note_on channel=0 note=68 velocity=0 time=120
note_on channel=0 note=56 velocity=62 time=0
note_on channel=0 note=56 velocity=0 time=120
note_on channel=0 note=68 velocity=45 time=3840
note_on channel=0 note=68 velocity=0 time=960
note_on channel=0 note=70 velocity=42 time=0
note_on channel=0 note=70 velocity=0 time=60
note_on channel=0 note=72 velocity=42 time=0
note_on channel=0 note=72 velocity=0 time=60
note_on channel=0 note=70 velocity=46 time=0
note_on channel=0 note=70 velocity=0 time=120
note_on channel=0 note=68 velocity=45 time=0
note_on channel=0 note=68 velocity=0 time=240
note_on channel=0 note=73 velocity=45 time=0
note_on channel=0 note=73 velocity=0 time=240
note_on channel=0 note=75 velocity=48 time=0
note_on channel=0 note=75 velocity=0 time=240
note_on channel=0 note=77 velocity=51 time=0
note_on channel=0 note=77 velocity=0 time=960
note_on channel=0 note=80 velocity=56 time=0
note_on channel=0 note=68 velocity=49 time=480
note_on channel=0 note=68 velocity=0 time=480
note_on channel=0 note=80 velocity=0 time=0
note_on channel=0 note=78 velocity=53 time=0
note_on channel=0 note=78 velocity=0 time=480
note_on channel=0 note=77 velocity=51 time=0
note_on channel=0 note=77 velocity=0 time=480
note_on channel=0 note=75 velocity=49 time=0
note_on channel=0 note=75 velocity=0 time=480
note_on channel=0 note=77 velocity=51 time=0
note_on channel=0 note=77 velocity=0 time=360
note_on channel=0 note=73 velocity=47 time=0
note_on channel=0 note=73 velocity=0 time=120
note_on channel=0 note=68 velocity=48 time=0
note_on channel=0 note=68 velocity=0 time=960
note_on channel=0 note=70 velocity=48 time=0
note_on channel=0 note=70 velocity=0 time=1920
note_on channel=0 note=71 velocity=42 time=0
note_on channel=0 note=71 velocity=0 time=60
note_on channel=0 note=73 velocity=42 time=0
note_on channel=0 note=73 velocity=0 time=60
note_on channel=0 note=71 velocity=46 time=0
note_on channel=0 note=71 velocity=0 time=120
note_on channel=0 note=70 velocity=45 time=0
note_on channel=0 note=70 velocity=0 time=240
note_on channel=0 note=75 velocity=45 time=0
note_on channel=0 note=75 velocity=0 time=240
note_on channel=0 note=77 velocity=48 time=0
note_on channel=0 note=77 velocity=0 time=240
note_on channel=0 note=78 velocity=51 time=0
note_on channel=0 note=78 velocity=0 time=480
note_on channel=0 note=77 velocity=50 time=0
note_on channel=0 note=77 velocity=0 time=480
note_on channel=0 note=75 velocity=51 time=0
note_on channel=0 note=75 velocity=0 time=480
note_on channel=0 note=77 velocity=49 time=0
note_on channel=0 note=77 velocity=0 time=480
note_on channel=0 note=73 velocity=48 time=0
note_on channel=0 note=73 velocity=0 time=720
note_on channel=0 note=72 velocity=49 time=0
note_on channel=0 note=72 velocity=0 time=60
note_on channel=0 note=73 velocity=45 time=0
note_on channel=0 note=73 velocity=0 time=60
note_on channel=0 note=75 velocity=45 time=0
note_on channel=0 note=75 velocity=0 time=60
note_on channel=0 note=73 velocity=45 time=0
note_on channel=0 note=73 velocity=0 time=60
note_on channel=0 note=77 velocity=50 time=0
note_on channel=0 note=77 velocity=0 time=720
note_on channel=0 note=75 velocity=49 time=0
note_on channel=0 note=75 velocity=0 time=240
note_on channel=0 note=75 velocity=47 time=0
note_on channel=0 note=75 velocity=0 time=1920
note_on channel=0 note=68 velocity=45 time=0
note_on channel=0 note=68 velocity=0 time=960
note_on channel=0 note=70 velocity=42 time=0
note_on channel=0 note=70 velocity=0 time=60
note_on channel=0 note=72 velocity=42 time=0
note_on channel=0 note=72 velocity=0 time=60
note_on channel=0 note=70 velocity=46 time=0
note_on channel=0 note=70 velocity=0 time=120
note_on channel=0 note=68 velocity=45 time=0
note_on channel=0 note=68 velocity=0 time=240
note_on channel=0 note=73 velocity=45 time=0
note_on channel=0 note=73 velocity=0 time=240
note_on channel=0 note=75 velocity=48 time=0
note_on channel=0 note=75 velocity=0 time=240
note_on channel=0 note=77 velocity=51 time=0
note_on channel=0 note=77 velocity=0 time=960
note_on channel=0 note=80 velocity=56 time=0
note_on channel=0 note=68 velocity=49 time=480
note_on channel=0 note=68 velocity=0 time=480
note_on channel=0 note=80 velocity=0 time=0
note_on channel=0 note=78 velocity=53 time=0
note_on channel=0 note=78 velocity=0 time=480
note_on channel=0 note=77 velocity=51 time=0
note_on channel=0 note=77 velocity=0 time=480
note_on channel=0 note=75 velocity=49 time=0
note_on channel=0 note=75 velocity=0 time=240
note_on channel=0 note=77 velocity=47 time=0
note_on channel=0 note=77 velocity=0 time=60
note_on channel=0 note=75 velocity=47 time=0
note_on channel=0 note=75 velocity=0 time=60
note_on channel=0 note=73 velocity=47 time=0
note_on channel=0 note=73 velocity=0 time=60
note_on channel=0 note=75 velocity=47 time=0
note_on channel=0 note=75 velocity=0 time=60
note_on channel=0 note=77 velocity=51 time=0
note_on channel=0 note=77 velocity=0 time=360
note_on channel=0 note=73 velocity=47 time=0
note_on channel=0 note=73 velocity=0 time=120
note_on channel=0 note=68 velocity=48 time=0
note_on channel=0 note=68 velocity=0 time=960
note_on channel=0 note=70 velocity=48 time=0
note_on channel=0 note=70 velocity=0 time=1920
note_on channel=0 note=71 velocity=42 time=0
note_on channel=0 note=71 velocity=0 time=60
note_on channel=0 note=73 velocity=42 time=0
note_on channel=0 note=73 velocity=0 time=60
note_on channel=0 note=71 velocity=46 time=0
note_on channel=0 note=71 velocity=0 time=120
note_on channel=0 note=70 velocity=45 time=0
note_on channel=0 note=70 velocity=0 time=240
note_on channel=0 note=75 velocity=45 time=0
note_on channel=0 note=75 velocity=0 time=240
note_on channel=0 note=77 velocity=48 time=0
note_on channel=0 note=77 velocity=0 time=240
note_on channel=0 note=78 velocity=51 time=0
note_on channel=0 note=78 velocity=0 time=480
note_on channel=0 note=77 velocity=50 time=0
note_on channel=0 note=77 velocity=0 time=480
note_on channel=0 note=75 velocity=51 time=0
note_on channel=0 note=75 velocity=0 time=480
note_on channel=0 note=77 velocity=49 time=0
note_on channel=0 note=77 velocity=0 time=480
note_on channel=0 note=73 velocity=48 time=0
note_on channel=0 note=73 velocity=0 time=720
note_on channel=0 note=67 velocity=49 time=0
note_on channel=0 note=67 velocity=0 time=60
note_on channel=0 note=68 velocity=45 time=0
note_on channel=0 note=68 velocity=0 time=60
note_on channel=0 note=70 velocity=45 time=0
note_on channel=0 note=70 velocity=0 time=60
note_on channel=0 note=68 velocity=45 time=0
note_on channel=0 note=68 velocity=0 time=60
note_on channel=0 note=77 velocity=50 time=0
note_on channel=0 note=77 velocity=0 time=720
note_on channel=0 note=75 velocity=49 time=0
note_on channel=0 note=75 velocity=0 time=240
note_on channel=0 note=75 velocity=52 time=0
note_on channel=0 note=75 velocity=0 time=960
note_on channel=0 note=73 velocity=52 time=0
note_on channel=0 note=73 velocity=0 time=480
note_on channel=0 note=80 velocity=60 time=240
note_on channel=0 note=80 velocity=0 time=240
note_on channel=0 note=68 velocity=65 time=0
note_on channel=0 note=68 velocity=0 time=960
note_on channel=0 note=70 velocity=65 time=0
note_on channel=0 note=70 velocity=0 time=60
note_on channel=0 note=72 velocity=59 time=0
note_on channel=0 note=72 velocity=0 time=60
note_on channel=0 note=70 velocity=60 time=0
note_on channel=0 note=70 velocity=0 time=60
note_on channel=0 note=72 velocity=59 time=0
note_on channel=0 note=72 velocity=0 time=60
note_on channel=0 note=70 velocity=56 time=0
note_on channel=0 note=70 velocity=0 time=40
note_on channel=0 note=72 velocity=56 time=0
note_on channel=0 note=72 velocity=0 time=40
note_on channel=0 note=70 velocity=56 time=0
note_on channel=0 note=70 velocity=0 time=40
note_on channel=0 note=69 velocity=62 time=0
note_on channel=0 note=69 velocity=0 time=120
note_on channel=0 note=70 velocity=64 time=0
note_on channel=0 note=70 velocity=0 time=360
note_on channel=0 note=72 velocity=62 time=0
note_on channel=0 note=72 velocity=0 time=120
note_on channel=0 note=68 velocity=66 time=0
note_on channel=0 note=68 velocity=0 time=240
note_on channel=0 note=84 velocity=66 time=240
note_on channel=0 note=84 velocity=0 time=617
note_on channel=0 note=82 velocity=63 time=0
note_on channel=0 note=82 velocity=0 time=137
note_on channel=0 note=80 velocity=62 time=0
note_on channel=0 note=80 velocity=0 time=137
note_on channel=0 note=76 velocity=61 time=0
note_on channel=0 note=76 velocity=0 time=137
note_on channel=0 note=73 velocity=59 time=0
note_on channel=0 note=73 velocity=0 time=137
note_on channel=0 note=70 velocity=58 time=0
note_on channel=0 note=70 velocity=0 time=206
note_on channel=0 note=80 velocity=55 time=0
note_on channel=0 note=80 velocity=0 time=69
note_on channel=0 note=63 velocity=66 time=0
note_on channel=0 note=63 velocity=0 time=900
note_on channel=0 note=72 velocity=59 time=0
note_on channel=0 note=72 velocity=0 time=60
note_on channel=0 note=70 velocity=64 time=0
note_on channel=0 note=70 velocity=0 time=360
note_on channel=0 note=69 velocity=57 time=0
note_on channel=0 note=69 velocity=0 time=120
note_on channel=0 note=70 velocity=64 time=0
note_on channel=0 note=70 velocity=0 time=360
note_on channel=0 note=75 velocity=62 time=0
note_on channel=0 note=75 velocity=0 time=120
note_on channel=0 note=68 velocity=65 time=0
note_on channel=0 note=68 velocity=0 time=480
note_on channel=0 note=70 velocity=39 time=480
note_on channel=0 note=70 velocity=0 time=480
note_on channel=0 note=73 velocity=44 time=0
note_on channel=0 note=73 velocity=0 time=160
note_on channel=0 note=72 velocity=39 time=0
note_on channel=0 note=72 velocity=0 time=160
note_on channel=0 note=70 velocity=39 time=0
note_on channel=0 note=70 velocity=0 time=160
note_on channel=0 note=68 velocity=43 time=0
note_on channel=0 note=68 velocity=0 time=960
note_on channel=0 note=70 velocity=46 time=0
note_on channel=0 note=70 velocity=0 time=48
note_on channel=0 note=72 velocity=42 time=0
note_on channel=0 note=72 velocity=0 time=48
note_on channel=0 note=70 velocity=42 time=0
note_on channel=0 note=70 velocity=0 time=48
note_on channel=0 note=72 velocity=44 time=0
note_on channel=0 note=72 velocity=0 time=48
note_on channel=0 note=70 velocity=42 time=0
note_on channel=0 note=70 velocity=0 time=48
note_on channel=0 note=68 velocity=41 time=0
note_on channel=0 note=68 velocity=0 time=240
note_on channel=0 note=73 velocity=45 time=0
note_on channel=0 note=73 velocity=0 time=240
note_on channel=0 note=75 velocity=48 time=0
note_on channel=0 note=75 velocity=0 time=240
note_on channel=0 note=77 velocity=51 time=0
note_on channel=0 note=77 velocity=0 time=960
note_on channel=0 note=80 velocity=56 time=0
note_on channel=0 note=68 velocity=49 time=480
note_on channel=0 note=68 velocity=0 time=480
note_on channel=0 note=80 velocity=0 time=0
note_on channel=0 note=78 velocity=53 time=0
note_on channel=0 note=78 velocity=0 time=480
note_on channel=0 note=77 velocity=51 time=0
note_on channel=0 note=77 velocity=0 time=480
note_on channel=0 note=75 velocity=49 time=0
note_on channel=0 note=75 velocity=0 time=240
note_on channel=0 note=77 velocity=47 time=0
note_on channel=0 note=77 velocity=0 time=60
note_on channel=0 note=75 velocity=47 time=0
note_on channel=0 note=75 velocity=0 time=60
note_on channel=0 note=73 velocity=47 time=0
note_on channel=0 note=73 velocity=0 time=60
note_on channel=0 note=75 velocity=47 time=0
note_on channel=0 note=75 velocity=0 time=60
note_on channel=0 note=77 velocity=51 time=0
note_on channel=0 note=77 velocity=0 time=240
note_on channel=0 note=73 velocity=47 time=0
note_on channel=0 note=73 velocity=0 time=240
note_on channel=0 note=68 velocity=48 time=0
note_on channel=0 note=68 velocity=0 time=960
note_on channel=0 note=70 velocity=48 time=0
note_on channel=0 note=70 velocity=0 time=1920
note_on channel=0 note=71 velocity=45 time=0
note_on channel=0 note=71 velocity=0 time=48
note_on channel=0 note=73 velocity=42 time=0
note_on channel=0 note=73 velocity=0 time=48
note_on channel=0 note=71 velocity=41 time=0
note_on channel=0 note=71 velocity=0 time=48
note_on channel=0 note=73 velocity=42 time=0
note_on channel=0 note=73 velocity=0 time=48
note_on channel=0 note=71 velocity=42 time=4
note_on channel=0 note=70 velocity=45 time=44
note_on channel=0 note=71 velocity=0 time=4
note_on channel=0 note=70 velocity=0 time=236
note_on channel=0 note=75 velocity=45 time=0
note_on channel=0 note=75 velocity=0 time=240
note_on channel=0 note=77 velocity=48 time=0
note_on channel=0 note=77 velocity=0 time=240
note_on channel=0 note=78 velocity=51 time=0
note_on channel=0 note=78 velocity=0 time=480
note_on channel=0 note=77 velocity=50 time=0
note_on channel=0 note=77 velocity=0 time=480
note_on channel=0 note=75 velocity=51 time=0
note_on channel=0 note=75 velocity=0 time=480
note_on channel=0 note=77 velocity=49 time=0
note_on channel=0 note=77 velocity=0 time=480
note_on channel=0 note=73 velocity=48 time=0
note_on channel=0 note=73 velocity=0 time=720
note_on channel=0 note=67 velocity=49 time=0
note_on channel=0 note=67 velocity=0 time=60
note_on channel=0 note=68 velocity=45 time=0
note_on channel=0 note=68 velocity=0 time=60
note_on channel=0 note=70 velocity=45 time=0
note_on channel=0 note=70 velocity=0 time=60
note_on channel=0 note=68 velocity=45 time=0
note_on channel=0 note=68 velocity=0 time=60
note_on channel=0 note=77 velocity=50 time=0
note_on channel=0 note=77 velocity=0 time=720
note_on channel=0 note=75 velocity=49 time=0
note_on channel=0 note=75 velocity=0 time=240
note_on channel=0 note=75 velocity=52 time=0
note_on channel=0 note=75 velocity=0 time=960
note_on channel=0 note=73 velocity=52 time=0
note_on channel=0 note=73 velocity=0 time=480
note_on channel=0 note=80 velocity=60 time=240
note_on channel=0 note=80 velocity=0 time=240
note_on channel=0 note=68 velocity=65 time=0
note_on channel=0 note=68 velocity=0 time=960
note_on channel=0 note=70 velocity=65 time=0
note_on channel=0 note=70 velocity=0 time=60
note_on channel=0 note=72 velocity=59 time=0
note_on channel=0 note=72 velocity=0 time=60
note_on channel=0 note=70 velocity=60 time=0
note_on channel=0 note=70 velocity=0 time=60
note_on channel=0 note=72 velocity=59 time=0
note_on channel=0 note=72 velocity=0 time=60
note_on channel=0 note=70 velocity=56 time=0
note_on channel=0 note=70 velocity=0 time=40
note_on channel=0 note=72 velocity=56 time=0
note_on channel=0 note=72 velocity=0 time=40
note_on channel=0 note=70 velocity=56 time=0
note_on channel=0 note=70 velocity=0 time=40
note_on channel=0 note=69 velocity=62 time=0
note_on channel=0 note=69 velocity=0 time=120
note_on channel=0 note=70 velocity=64 time=0
note_on channel=0 note=70 velocity=0 time=360
note_on channel=0 note=72 velocity=62 time=0
note_on channel=0 note=72 velocity=0 time=120
note_on channel=0 note=68 velocity=66 time=0
note_on channel=0 note=68 velocity=0 time=240
note_on channel=0 note=84 velocity=66 time=240
note_on channel=0 note=84 velocity=0 time=617
note_on channel=0 note=82 velocity=63 time=0
note_on channel=0 note=82 velocity=0 time=137
note_on channel=0 note=80 velocity=62 time=0
note_on channel=0 note=80 velocity=0 time=137
note_on channel=0 note=76 velocity=61 time=0
note_on channel=0 note=76 velocity=0 time=137
note_on channel=0 note=73 velocity=59 time=0
note_on channel=0 note=73 velocity=0 time=137
note_on channel=0 note=70 velocity=58 time=0
note_on channel=0 note=70 velocity=0 time=206
note_on channel=0 note=80 velocity=55 time=0
note_on channel=0 note=80 velocity=0 time=69
note_on channel=0 note=63 velocity=66 time=0
note_on channel=0 note=63 velocity=0 time=900
note_on channel=0 note=72 velocity=59 time=0
note_on channel=0 note=72 velocity=0 time=60
note_on channel=0 note=70 velocity=64 time=0
note_on channel=0 note=70 velocity=0 time=360
note_on channel=0 note=69 velocity=57 time=0
note_on channel=0 note=69 velocity=0 time=120
note_on channel=0 note=70 velocity=64 time=0
note_on channel=0 note=70 velocity=0 time=360
note_on channel=0 note=75 velocity=62 time=0
note_on channel=0 note=75 velocity=0 time=120
note_on channel=0 note=68 velocity=65 time=0
note_on channel=0 note=68 velocity=0 time=480
note_on channel=0 note=70 velocity=39 time=480
note_on channel=0 note=70 velocity=0 time=480
note_on channel=0 note=73 velocity=44 time=0
note_on channel=0 note=73 velocity=0 time=160
note_on channel=0 note=72 velocity=39 time=0
note_on channel=0 note=72 velocity=0 time=160
note_on channel=0 note=70 velocity=39 time=0
note_on channel=0 note=70 velocity=0 time=160
note_on channel=0 note=68 velocity=43 time=0
note_on channel=0 note=68 velocity=0 time=960
note_on channel=0 note=70 velocity=47 time=0
note_on channel=0 note=70 velocity=0 time=48
note_on channel=0 note=72 velocity=43 time=0
note_on channel=0 note=72 velocity=0 time=48
note_on channel=0 note=70 velocity=43 time=0
note_on channel=0 note=70 velocity=0 time=48
note_on channel=0 note=72 velocity=43 time=0
note_on channel=0 note=72 velocity=0 time=48
note_on channel=0 note=70 velocity=43 time=0
note_on channel=0 note=70 velocity=0 time=48
note_on channel=0 note=68 velocity=45 time=0
note_on channel=0 note=68 velocity=0 time=240
note_on channel=0 note=73 velocity=45 time=0
note_on channel=0 note=73 velocity=0 time=240
note_on channel=0 note=75 velocity=48 time=0
note_on channel=0 note=75 velocity=0 time=240
note_on channel=0 note=77 velocity=51 time=0
note_on channel=0 note=77 velocity=0 time=960
note_on channel=0 note=80 velocity=56 time=0
note_on channel=0 note=68 velocity=49 time=480
note_on channel=0 note=68 velocity=0 time=480
note_on channel=0 note=80 velocity=0 time=0
note_on channel=0 note=78 velocity=53 time=0
note_on channel=0 note=78 velocity=0 time=480
note_on channel=0 note=77 velocity=51 time=0
note_on channel=0 note=77 velocity=0 time=480
note_on channel=0 note=75 velocity=49 time=0
note_on channel=0 note=75 velocity=0 time=240
note_on channel=0 note=77 velocity=47 time=0
note_on channel=0 note=77 velocity=0 time=60
note_on channel=0 note=75 velocity=47 time=0
note_on channel=0 note=75 velocity=0 time=60
note_on channel=0 note=73 velocity=47 time=0
note_on channel=0 note=73 velocity=0 time=60
note_on channel=0 note=75 velocity=47 time=0
note_on channel=0 note=75 velocity=0 time=60
note_on channel=0 note=77 velocity=51 time=0
note_on channel=0 note=77 velocity=0 time=240
note_on channel=0 note=73 velocity=47 time=0
note_on channel=0 note=73 velocity=0 time=240
note_on channel=0 note=68 velocity=48 time=0
note_on channel=0 note=68 velocity=0 time=960
note_on channel=0 note=70 velocity=48 time=0
note_on channel=0 note=70 velocity=0 time=1920
note_on channel=0 note=71 velocity=48 time=0
note_on channel=0 note=71 velocity=0 time=48
note_on channel=0 note=73 velocity=42 time=0
note_on channel=0 note=73 velocity=0 time=48
note_on channel=0 note=71 velocity=43 time=0
note_on channel=0 note=71 velocity=0 time=48
note_on channel=0 note=73 velocity=42 time=0
note_on channel=0 note=73 velocity=0 time=48
note_on channel=0 note=71 velocity=42 time=0
note_on channel=0 note=71 velocity=0 time=48
note_on channel=0 note=70 velocity=45 time=0
note_on channel=0 note=70 velocity=0 time=240
note_on channel=0 note=75 velocity=45 time=0
note_on channel=0 note=75 velocity=0 time=240
note_on channel=0 note=77 velocity=48 time=0
note_on channel=0 note=77 velocity=0 time=240
note_on channel=0 note=78 velocity=51 time=0
note_on channel=0 note=78 velocity=0 time=480
note_on channel=0 note=77 velocity=47 time=0
note_on channel=0 note=77 velocity=0 time=480
note_on channel=0 note=75 velocity=49 time=0
note_on channel=0 note=75 velocity=0 time=480
note_on channel=0 note=77 velocity=45 time=0
note_on channel=0 note=77 velocity=0 time=480
note_on channel=0 note=73 velocity=43 time=0
note_on channel=0 note=73 velocity=0 time=720
note_on channel=0 note=67 velocity=44 time=0
note_on channel=0 note=67 velocity=0 time=60
note_on channel=0 note=68 velocity=40 time=0
note_on channel=0 note=68 velocity=0 time=60
note_on channel=0 note=70 velocity=40 time=0
note_on channel=0 note=70 velocity=0 time=60
note_on channel=0 note=68 velocity=40 time=0
note_on channel=0 note=68 velocity=0 time=60
note_on channel=0 note=77 velocity=45 time=0
note_on channel=0 note=77 velocity=0 time=720
note_on channel=0 note=75 velocity=44 time=0
note_on channel=0 note=75 velocity=0 time=240
note_on channel=0 note=75 velocity=44 time=0
note_on channel=0 note=75 velocity=0 time=1920
note_on channel=0 note=68 velocity=37 time=120
note_on channel=0 note=68 velocity=0 time=120
note_on channel=0 note=69 velocity=41 time=0
note_on channel=0 note=69 velocity=0 time=120
note_on channel=0 note=68 velocity=38 time=0
note_on channel=0 note=68 velocity=0 time=120
note_on channel=0 note=67 velocity=39 time=0
note_on channel=0 note=67 velocity=0 time=120
note_on channel=0 note=68 velocity=40 time=0
note_on channel=0 note=68 velocity=0 time=120
note_on channel=0 note=73 velocity=42 time=0
note_on channel=0 note=73 velocity=0 time=120
note_on channel=0 note=76 velocity=43 time=0
note_on channel=0 note=76 velocity=0 time=120
note_on channel=0 note=75 velocity=45 time=0
note_on channel=0 note=75 velocity=0 time=120
note_on channel=0 note=73 velocity=43 time=0
note_on channel=0 note=73 velocity=0 time=120
note_on channel=0 note=75 velocity=45 time=0
note_on channel=0 note=75 velocity=0 time=120
note_on channel=0 note=73 velocity=43 time=0
note_on channel=0 note=73 velocity=0 time=120
note_on channel=0 note=72 velocity=44 time=0
note_on channel=0 note=72 velocity=0 time=120
note_on channel=0 note=73 velocity=46 time=0
note_on channel=0 note=73 velocity=0 time=120
note_on channel=0 note=76 velocity=49 time=0
note_on channel=0 note=76 velocity=0 time=120
note_on channel=0 note=80 velocity=47 time=0
note_on channel=0 note=80 velocity=0 time=120
note_on channel=0 note=68 velocity=45 time=120
note_on channel=0 note=68 velocity=0 time=120
note_on channel=0 note=69 velocity=49 time=0
note_on channel=0 note=69 velocity=0 time=120
note_on channel=0 note=68 velocity=45 time=0
note_on channel=0 note=68 velocity=0 time=120
note_on channel=0 note=67 velocity=46 time=0
note_on channel=0 note=67 velocity=0 time=120
note_on channel=0 note=68 velocity=48 time=0
note_on channel=0 note=68 velocity=0 time=120
note_on channel=0 note=73 velocity=50 time=0
note_on channel=0 note=73 velocity=0 time=120
note_on channel=0 note=76 velocity=51 time=0
note_on channel=0 note=76 velocity=0 time=120
note_on channel=0 note=75 velocity=54 time=0
note_on channel=0 note=75 velocity=0 time=120
note_on channel=0 note=73 velocity=51 time=0
note_on channel=0 note=73 velocity=0 time=120
note_on channel=0 note=75 velocity=53 time=0
note_on channel=0 note=75 velocity=0 time=120
note_on channel=0 note=73 velocity=51 time=0
note_on channel=0 note=73 velocity=0 time=120
note_on channel=0 note=72 velocity=52 time=0
note_on channel=0 note=72 velocity=0 time=120
note_on channel=0 note=73 velocity=54 time=0
note_on channel=0 note=73 velocity=0 time=120
note_on channel=0 note=76 velocity=57 time=0
note_on channel=0 note=76 velocity=0 time=120
note_on channel=0 note=80 velocity=55 time=0
note_on channel=0 note=80 velocity=0 time=120
note_on channel=0 note=69 velocity=56 time=120
note_on channel=0 note=69 velocity=0 time=120
note_on channel=0 note=73 velocity=58 time=0
note_on channel=0 note=73 velocity=0 time=120
note_on channel=0 note=75 velocity=60 time=0
note_on channel=0 note=75 velocity=0 time=120
note_on channel=0 note=78 velocity=63 time=0
note_on channel=0 note=78 velocity=0 time=120
note_on channel=0 note=81 velocity=63 time=0
note_on channel=0 note=81 velocity=0 time=120
note_on channel=0 note=85 velocity=66 time=0
note_on channel=0 note=85 velocity=0 time=120
note_on channel=0 note=87 velocity=72 time=0
note_on channel=0 note=87 velocity=0 time=120
note_on channel=0 note=95 velocity=76 time=0
note_on channel=0 note=95 velocity=0 time=120
note_on channel=0 note=93 velocity=75 time=0
note_on channel=0 note=93 velocity=0 time=120
note_on channel=0 note=92 velocity=70 time=0
note_on channel=0 note=92 velocity=0 time=120
note_on channel=0 note=90 velocity=69 time=0
note_on channel=0 note=90 velocity=0 time=120
note_on channel=0 note=88 velocity=68 time=0
note_on channel=0 note=88 velocity=0 time=120
note_on channel=0 note=87 velocity=67 time=0
note_on channel=0 note=87 velocity=0 time=120
note_on channel=0 note=90 velocity=66 time=0
note_on channel=0 note=90 velocity=0 time=120
note_on channel=0 note=85 velocity=67 time=0
note_on channel=0 note=85 velocity=0 time=120
note_on channel=0 note=84 velocity=68 time=0
note_on channel=0 note=84 velocity=0 time=120
note_on channel=0 note=87 velocity=63 time=0
note_on channel=0 note=87 velocity=0 time=120
note_on channel=0 note=81 velocity=63 time=0
note_on channel=0 note=81 velocity=0 time=120
note_on channel=0 note=80 velocity=63 time=0
note_on channel=0 note=80 velocity=0 time=120
note_on channel=0 note=78 velocity=60 time=0
note_on channel=0 note=78 velocity=0 time=120
note_on channel=0 note=81 velocity=58 time=0
note_on channel=0 note=81 velocity=0 time=120
note_on channel=0 note=76 velocity=54 time=0
note_on channel=0 note=76 velocity=0 time=120
note_on channel=0 note=75 velocity=54 time=0
note_on channel=0 note=75 velocity=0 time=120
note_on channel=0 note=78 velocity=53 time=0
note_on channel=0 note=78 velocity=0 time=120
note_on channel=0 note=73 velocity=48 time=0
note_on channel=0 note=73 velocity=0 time=120
note_on channel=0 note=72 velocity=48 time=0
note_on channel=0 note=72 velocity=0 time=120
note_on channel=0 note=75 velocity=47 time=0
note_on channel=0 note=75 velocity=0 time=120
note_on channel=0 note=69 velocity=45 time=0
note_on channel=0 note=69 velocity=0 time=120
note_on channel=0 note=68 velocity=42 time=0
note_on channel=0 note=68 velocity=0 time=120
note_on channel=0 note=71 velocity=42 time=0
note_on channel=0 note=71 velocity=0 time=120
note_on channel=0 note=69 velocity=41 time=0
note_on channel=0 note=69 velocity=0 time=240
note_on channel=0 note=68 velocity=37 time=0
note_on channel=0 note=68 velocity=0 time=120
note_on channel=0 note=69 velocity=41 time=0
note_on channel=0 note=69 velocity=0 time=120
note_on channel=0 note=68 velocity=38 time=0
note_on channel=0 note=68 velocity=0 time=120
note_on channel=0 note=67 velocity=39 time=0
note_on channel=0 note=67 velocity=0 time=120
note_on channel=0 note=68 velocity=40 time=0
note_on channel=0 note=68 velocity=0 time=120
note_on channel=0 note=73 velocity=42 time=0
note_on channel=0 note=73 velocity=0 time=120
note_on channel=0 note=76 velocity=43 time=0
note_on channel=0 note=76 velocity=0 time=120
note_on channel=0 note=75 velocity=45 time=0
note_on channel=0 note=75 velocity=0 time=120
note_on channel=0 note=73 velocity=43 time=0
note_on channel=0 note=73 velocity=0 time=120
note_on channel=0 note=75 velocity=45 time=0
note_on channel=0 note=75 velocity=0 time=120
note_on channel=0 note=73 velocity=43 time=0
note_on channel=0 note=73 velocity=0 time=120
note_on channel=0 note=72 velocity=44 time=0
note_on channel=0 note=72 velocity=0 time=120
note_on channel=0 note=73 velocity=46 time=0
note_on channel=0 note=73 velocity=0 time=120
note_on channel=0 note=76 velocity=49 time=0
note_on channel=0 note=76 velocity=0 time=120
note_on channel=0 note=80 velocity=47 time=0
note_on channel=0 note=80 velocity=0 time=120
note_on channel=0 note=68 velocity=45 time=120
note_on channel=0 note=68 velocity=0 time=120
note_on channel=0 note=70 velocity=49 time=0
note_on channel=0 note=70 velocity=0 time=120
note_on channel=0 note=68 velocity=45 time=0
note_on channel=0 note=68 velocity=0 time=120
note_on channel=0 note=67 velocity=46 time=0
note_on channel=0 note=67 velocity=0 time=120
note_on channel=0 note=68 velocity=48 time=0
note_on channel=0 note=68 velocity=0 time=120
note_on channel=0 note=73 velocity=50 time=0
note_on channel=0 note=73 velocity=0 time=120
note_on channel=0 note=76 velocity=51 time=0
note_on channel=0 note=76 velocity=0 time=120
note_on channel=0 note=75 velocity=54 time=0
note_on channel=0 note=75 velocity=0 time=120
note_on channel=0 note=73 velocity=51 time=0
note_on channel=0 note=73 velocity=0 time=120
note_on channel=0 note=75 velocity=53 time=0
note_on channel=0 note=75 velocity=0 time=120
note_on channel=0 note=73 velocity=51 time=0
note_on channel=0 note=73 velocity=0 time=120
note_on channel=0 note=72 velocity=52 time=0
note_on channel=0 note=72 velocity=0 time=120
note_on channel=0 note=73 velocity=54 time=0
note_on channel=0 note=73 velocity=0 time=120
note_on channel=0 note=76 velocity=57 time=0
note_on channel=0 note=76 velocity=0 time=120
note_on channel=0 note=80 velocity=55 time=0
note_on channel=0 note=80 velocity=0 time=120
note_on channel=0 note=75 velocity=64 time=0
note_on channel=0 note=75 velocity=0 time=120
note_on channel=0 note=76 velocity=58 time=0
note_on channel=0 note=76 velocity=0 time=120
note_on channel=0 note=75 velocity=61 time=0
note_on channel=0 note=75 velocity=0 time=120
note_on channel=0 note=74 velocity=50 time=0
note_on channel=0 note=74 velocity=0 time=120
note_on channel=0 note=75 velocity=56 time=0
note_on channel=0 note=75 velocity=0 time=120
note_on channel=0 note=83 velocity=68 time=0
note_on channel=0 note=83 velocity=0 time=120
note_on channel=0 note=82 velocity=62 time=0
note_on channel=0 note=82 velocity=0 time=120
note_on channel=0 note=80 velocity=65 time=0
note_on channel=0 note=80 velocity=0 time=120
note_on channel=0 note=79 velocity=68 time=0
note_on channel=0 note=79 velocity=0 time=120
note_on channel=0 note=88 velocity=72 time=0
note_on channel=0 note=88 velocity=0 time=120
note_on channel=0 note=87 velocity=69 time=0
note_on channel=0 note=87 velocity=0 time=120
note_on channel=0 note=85 velocity=69 time=0
note_on channel=0 note=85 velocity=0 time=120
note_on channel=0 note=83 velocity=74 time=0
note_on channel=0 note=83 velocity=0 time=120
note_on channel=0 note=82 velocity=69 time=0
note_on channel=0 note=82 velocity=0 time=120
note_on channel=0 note=80 velocity=69 time=0
note_on channel=0 note=80 velocity=0 time=120
note_on channel=0 note=79 velocity=69 time=0
note_on channel=0 note=79 velocity=0 time=120
note_on channel=0 note=82 velocity=72 time=0
note_on channel=0 note=82 velocity=0 time=120
note_on channel=0 note=80 velocity=70 time=0
note_on channel=0 note=80 velocity=0 time=120
note_on channel=0 note=83 velocity=64 time=0
note_on channel=0 note=83 velocity=0 time=120
note_on channel=0 note=74 velocity=57 time=0
note_on channel=0 note=74 velocity=0 time=120
note_on channel=0 note=76 velocity=65 time=0
note_on channel=0 note=76 velocity=0 time=120
note_on channel=0 note=75 velocity=57 time=0
note_on channel=0 note=75 velocity=0 time=120
note_on channel=0 note=80 velocity=63 time=0
note_on channel=0 note=80 velocity=0 time=120
note_on channel=0 note=70 velocity=57 time=0
note_on channel=0 note=70 velocity=0 time=120
note_on channel=0 note=73 velocity=61 time=0
note_on channel=0 note=73 velocity=0 time=120
note_on channel=0 note=71 velocity=59 time=0
note_on channel=0 note=71 velocity=0 time=120
note_on channel=0 note=75 velocity=58 time=0
note_on channel=0 note=75 velocity=0 time=120
note_on channel=0 note=67 velocity=56 time=0
note_on channel=0 note=67 velocity=0 time=120
note_on channel=0 note=70 velocity=60 time=0
note_on channel=0 note=70 velocity=0 time=120
note_on channel=0 note=68 velocity=51 time=0
note_on channel=0 note=68 velocity=0 time=120
note_on channel=0 note=67 velocity=55 time=0
note_on channel=0 note=67 velocity=0 time=120
note_on channel=0 note=68 velocity=50 time=0
note_on channel=0 note=68 velocity=0 time=120
note_on channel=0 note=68 velocity=72 time=0
note_on channel=0 note=68 velocity=0 time=120
note_on channel=0 note=80 velocity=58 time=0
note_on channel=0 note=80 velocity=0 time=120
note_on channel=0 note=72 velocity=59 time=0
note_on channel=0 note=72 velocity=0 time=120
note_on channel=0 note=73 velocity=59 time=0
note_on channel=0 note=73 velocity=0 time=120
note_on channel=0 note=66 velocity=71 time=0
note_on channel=0 note=66 velocity=0 time=120
note_on channel=0 note=78 velocity=60 time=0
note_on channel=0 note=78 velocity=0 time=120
note_on channel=0 note=72 velocity=60 time=0
note_on channel=0 note=72 velocity=0 time=120
note_on channel=0 note=73 velocity=61 time=0
note_on channel=0 note=73 velocity=0 time=120
note_on channel=0 note=65 velocity=75 time=0
note_on channel=0 note=65 velocity=0 time=120
note_on channel=0 note=77 velocity=62 time=0
note_on channel=0 note=77 velocity=0 time=120
note_on channel=0 note=72 velocity=63 time=0
note_on channel=0 note=72 velocity=0 time=120
note_on channel=0 note=73 velocity=63 time=0
note_on channel=0 note=73 velocity=0 time=120
note_on channel=0 note=66 velocity=74 time=0
note_on channel=0 note=66 velocity=0 time=120
note_on channel=0 note=78 velocity=65 time=0
note_on channel=0 note=78 velocity=0 time=120
note_on channel=0 note=72 velocity=64 time=0
note_on channel=0 note=72 velocity=0 time=120
note_on channel=0 note=73 velocity=64 time=0
note_on channel=0 note=73 velocity=0 time=120
note_on channel=0 note=61 velocity=77 time=0
note_on channel=0 note=61 velocity=0 time=120
note_on channel=0 note=73 velocity=65 time=0
note_on channel=0 note=73 velocity=0 time=120
note_on channel=0 note=66 velocity=65 time=0
note_on channel=0 note=66 velocity=0 time=120
note_on channel=0 note=69 velocity=65 time=0
note_on channel=0 note=69 velocity=0 time=120
note_on channel=0 note=63 velocity=75 time=0
note_on channel=0 note=63 velocity=0 time=120
note_on channel=0 note=75 velocity=65 time=0
note_on channel=0 note=75 velocity=0 time=120
note_on channel=0 note=66 velocity=65 time=0
note_on channel=0 note=66 velocity=0 time=120
note_on channel=0 note=69 velocity=65 time=0
note_on channel=0 note=69 velocity=0 time=120
note_on channel=0 note=64 velocity=79 time=0
note_on channel=0 note=64 velocity=0 time=120
note_on channel=0 note=76 velocity=66 time=0
note_on channel=0 note=76 velocity=0 time=120
note_on channel=0 note=68 velocity=66 time=0
note_on channel=0 note=68 velocity=0 time=120
note_on channel=0 note=71 velocity=66 time=0
note_on channel=0 note=71 velocity=0 time=120
note_on channel=0 note=68 velocity=77 time=0
note_on channel=0 note=68 velocity=0 time=120
note_on channel=0 note=80 velocity=67 time=0
note_on channel=0 note=80 velocity=0 time=120
note_on channel=0 note=71 velocity=66 time=0
note_on channel=0 note=71 velocity=0 time=120
note_on channel=0 note=76 velocity=65 time=0
note_on channel=0 note=76 velocity=0 time=120
note_on channel=0 note=68 velocity=81 time=0
note_on channel=0 note=68 velocity=0 time=120
note_on channel=0 note=80 velocity=65 time=0
note_on channel=0 note=80 velocity=0 time=120
note_on channel=0 note=72 velocity=65 time=0
note_on channel=0 note=72 velocity=0 time=120
note_on channel=0 note=73 velocity=65 time=0
note_on channel=0 note=73 velocity=0 time=120
note_on channel=0 note=66 velocity=78 time=0
note_on channel=0 note=66 velocity=0 time=120
note_on channel=0 note=78 velocity=65 time=0
note_on channel=0 note=78 velocity=0 time=120
note_on channel=0 note=72 velocity=65 time=0
note_on channel=0 note=72 velocity=0 time=120
note_on channel=0 note=73 velocity=65 time=0
note_on channel=0 note=73 velocity=0 time=120
note_on channel=0 note=65 velocity=79 time=0
note_on channel=0 note=65 velocity=0 time=120
note_on channel=0 note=77 velocity=66 time=0
note_on channel=0 note=77 velocity=0 time=120
note_on channel=0 note=72 velocity=66 time=0
note_on channel=0 note=72 velocity=0 time=120
note_on channel=0 note=73 velocity=66 time=0
note_on channel=0 note=73 velocity=0 time=120
note_on channel=0 note=66 velocity=77 time=0
note_on channel=0 note=66 velocity=0 time=120
note_on channel=0 note=78 velocity=67 time=0
note_on channel=0 note=78 velocity=0 time=120
note_on channel=0 note=72 velocity=66 time=0
note_on channel=0 note=72 velocity=0 time=120
note_on channel=0 note=73 velocity=65 time=0
note_on channel=0 note=73 velocity=0 time=120
note_on channel=0 note=65 velocity=81 time=0
note_on channel=0 note=65 velocity=0 time=120
note_on channel=0 note=77 velocity=65 time=0
note_on channel=0 note=77 velocity=0 time=120
note_on channel=0 note=71 velocity=65 time=0
note_on channel=0 note=71 velocity=0 time=120
note_on channel=0 note=75 velocity=65 time=0
note_on channel=0 note=75 velocity=0 time=120
note_on channel=0 note=66 velocity=78 time=0
note_on channel=0 note=66 velocity=0 time=120
note_on channel=0 note=78 velocity=65 time=0
note_on channel=0 note=78 velocity=0 time=120
note_on channel=0 note=71 velocity=65 time=0
note_on channel=0 note=71 velocity=0 time=120
note_on channel=0 note=75 velocity=65 time=0
note_on channel=0 note=75 velocity=0 time=120
note_on channel=0 note=69 velocity=79 time=0
note_on channel=0 note=69 velocity=0 time=120
note_on channel=0 note=81 velocity=66 time=0
note_on channel=0 note=81 velocity=0 time=120
note_on channel=0 note=71 velocity=66 time=0
note_on channel=0 note=71 velocity=0 time=120
note_on channel=0 note=76 velocity=66 time=0
note_on channel=0 note=76 velocity=0 time=120
note_on channel=0 note=68 velocity=77 time=0
note_on channel=0 note=68 velocity=0 time=120
note_on channel=0 note=80 velocity=67 time=0
note_on channel=0 note=80 velocity=0 time=120
note_on channel=0 note=71 velocity=66 time=0
note_on channel=0 note=71 velocity=0 time=120
note_on channel=0 note=76 velocity=65 time=0
note_on channel=0 note=76 velocity=0 time=120
note_on channel=0 note=68 velocity=52 time=0
note_on channel=0 note=68 velocity=0 time=120
note_on channel=0 note=80 velocity=57 time=0
note_on channel=0 note=80 velocity=0 time=120
note_on channel=0 note=72 velocity=47 time=0
note_on channel=0 note=72 velocity=0 time=120
note_on channel=0 note=73 velocity=47 time=0
note_on channel=0 note=73 velocity=0 time=120
note_on channel=0 note=66 velocity=49 time=0
note_on channel=0 note=66 velocity=0 time=120
note_on channel=0 note=78 velocity=54 time=0
note_on channel=0 note=78 velocity=0 time=120
note_on channel=0 note=72 velocity=48 time=0
note_on channel=0 note=72 velocity=0 time=120
note_on channel=0 note=73 velocity=48 time=0
note_on channel=0 note=73 velocity=0 time=120
note_on channel=0 note=65 velocity=51 time=0
note_on channel=0 note=65 velocity=0 time=120
note_on channel=0 note=77 velocity=56 time=0
note_on channel=0 note=77 velocity=0 time=120
note_on channel=0 note=72 velocity=50 time=0
note_on channel=0 note=72 velocity=0 time=120
note_on channel=0 note=73 velocity=50 time=0
note_on channel=0 note=73 velocity=0 time=120
note_on channel=0 note=66 velocity=53 time=0
note_on channel=0 note=66 velocity=0 time=120
note_on channel=0 note=78 velocity=58 time=0
note_on channel=0 note=78 velocity=0 time=120
note_on channel=0 note=72 velocity=51 time=0
note_on channel=0 note=72 velocity=0 time=120
note_on channel=0 note=73 velocity=51 time=0
note_on channel=0 note=73 velocity=0 time=120
note_on channel=0 note=61 velocity=55 time=0
note_on channel=0 note=61 velocity=0 time=120
note_on channel=0 note=73 velocity=60 time=0
note_on channel=0 note=73 velocity=0 time=120
note_on channel=0 note=66 velocity=52 time=0
note_on channel=0 note=66 velocity=0 time=120
note_on channel=0 note=69 velocity=53 time=0
note_on channel=0 note=69 velocity=0 time=120
note_on channel=0 note=63 velocity=55 time=0
note_on channel=0 note=63 velocity=0 time=120
note_on channel=0 note=75 velocity=62 time=0
note_on channel=0 note=75 velocity=0 time=120
note_on channel=0 note=66 velocity=54 time=0
note_on channel=0 note=66 velocity=0 time=120
note_on channel=0 note=69 velocity=54 time=0
note_on channel=0 note=69 velocity=0 time=120
note_on channel=0 note=64 velocity=57 time=0
note_on channel=0 note=64 velocity=0 time=120
note_on channel=0 note=76 velocity=65 time=0
note_on channel=0 note=76 velocity=0 time=120
note_on channel=0 note=68 velocity=56 time=0
note_on channel=0 note=68 velocity=0 time=120
note_on channel=0 note=71 velocity=56 time=0
note_on channel=0 note=71 velocity=0 time=120
note_on channel=0 note=68 velocity=60 time=0
note_on channel=0 note=68 velocity=0 time=120
note_on channel=0 note=80 velocity=68 time=0
note_on channel=0 note=80 velocity=0 time=120
note_on channel=0 note=71 velocity=57 time=0
note_on channel=0 note=71 velocity=0 time=120
note_on channel=0 note=76 velocity=58 time=0
note_on channel=0 note=76 velocity=0 time=120
note_on channel=0 note=68 velocity=62 time=0
note_on channel=0 note=68 velocity=0 time=120
note_on channel=0 note=80 velocity=68 time=0
note_on channel=0 note=80 velocity=0 time=120
note_on channel=0 note=72 velocity=59 time=0
note_on channel=0 note=72 velocity=0 time=120
note_on channel=0 note=73 velocity=59 time=0
note_on channel=0 note=73 velocity=0 time=120
note_on channel=0 note=66 velocity=62 time=0
note_on channel=0 note=66 velocity=0 time=120
note_on channel=0 note=78 velocity=70 time=0
note_on channel=0 note=78 velocity=0 time=120
note_on channel=0 note=72 velocity=61 time=0
note_on channel=0 note=72 velocity=0 time=120
note_on channel=0 note=73 velocity=61 time=0
note_on channel=0 note=73 velocity=0 time=120
note_on channel=0 note=75 velocity=64 time=0
note_on channel=0 note=75 velocity=0 time=120
note_on channel=0 note=87 velocity=73 time=0
note_on channel=0 note=87 velocity=0 time=120
note_on channel=0 note=78 velocity=62 time=0
note_on channel=0 note=78 velocity=0 time=120
note_on channel=0 note=81 velocity=62 time=0
note_on channel=0 note=81 velocity=0 time=120
note_on channel=0 note=73 velocity=66 time=0
note_on channel=0 note=73 velocity=0 time=120
note_on channel=0 note=85 velocity=74 time=0
note_on channel=0 note=85 velocity=0 time=120
note_on channel=0 note=78 velocity=62 time=0
note_on channel=0 note=78 velocity=0 time=120
note_on channel=0 note=81 velocity=62 time=0
note_on channel=0 note=81 velocity=0 time=120
note_on channel=0 note=73 velocity=64 time=0
note_on channel=0 note=73 velocity=0 time=120
note_on channel=0 note=85 velocity=73 time=0
note_on channel=0 note=85 velocity=0 time=120
note_on channel=0 note=75 velocity=61 time=0
note_on channel=0 note=75 velocity=0 time=120
note_on channel=0 note=78 velocity=61 time=0
note_on channel=0 note=78 velocity=0 time=120
note_on channel=0 note=72 velocity=64 time=0
note_on channel=0 note=72 velocity=0 time=120
note_on channel=0 note=84 velocity=71 time=0
note_on channel=0 note=84 velocity=0 time=120
note_on channel=0 note=75 velocity=60 time=0
note_on channel=0 note=75 velocity=0 time=120
note_on channel=0 note=78 velocity=59 time=0
note_on channel=0 note=78 velocity=0 time=120
note_on channel=0 note=72 velocity=60 time=0
note_on channel=0 note=72 velocity=0 time=120
note_on channel=0 note=84 velocity=69 time=0
note_on channel=0 note=84 velocity=0 time=120
note_on channel=0 note=75 velocity=58 time=0
note_on channel=0 note=75 velocity=0 time=120
note_on channel=0 note=78 velocity=58 time=0
note_on channel=0 note=78 velocity=0 time=120
note_on channel=0 note=72 velocity=61 time=0
note_on channel=0 note=72 velocity=0 time=120
note_on channel=0 note=84 velocity=68 time=0
note_on channel=0 note=84 velocity=0 time=120
note_on channel=0 note=75 velocity=57 time=0
note_on channel=0 note=75 velocity=0 time=120
note_on channel=0 note=78 velocity=56 time=0
note_on channel=0 note=78 velocity=0 time=120
note_on channel=0 note=72 velocity=57 time=0
note_on channel=0 note=72 velocity=0 time=120
note_on channel=0 note=84 velocity=65 time=0
note_on channel=0 note=84 velocity=0 time=120
note_on channel=0 note=75 velocity=55 time=0
note_on channel=0 note=75 velocity=0 time=120
note_on channel=0 note=78 velocity=55 time=0
note_on channel=0 note=78 velocity=0 time=120
note_on channel=0 note=71 velocity=58 time=0
note_on channel=0 note=71 velocity=0 time=120
note_on channel=0 note=83 velocity=64 time=0
note_on channel=0 note=83 velocity=0 time=120
note_on channel=0 note=75 velocity=53 time=0
note_on channel=0 note=75 velocity=0 time=120
note_on channel=0 note=78 velocity=53 time=0
note_on channel=0 note=78 velocity=0 time=120
note_on channel=0 note=71 velocity=54 time=0
note_on channel=0 note=71 velocity=0 time=120
note_on channel=0 note=83 velocity=62 time=0
note_on channel=0 note=83 velocity=0 time=120
note_on channel=0 note=75 velocity=52 time=0
note_on channel=0 note=75 velocity=0 time=120
note_on channel=0 note=78 velocity=52 time=0
note_on channel=0 note=78 velocity=0 time=120
note_on channel=0 note=70 velocity=54 time=0
note_on channel=0 note=70 velocity=0 time=120
note_on channel=0 note=82 velocity=60 time=0
note_on channel=0 note=82 velocity=0 time=120
note_on channel=0 note=75 velocity=50 time=0
note_on channel=0 note=75 velocity=0 time=120
note_on channel=0 note=78 velocity=50 time=0
note_on channel=0 note=78 velocity=0 time=120
note_on channel=0 note=70 velocity=55 time=0
note_on channel=0 note=70 velocity=0 time=120
note_on channel=0 note=82 velocity=49 time=6
note_on channel=0 note=75 velocity=48 time=114
note_on channel=0 note=82 velocity=0 time=6
note_on channel=0 note=75 velocity=0 time=114
note_on channel=0 note=78 velocity=48 time=0
note_on channel=0 note=78 velocity=0 time=120
note_on channel=0 note=69 velocity=53 time=0
note_on channel=0 note=69 velocity=0 time=120
note_on channel=0 note=81 velocity=48 time=6
note_on channel=0 note=75 velocity=47 time=114
note_on channel=0 note=81 velocity=0 time=6
note_on channel=0 note=75 velocity=0 time=114
note_on channel=0 note=78 velocity=47 time=0
note_on channel=0 note=78 velocity=0 time=120
note_on channel=0 note=69 velocity=52 time=0
note_on channel=0 note=69 velocity=0 time=120
note_on channel=0 note=81 velocity=49 time=0
note_on channel=0 note=81 velocity=0 time=120
note_on channel=0 note=75 velocity=45 time=0
note_on channel=0 note=75 velocity=0 time=120
note_on channel=0 note=78 velocity=45 time=0
note_on channel=0 note=78 velocity=0 time=120
note_on channel=0 note=69 velocity=51 time=0
note_on channel=0 note=69 velocity=0 time=120
note_on channel=0 note=81 velocity=47 time=0
note_on channel=0 note=81 velocity=0 time=120
note_on channel=0 note=75 velocity=44 time=0
note_on channel=0 note=75 velocity=0 time=120
note_on channel=0 note=78 velocity=44 time=0
note_on channel=0 note=78 velocity=0 time=120
note_on channel=0 note=72 velocity=52 time=0
note_on channel=0 note=72 velocity=0 time=120
note_on channel=0 note=84 velocity=47 time=6
note_on channel=0 note=75 velocity=47 time=114
note_on channel=0 note=84 velocity=0 time=6
note_on channel=0 note=75 velocity=0 time=114
note_on channel=0 note=78 velocity=47 time=0
note_on channel=0 note=78 velocity=0 time=120
note_on channel=0 note=71 velocity=51 time=0
note_on channel=0 note=71 velocity=0 time=120
note_on channel=0 note=83 velocity=46 time=0
note_on channel=0 note=83 velocity=0 time=120
note_on channel=0 note=75 velocity=46 time=0
note_on channel=0 note=75 velocity=0 time=120
note_on channel=0 note=78 velocity=46 time=0
note_on channel=0 note=78 velocity=0 time=120
note_on channel=0 note=71 velocity=51 time=0
note_on channel=0 note=71 velocity=0 time=120
note_on channel=0 note=83 velocity=48 time=0
note_on channel=0 note=83 velocity=0 time=120
note_on channel=0 note=75 velocity=45 time=0
note_on channel=0 note=75 velocity=0 time=120
note_on channel=0 note=78 velocity=45 time=0
note_on channel=0 note=78 velocity=0 time=120
note_on channel=0 note=70 velocity=51 time=0
note_on channel=0 note=70 velocity=0 time=120
note_on channel=0 note=82 velocity=47 time=0
note_on channel=0 note=82 velocity=0 time=120
note_on channel=0 note=75 velocity=44 time=0
note_on channel=0 note=75 velocity=0 time=120
note_on channel=0 note=78 velocity=44 time=0
note_on channel=0 note=78 velocity=0 time=120
note_on channel=0 note=70 velocity=52 time=0
note_on channel=0 note=70 velocity=0 time=120
note_on channel=0 note=82 velocity=46 time=0
note_on channel=0 note=82 velocity=0 time=120
note_on channel=0 note=75 velocity=46 time=0
note_on channel=0 note=75 velocity=0 time=120
note_on channel=0 note=78 velocity=45 time=0
note_on channel=0 note=78 velocity=0 time=120
note_on channel=0 note=69 velocity=48 time=0
note_on channel=0 note=69 velocity=0 time=120
note_on channel=0 note=81 velocity=43 time=0
note_on channel=0 note=81 velocity=0 time=120
note_on channel=0 note=75 velocity=42 time=0
note_on channel=0 note=75 velocity=0 time=120
note_on channel=0 note=78 velocity=42 time=0
note_on channel=0 note=78 velocity=0 time=120
note_on channel=0 note=69 velocity=45 time=0
note_on channel=0 note=69 velocity=0 time=120
note_on channel=0 note=81 velocity=42 time=0
note_on channel=0 note=81 velocity=0 time=120
note_on channel=0 note=75 velocity=39 time=0
note_on channel=0 note=75 velocity=0 time=120
note_on channel=0 note=78 velocity=39 time=0
note_on channel=0 note=78 velocity=0 time=120
note_on channel=0 note=68 velocity=43 time=0
note_on channel=0 note=68 velocity=0 time=120
note_on channel=0 note=80 velocity=39 time=0
note_on channel=0 note=80 velocity=0 time=120
note_on channel=0 note=75 velocity=36 time=0
note_on channel=0 note=75 velocity=0 time=120
note_on channel=0 note=78 velocity=36 time=0
note_on channel=0 note=78 velocity=0 time=120
note_on channel=0 note=68 velocity=37 time=120
note_on channel=0 note=68 velocity=0 time=120
note_on channel=0 note=69 velocity=41 time=0
note_on channel=0 note=69 velocity=0 time=120
note_on channel=0 note=68 velocity=38 time=0
note_on channel=0 note=68 velocity=0 time=120
note_on channel=0 note=67 velocity=39 time=0
note_on channel=0 note=67 velocity=0 time=120
note_on channel=0 note=68 velocity=40 time=0
note_on channel=0 note=68 velocity=0 time=120
note_on channel=0 note=73 velocity=42 time=0
note_on channel=0 note=73 velocity=0 time=120
note_on channel=0 note=76 velocity=43 time=0
note_on channel=0 note=76 velocity=0 time=120
note_on channel=0 note=75 velocity=45 time=0
note_on channel=0 note=75 velocity=0 time=120
note_on channel=0 note=73 velocity=43 time=0
note_on channel=0 note=73 velocity=0 time=120
note_on channel=0 note=75 velocity=45 time=0
note_on channel=0 note=75 velocity=0 time=120
note_on channel=0 note=73 velocity=43 time=0
note_on channel=0 note=73 velocity=0 time=120
note_on channel=0 note=72 velocity=44 time=0
note_on channel=0 note=72 velocity=0 time=120
note_on channel=0 note=73 velocity=46 time=0
note_on channel=0 note=73 velocity=0 time=120
note_on channel=0 note=76 velocity=49 time=0
note_on channel=0 note=76 velocity=0 time=120
note_on channel=0 note=80 velocity=47 time=0
note_on channel=0 note=80 velocity=0 time=120
note_on channel=0 note=68 velocity=45 time=120
note_on channel=0 note=68 velocity=0 time=120
note_on channel=0 note=69 velocity=49 time=0
note_on channel=0 note=69 velocity=0 time=120
note_on channel=0 note=68 velocity=45 time=0
note_on channel=0 note=68 velocity=0 time=120
note_on channel=0 note=67 velocity=46 time=0
note_on channel=0 note=67 velocity=0 time=120
note_on channel=0 note=68 velocity=48 time=0
note_on channel=0 note=68 velocity=0 time=120
note_on channel=0 note=73 velocity=50 time=0
note_on channel=0 note=73 velocity=0 time=120
note_on channel=0 note=76 velocity=51 time=0
note_on channel=0 note=76 velocity=0 time=120
note_on channel=0 note=75 velocity=54 time=0
note_on channel=0 note=75 velocity=0 time=120
note_on channel=0 note=73 velocity=51 time=0
note_on channel=0 note=73 velocity=0 time=120
note_on channel=0 note=75 velocity=53 time=0
note_on channel=0 note=75 velocity=0 time=120
note_on channel=0 note=73 velocity=51 time=0
note_on channel=0 note=73 velocity=0 time=120
note_on channel=0 note=72 velocity=52 time=0
note_on channel=0 note=72 velocity=0 time=120
note_on channel=0 note=73 velocity=54 time=0
note_on channel=0 note=73 velocity=0 time=120
note_on channel=0 note=76 velocity=57 time=0
note_on channel=0 note=76 velocity=0 time=120
note_on channel=0 note=80 velocity=55 time=0
note_on channel=0 note=80 velocity=0 time=120
note_on channel=0 note=69 velocity=56 time=120
note_on channel=0 note=69 velocity=0 time=120
note_on channel=0 note=73 velocity=59 time=0
note_on channel=0 note=73 velocity=0 time=120
note_on channel=0 note=75 velocity=62 time=0
note_on channel=0 note=75 velocity=0 time=120
note_on channel=0 note=78 velocity=63 time=0
note_on channel=0 note=78 velocity=0 time=120
note_on channel=0 note=81 velocity=66 time=0
note_on channel=0 note=81 velocity=0 time=120
note_on channel=0 note=85 velocity=69 time=0
note_on channel=0 note=85 velocity=0 time=120
note_on channel=0 note=87 velocity=72 time=0
note_on channel=0 note=87 velocity=0 time=120
note_on channel=0 note=95 velocity=75 time=0
note_on channel=0 note=95 velocity=0 time=120
note_on channel=0 note=93 velocity=73 time=0
note_on channel=0 note=93 velocity=0 time=120
note_on channel=0 note=92 velocity=72 time=0
note_on channel=0 note=92 velocity=0 time=120
note_on channel=0 note=90 velocity=71 time=0
note_on channel=0 note=90 velocity=0 time=120
note_on channel=0 note=88 velocity=71 time=0
note_on channel=0 note=88 velocity=0 time=120
note_on channel=0 note=87 velocity=70 time=0
note_on channel=0 note=87 velocity=0 time=120
note_on channel=0 note=90 velocity=68 time=0
note_on channel=0 note=90 velocity=0 time=120
note_on channel=0 note=85 velocity=67 time=0
note_on channel=0 note=85 velocity=0 time=120
note_on channel=0 note=84 velocity=68 time=0
note_on channel=0 note=84 velocity=0 time=120
note_on channel=0 note=87 velocity=63 time=0
note_on channel=0 note=87 velocity=0 time=120
note_on channel=0 note=81 velocity=63 time=0
note_on channel=0 note=81 velocity=0 time=120
note_on channel=0 note=80 velocity=63 time=0
note_on channel=0 note=80 velocity=0 time=120
note_on channel=0 note=78 velocity=60 time=0
note_on channel=0 note=78 velocity=0 time=120
note_on channel=0 note=81 velocity=58 time=0
note_on channel=0 note=81 velocity=0 time=120
note_on channel=0 note=76 velocity=54 time=0
note_on channel=0 note=76 velocity=0 time=120
note_on channel=0 note=75 velocity=54 time=0
note_on channel=0 note=75 velocity=0 time=120
note_on channel=0 note=78 velocity=53 time=0
note_on channel=0 note=78 velocity=0 time=120
note_on channel=0 note=73 velocity=48 time=0
note_on channel=0 note=73 velocity=0 time=120
note_on channel=0 note=72 velocity=48 time=0
note_on channel=0 note=72 velocity=0 time=120
note_on channel=0 note=75 velocity=47 time=0
note_on channel=0 note=75 velocity=0 time=120
note_on channel=0 note=69 velocity=45 time=0
note_on channel=0 note=69 velocity=0 time=120
note_on channel=0 note=68 velocity=42 time=0
note_on channel=0 note=68 velocity=0 time=120
note_on channel=0 note=71 velocity=42 time=0
note_on channel=0 note=71 velocity=0 time=120
note_on channel=0 note=69 velocity=41 time=0
note_on channel=0 note=69 velocity=0 time=240
note_on channel=0 note=68 velocity=37 time=0
note_on channel=0 note=68 velocity=0 time=120
note_on channel=0 note=69 velocity=41 time=0
note_on channel=0 note=69 velocity=0 time=120
note_on channel=0 note=68 velocity=38 time=0
note_on channel=0 note=68 velocity=0 time=120
note_on channel=0 note=67 velocity=39 time=0
note_on channel=0 note=67 velocity=0 time=120
note_on channel=0 note=68 velocity=40 time=0
note_on channel=0 note=68 velocity=0 time=120
note_on channel=0 note=73 velocity=42 time=0
note_on channel=0 note=73 velocity=0 time=120
note_on channel=0 note=76 velocity=43 time=0
note_on channel=0 note=76 velocity=0 time=120
note_on channel=0 note=75 velocity=45 time=0
note_on channel=0 note=75 velocity=0 time=120
note_on channel=0 note=73 velocity=43 time=0
note_on channel=0 note=73 velocity=0 time=120
note_on channel=0 note=75 velocity=45 time=0
note_on channel=0 note=75 velocity=0 time=120
note_on channel=0 note=73 velocity=43 time=0
note_on channel=0 note=73 velocity=0 time=120
note_on channel=0 note=72 velocity=44 time=0
note_on channel=0 note=72 velocity=0 time=120
note_on channel=0 note=73 velocity=46 time=0
note_on channel=0 note=73 velocity=0 time=120
note_on channel=0 note=76 velocity=50 time=0
note_on channel=0 note=76 velocity=0 time=120
note_on channel=0 note=80 velocity=48 time=0
note_on channel=0 note=80 velocity=0 time=120
note_on channel=0 note=76 velocity=46 time=0
note_on channel=0 note=76 velocity=0 time=120
note_on channel=0 note=75 velocity=43 time=0
note_on channel=0 note=75 velocity=0 time=120
note_on channel=0 note=76 velocity=47 time=0
note_on channel=0 note=76 velocity=0 time=120
note_on channel=0 note=75 velocity=43 time=0
note_on channel=0 note=75 velocity=0 time=120
note_on channel=0 note=74 velocity=45 time=0
note_on channel=0 note=74 velocity=0 time=120
note_on channel=0 note=75 velocity=46 time=0
note_on channel=0 note=75 velocity=0 time=120
note_on channel=0 note=78 velocity=49 time=0
note_on channel=0 note=78 velocity=0 time=120
note_on channel=0 note=81 velocity=50 time=0
note_on channel=0 note=81 velocity=0 time=120
note_on channel=0 note=78 velocity=53 time=0
note_on channel=0 note=78 velocity=0 time=120
note_on channel=0 note=77 velocity=51 time=0
note_on channel=0 note=77 velocity=0 time=120
note_on channel=0 note=78 velocity=53 time=0
note_on channel=0 note=78 velocity=0 time=120
note_on channel=0 note=77 velocity=51 time=0
note_on channel=0 note=77 velocity=0 time=120
note_on channel=0 note=76 velocity=52 time=0
note_on channel=0 note=76 velocity=0 time=120
note_on channel=0 note=77 velocity=54 time=0
note_on channel=0 note=77 velocity=0 time=120
note_on channel=0 note=80 velocity=57 time=0
note_on channel=0 note=80 velocity=0 time=120
note_on channel=0 note=85 velocity=56 time=0
note_on channel=0 note=85 velocity=0 time=120
note_on channel=0 note=73 velocity=50 time=120
note_on channel=0 note=73 velocity=0 time=120
note_on channel=0 note=74 velocity=55 time=0
note_on channel=0 note=74 velocity=0 time=120
note_on channel=0 note=73 velocity=51 time=0
note_on channel=0 note=73 velocity=0 time=120
note_on channel=0 note=72 velocity=52 time=0
note_on channel=0 note=72 velocity=0 time=120
note_on channel=0 note=73 velocity=53 time=0
note_on channel=0 note=73 velocity=0 time=120
note_on channel=0 note=78 velocity=56 time=0
note_on channel=0 note=78 velocity=0 time=120
note_on channel=0 note=81 velocity=57 time=0
note_on channel=0 note=81 velocity=0 time=120
note_on channel=0 note=78 velocity=59 time=0
note_on channel=0 note=78 velocity=0 time=120
note_on channel=0 note=77 velocity=56 time=0
note_on channel=0 note=77 velocity=0 time=120
note_on channel=0 note=78 velocity=59 time=0
note_on channel=0 note=78 velocity=0 time=120
note_on channel=0 note=77 velocity=57 time=0
note_on channel=0 note=77 velocity=0 time=120
note_on channel=0 note=76 velocity=57 time=0
note_on channel=0 note=76 velocity=0 time=120
note_on channel=0 note=77 velocity=59 time=0
note_on channel=0 note=77 velocity=0 time=120
note_on channel=0 note=80 velocity=63 time=0
note_on channel=0 note=80 velocity=0 time=120
note_on channel=0 note=85 velocity=59 time=0
note_on channel=0 note=85 velocity=0 time=120
note_on channel=0 note=80 velocity=58 time=0
note_on channel=0 note=80 velocity=0 time=120
note_on channel=0 note=78 velocity=53 time=0
note_on channel=0 note=78 velocity=0 time=120
note_on channel=0 note=80 velocity=58 time=0
note_on channel=0 note=80 velocity=0 time=120
note_on channel=0 note=78 velocity=54 time=0
note_on channel=0 note=78 velocity=0 time=120
note_on channel=0 note=77 velocity=55 time=0
note_on channel=0 note=77 velocity=0 time=120
note_on channel=0 note=78 velocity=56 time=0
note_on channel=0 note=78 velocity=0 time=120
note_on channel=0 note=81 velocity=59 time=0
note_on channel=0 note=81 velocity=0 time=120
note_on channel=0 note=85 velocity=60 time=0
note_on channel=0 note=85 velocity=0 time=120
note_on channel=0 note=81 velocity=63 time=0
note_on channel=0 note=81 velocity=0 time=120
note_on channel=0 note=80 velocity=59 time=0
note_on channel=0 note=80 velocity=0 time=120
note_on channel=0 note=81 velocity=62 time=0
note_on channel=0 note=81 velocity=0 time=120
note_on channel=0 note=80 velocity=60 time=0
note_on channel=0 note=80 velocity=0 time=120
note_on channel=0 note=79 velocity=60 time=0
note_on channel=0 note=79 velocity=0 time=120
note_on channel=0 note=80 velocity=62 time=0
note_on channel=0 note=80 velocity=0 time=120
note_on channel=0 note=84 velocity=66 time=0
note_on channel=0 note=84 velocity=0 time=120
note_on channel=0 note=87 velocity=63 time=0
note_on channel=0 note=87 velocity=0 time=120
note_on channel=0 note=80 velocity=69 time=0
note_on channel=0 note=80 velocity=0 time=120
note_on channel=0 note=81 velocity=64 time=0
note_on channel=0 note=81 velocity=0 time=120
note_on channel=0 note=80 velocity=67 time=0
note_on channel=0 note=80 velocity=0 time=120
note_on channel=0 note=79 velocity=58 time=0
note_on channel=0 note=79 velocity=0 time=120
note_on channel=0 note=80 velocity=62 time=0
note_on channel=0 note=80 velocity=0 time=120
note_on channel=0 note=88 velocity=71 time=0
note_on channel=0 note=88 velocity=0 time=120
note_on channel=0 note=87 velocity=71 time=0
note_on channel=0 note=87 velocity=0 time=120
note_on channel=0 note=86 velocity=70 time=0
note_on channel=0 note=86 velocity=0 time=120
note_on channel=0 note=85 velocity=69 time=0
note_on channel=0 note=85 velocity=0 time=120
note_on channel=0 note=84 velocity=69 time=0
note_on channel=0 note=84 velocity=0 time=120
note_on channel=0 note=83 velocity=68 time=0
note_on channel=0 note=83 velocity=0 time=120
note_on channel=0 note=82 velocity=67 time=0
note_on channel=0 note=82 velocity=0 time=120
note_on channel=0 note=81 velocity=67 time=0
note_on channel=0 note=81 velocity=0 time=120
note_on channel=0 note=80 velocity=66 time=0
note_on channel=0 note=80 velocity=0 time=120
note_on channel=0 note=79 velocity=65 time=0
note_on channel=0 note=79 velocity=0 time=120
note_on channel=0 note=78 velocity=64 time=0
note_on channel=0 note=78 velocity=0 time=120
note_on channel=0 note=76 velocity=69 time=0
note_on channel=0 note=76 velocity=0 time=120
note_on channel=0 note=78 velocity=64 time=0
note_on channel=0 note=78 velocity=0 time=120
note_on channel=0 note=76 velocity=67 time=0
note_on channel=0 note=76 velocity=0 time=120
note_on channel=0 note=75 velocity=58 time=0
note_on channel=0 note=75 velocity=0 time=120
note_on channel=0 note=76 velocity=62 time=0
note_on channel=0 note=76 velocity=0 time=120
note_on channel=0 note=88 velocity=71 time=0
note_on channel=0 note=88 velocity=0 time=120
note_on channel=0 note=87 velocity=71 time=0
note_on channel=0 note=87 velocity=0 time=120
note_on channel=0 note=86 velocity=70 time=0
note_on channel=0 note=86 velocity=0 time=120
note_on channel=0 note=85 velocity=70 time=0
note_on channel=0 note=85 velocity=0 time=120
note_on channel=0 note=84 velocity=71 time=0
note_on channel=0 note=84 velocity=0 time=120
note_on channel=0 note=83 velocity=71 time=0
note_on channel=0 note=83 velocity=0 time=120
note_on channel=0 note=82 velocity=72 time=0
note_on channel=0 note=82 velocity=0 time=120
note_on channel=0 note=81 velocity=73 time=0
note_on channel=0 note=81 velocity=0 time=120
note_on channel=0 note=80 velocity=74 time=0
note_on channel=0 note=80 velocity=0 time=120
note_on channel=0 note=79 velocity=75 time=0
note_on channel=0 note=79 velocity=0 time=120
note_on channel=0 note=78 velocity=76 time=0
note_on channel=0 note=78 velocity=0 time=120
note_on channel=0 note=80 velocity=76 time=0
note_on channel=0 note=80 velocity=0 time=60
note_on channel=0 note=92 velocity=85 time=180
note_on channel=0 note=92 velocity=0 time=120
note_on channel=0 note=91 velocity=85 time=0
note_on channel=0 note=91 velocity=0 time=120
note_on channel=0 note=90 velocity=84 time=0
note_on channel=0 note=90 velocity=0 time=120
note_on channel=0 note=89 velocity=84 time=0
note_on channel=0 note=89 velocity=0 time=120
note_on channel=0 note=88 velocity=83 time=0
note_on channel=0 note=88 velocity=0 time=120
note_on channel=0 note=87 velocity=83 time=0
note_on channel=0 note=87 velocity=0 time=120
note_on channel=0 note=86 velocity=82 time=0
note_on channel=0 note=86 velocity=0 time=120
note_on channel=0 note=85 velocity=81 time=0
note_on channel=0 note=85 velocity=0 time=120
note_on channel=0 note=84 velocity=81 time=0
note_on channel=0 note=84 velocity=0 time=120
note_on channel=0 note=83 velocity=80 time=0
note_on channel=0 note=83 velocity=0 time=120
note_on channel=0 note=82 velocity=80 time=0
note_on channel=0 note=82 velocity=0 time=120
note_on channel=0 note=81 velocity=79 time=0
note_on channel=0 note=81 velocity=0 time=120
note_on channel=0 note=80 velocity=79 time=0
note_on channel=0 note=80 velocity=0 time=120
note_on channel=0 note=79 velocity=78 time=0
note_on channel=0 note=79 velocity=0 time=120
note_on channel=0 note=78 velocity=77 time=0
note_on channel=0 note=78 velocity=0 time=120
note_on channel=0 note=77 velocity=77 time=0
note_on channel=0 note=77 velocity=0 time=120
note_on channel=0 note=76 velocity=77 time=0
note_on channel=0 note=76 velocity=0 time=120
note_on channel=0 note=75 velocity=77 time=0
note_on channel=0 note=75 velocity=0 time=120
note_on channel=0 note=74 velocity=77 time=0
note_on channel=0 note=74 velocity=0 time=120
note_on channel=0 note=73 velocity=77 time=0
note_on channel=0 note=73 velocity=0 time=120
note_on channel=0 note=72 velocity=77 time=0
note_on channel=0 note=72 velocity=0 time=120
note_on channel=0 note=71 velocity=77 time=0
note_on channel=0 note=71 velocity=0 time=120
note_on channel=0 note=70 velocity=77 time=0
note_on channel=0 note=70 velocity=0 time=120
note_on channel=0 note=69 velocity=80 time=0
note_on channel=0 note=69 velocity=0 time=120
note_on channel=0 note=68 velocity=83 time=0
note_on channel=0 note=68 velocity=0 time=120
note_on channel=0 note=67 velocity=85 time=0
note_on channel=0 note=67 velocity=0 time=120
note_on channel=0 note=66 velocity=87 time=0
note_on channel=0 note=66 velocity=0 time=120
note_on channel=0 note=64 velocity=89 time=0
note_on channel=0 note=64 velocity=0 time=120
note_on channel=0 note=63 velocity=92 time=0
note_on channel=0 note=63 velocity=0 time=120
note_on channel=0 note=61 velocity=94 time=0
note_on channel=0 note=61 velocity=0 time=120
note_on channel=0 note=56 velocity=96 time=0
note_on channel=0 note=56 velocity=0 time=120
note_on channel=0 note=93 velocity=90 time=360
note_on channel=0 note=93 velocity=0 time=120
note_on channel=0 note=92 velocity=81 time=0
note_on channel=0 note=92 velocity=0 time=120
note_on channel=0 note=100 velocity=77 time=0
note_on channel=0 note=100 velocity=0 time=120
note_on channel=0 note=88 velocity=77 time=0
note_on channel=0 note=88 velocity=0 time=120
note_on channel=0 note=90 velocity=90 time=0
note_on channel=0 note=90 velocity=0 time=120
note_on channel=0 note=88 velocity=77 time=0
note_on channel=0 note=88 velocity=0 time=120
note_on channel=0 note=97 velocity=77 time=0
note_on channel=0 note=97 velocity=0 time=120
note_on channel=0 note=85 velocity=77 time=0
note_on channel=0 note=85 velocity=0 time=120
note_on channel=0 note=87 velocity=89 time=0
note_on channel=0 note=87 velocity=0 time=120
note_on channel=0 note=85 velocity=77 time=0
note_on channel=0 note=85 velocity=0 time=120
note_on channel=0 note=92 velocity=77 time=0
note_on channel=0 note=92 velocity=0 time=120
note_on channel=0 note=80 velocity=77 time=0
note_on channel=0 note=80 velocity=0 time=120
note_on channel=0 note=81 velocity=89 time=0
note_on channel=0 note=81 velocity=0 time=120
note_on channel=0 note=80 velocity=77 time=0
note_on channel=0 note=80 velocity=0 time=120
note_on channel=0 note=88 velocity=77 time=0
note_on channel=0 note=88 velocity=0 time=120
note_on channel=0 note=76 velocity=77 time=0
note_on channel=0 note=76 velocity=0 time=120
note_on channel=0 note=78 velocity=88 time=0
note_on channel=0 note=78 velocity=0 time=120
note_on channel=0 note=76 velocity=77 time=0
note_on channel=0 note=76 velocity=0 time=120
note_on channel=0 note=85 velocity=77 time=0
note_on channel=0 note=85 velocity=0 time=120
note_on channel=0 note=73 velocity=77 time=0
note_on channel=0 note=73 velocity=0 time=120
note_on channel=0 note=75 velocity=89 time=0
note_on channel=0 note=75 velocity=0 time=120
note_on channel=0 note=73 velocity=77 time=0
note_on channel=0 note=73 velocity=0 time=120
note_on channel=0 note=80 velocity=77 time=0
note_on channel=0 note=80 velocity=0 time=120
note_on channel=0 note=68 velocity=77 time=0
note_on channel=0 note=68 velocity=0 time=120
note_on channel=0 note=69 velocity=90 time=0
note_on channel=0 note=69 velocity=0 time=120
note_on channel=0 note=68 velocity=77 time=0
note_on channel=0 note=68 velocity=0 time=120
note_on channel=0 note=76 velocity=77 time=0
note_on channel=0 note=76 velocity=0 time=120
note_on channel=0 note=64 velocity=77 time=0
note_on channel=0 note=64 velocity=0 time=120
note_on channel=0 note=66 velocity=88 time=0
note_on channel=0 note=66 velocity=0 time=120
note_on channel=0 note=64 velocity=77 time=0
note_on channel=0 note=64 velocity=0 time=120
note_on channel=0 note=73 velocity=77 time=0
note_on channel=0 note=73 velocity=0 time=120
note_on channel=0 note=61 velocity=77 time=0
note_on channel=0 note=61 velocity=0 time=120
note_on channel=0 note=63 velocity=89 time=0
note_on channel=0 note=63 velocity=0 time=120
note_on channel=0 note=61 velocity=77 time=0
note_on channel=0 note=61 velocity=0 time=120
note_on channel=0 note=68 velocity=77 time=0
note_on channel=0 note=68 velocity=0 time=120
note_on channel=0 note=56 velocity=77 time=0
note_on channel=0 note=56 velocity=0 time=120
note_on channel=0 note=63 velocity=89 time=0
note_on channel=0 note=63 velocity=0 time=120
note_on channel=0 note=61 velocity=77 time=0
note_on channel=0 note=61 velocity=0 time=120
note_on channel=0 note=68 velocity=77 time=0
note_on channel=0 note=68 velocity=0 time=120
note_on channel=0 note=56 velocity=77 time=0
note_on channel=0 note=56 velocity=0 time=120
note_on channel=0 note=63 velocity=89 time=0
note_on channel=0 note=63 velocity=0 time=120
note_on channel=0 note=61 velocity=77 time=0
note_on channel=0 note=61 velocity=0 time=120
note_on channel=0 note=69 velocity=77 time=0
note_on channel=0 note=69 velocity=0 time=120
note_on channel=0 note=57 velocity=77 time=0
note_on channel=0 note=57 velocity=0 time=120
note_on channel=0 note=63 velocity=89 time=0
note_on channel=0 note=63 velocity=0 time=120
note_on channel=0 note=61 velocity=75 time=0
note_on channel=0 note=61 velocity=0 time=120
note_on channel=0 note=68 velocity=74 time=0
note_on channel=0 note=68 velocity=0 time=120
note_on channel=0 note=56 velocity=73 time=0
note_on channel=0 note=56 velocity=0 time=120
note_on channel=0 note=63 velocity=83 time=0
note_on channel=0 note=63 velocity=0 time=120
note_on channel=0 note=61 velocity=71 time=0
note_on channel=0 note=61 velocity=0 time=120
note_on channel=0 note=67 velocity=71 time=0
note_on channel=0 note=67 velocity=0 time=120
note_on channel=0 note=55 velocity=70 time=0
note_on channel=0 note=55 velocity=0 time=120
note_on channel=0 note=63 velocity=79 time=0
note_on channel=0 note=63 velocity=0 time=120
note_on channel=0 note=61 velocity=68 time=0
note_on channel=0 note=61 velocity=0 time=120
note_on channel=0 note=68 velocity=67 time=0
note_on channel=0 note=68 velocity=0 time=120
note_on channel=0 note=56 velocity=66 time=0
note_on channel=0 note=56 velocity=0 time=120
note_on channel=0 note=63 velocity=75 time=0
note_on channel=0 note=63 velocity=0 time=120
note_on channel=0 note=60 velocity=63 time=0
note_on channel=0 note=60 velocity=0 time=120
note_on channel=0 note=68 velocity=63 time=0
note_on channel=0 note=68 velocity=0 time=120
note_on channel=0 note=56 velocity=62 time=0
note_on channel=0 note=56 velocity=0 time=120
note_on channel=0 note=63 velocity=73 time=0
note_on channel=0 note=63 velocity=0 time=120
note_on channel=0 note=61 velocity=65 time=0
note_on channel=0 note=61 velocity=0 time=120
note_on channel=0 note=68 velocity=65 time=0
note_on channel=0 note=68 velocity=0 time=120
note_on channel=0 note=56 velocity=65 time=0
note_on channel=0 note=56 velocity=0 time=120
note_on channel=0 note=69 velocity=69 time=0
note_on channel=0 note=69 velocity=0 time=120
note_on channel=0 note=68 velocity=65 time=0
note_on channel=0 note=68 velocity=0 time=120
note_on channel=0 note=76 velocity=83 time=0
note_on channel=0 note=76 velocity=0 time=120
note_on channel=0 note=64 velocity=64 time=0
note_on channel=0 note=64 velocity=0 time=120
note_on channel=0 note=69 velocity=70 time=0
note_on channel=0 note=69 velocity=0 time=120
note_on channel=0 note=68 velocity=66 time=0
note_on channel=0 note=68 velocity=0 time=120
note_on channel=0 note=76 velocity=83 time=0
note_on channel=0 note=76 velocity=0 time=120
note_on channel=0 note=64 velocity=60 time=0
note_on channel=0 note=64 velocity=0 time=120
note_on channel=0 note=69 velocity=68 time=0
note_on channel=0 note=69 velocity=0 time=120
note_on channel=0 note=68 velocity=62 time=0
note_on channel=0 note=68 velocity=0 time=120
note_on channel=0 note=75 velocity=79 time=0
note_on channel=0 note=75 velocity=0 time=120
note_on channel=0 note=63 velocity=71 time=0
note_on channel=0 note=63 velocity=0 time=120
note_on channel=0 note=69 velocity=68 time=0
note_on channel=0 note=69 velocity=0 time=120
note_on channel=0 note=68 velocity=66 time=0
note_on channel=0 note=68 velocity=0 time=120
note_on channel=0 note=75 velocity=83 time=0
note_on channel=0 note=75 velocity=0 time=120
note_on channel=0 note=64 velocity=60 time=0
note_on channel=0 note=64 velocity=0 time=120
note_on channel=0 note=69 velocity=68 time=0
note_on channel=0 note=69 velocity=0 time=120
note_on channel=0 note=68 velocity=62 time=0
note_on channel=0 note=68 velocity=0 time=120
note_on channel=0 note=73 velocity=79 time=0
note_on channel=0 note=73 velocity=0 time=120
note_on channel=0 note=61 velocity=71 time=0
note_on channel=0 note=61 velocity=0 time=120
note_on channel=0 note=64 velocity=54 time=0
note_on channel=0 note=64 velocity=0 time=120
note_on channel=0 note=63 velocity=49 time=0
note_on channel=0 note=63 velocity=0 time=120
note_on channel=0 note=68 velocity=62 time=0
note_on channel=0 note=68 velocity=0 time=120
note_on channel=0 note=56 velocity=45 time=0
note_on channel=0 note=56 velocity=0 time=120
note_on channel=0 note=64 velocity=51 time=0
note_on channel=0 note=64 velocity=0 time=120
note_on channel=0 note=63 velocity=46 time=0
note_on channel=0 note=63 velocity=0 time=120
note_on channel=0 note=68 velocity=59 time=0
note_on channel=0 note=68 velocity=0 time=120
note_on channel=0 note=56 velocity=53 time=0
note_on channel=0 note=56 velocity=0 time=120
note_on channel=0 note=63 velocity=54 time=0
note_on channel=0 note=63 velocity=0 time=120
note_on channel=0 note=61 velocity=49 time=0
note_on channel=0 note=61 velocity=0 time=120
note_on channel=0 note=68 velocity=62 time=0
note_on channel=0 note=68 velocity=0 time=120
note_on channel=0 note=56 velocity=45 time=0
note_on channel=0 note=56 velocity=0 time=120
note_on channel=0 note=69 velocity=67 time=0
note_on channel=0 note=69 velocity=0 time=120
note_on channel=0 note=68 velocity=65 time=0
note_on channel=0 note=68 velocity=0 time=120
note_on channel=0 note=76 velocity=83 time=0
note_on channel=0 note=76 velocity=0 time=120
note_on channel=0 note=64 velocity=64 time=0
note_on channel=0 note=64 velocity=0 time=120
note_on channel=0 note=69 velocity=68 time=0
note_on channel=0 note=69 velocity=0 time=120
note_on channel=0 note=68 velocity=66 time=0
note_on channel=0 note=68 velocity=0 time=120
note_on channel=0 note=76 velocity=83 time=0
note_on channel=0 note=76 velocity=0 time=120
note_on channel=0 note=64 velocity=60 time=0
note_on channel=0 note=64 velocity=0 time=120
note_on channel=0 note=69 velocity=65 time=0
note_on channel=0 note=69 velocity=0 time=120
note_on channel=0 note=68 velocity=62 time=0
note_on channel=0 note=68 velocity=0 time=120
note_on channel=0 note=75 velocity=79 time=0
note_on channel=0 note=75 velocity=0 time=120
note_on channel=0 note=63 velocity=66 time=0
note_on channel=0 note=63 velocity=0 time=120
note_on channel=0 note=69 velocity=66 time=0
note_on channel=0 note=69 velocity=0 time=120
note_on channel=0 note=68 velocity=66 time=0
note_on channel=0 note=68 velocity=0 time=120
note_on channel=0 note=75 velocity=83 time=0
note_on channel=0 note=75 velocity=0 time=120
note_on channel=0 note=64 velocity=60 time=0
note_on channel=0 note=64 velocity=0 time=120
note_on channel=0 note=69 velocity=67 time=0
note_on channel=0 note=69 velocity=0 time=120
note_on channel=0 note=68 velocity=62 time=0
note_on channel=0 note=68 velocity=0 time=120
note_on channel=0 note=73 velocity=79 time=0
note_on channel=0 note=73 velocity=0 time=120
note_on channel=0 note=61 velocity=71 time=0
note_on channel=0 note=61 velocity=0 time=120
note_on channel=0 note=64 velocity=54 time=0
note_on channel=0 note=64 velocity=0 time=120
note_on channel=0 note=63 velocity=49 time=0
note_on channel=0 note=63 velocity=0 time=120
note_on channel=0 note=68 velocity=62 time=0
note_on channel=0 note=68 velocity=0 time=120
note_on channel=0 note=56 velocity=45 time=0
note_on channel=0 note=56 velocity=0 time=120
note_on channel=0 note=64 velocity=51 time=0
note_on channel=0 note=64 velocity=0 time=120
note_on channel=0 note=63 velocity=46 time=0
note_on channel=0 note=63 velocity=0 time=120
note_on channel=0 note=68 velocity=59 time=0
note_on channel=0 note=68 velocity=0 time=120
note_on channel=0 note=56 velocity=53 time=0
note_on channel=0 note=56 velocity=0 time=120
note_on channel=0 note=63 velocity=54 time=0
note_on channel=0 note=63 velocity=0 time=120
note_on channel=0 note=61 velocity=49 time=0
note_on channel=0 note=61 velocity=0 time=120
note_on channel=0 note=68 velocity=62 time=0
note_on channel=0 note=68 velocity=0 time=120
note_on channel=0 note=56 velocity=45 time=0
note_on channel=0 note=56 velocity=0 time=120
note_on channel=0 note=69 velocity=55 time=0
note_on channel=0 note=69 velocity=0 time=120
note_on channel=0 note=68 velocity=48 time=0
note_on channel=0 note=68 velocity=0 time=120
note_on channel=0 note=76 velocity=62 time=0
note_on channel=0 note=76 velocity=0 time=120
note_on channel=0 note=64 velocity=48 time=0
note_on channel=0 note=64 velocity=0 time=120
note_on channel=0 note=66 velocity=54 time=0
note_on channel=0 note=66 velocity=0 time=120
note_on channel=0 note=64 velocity=49 time=0
note_on channel=0 note=64 velocity=0 time=120
note_on channel=0 note=73 velocity=62 time=0
note_on channel=0 note=73 velocity=0 time=120
note_on channel=0 note=61 velocity=45 time=0
note_on channel=0 note=61 velocity=0 time=120
note_on channel=0 note=69 velocity=51 time=0
note_on channel=0 note=69 velocity=0 time=120
note_on channel=0 note=68 velocity=46 time=0
note_on channel=0 note=68 velocity=0 time=120
note_on channel=0 note=76 velocity=59 time=0
note_on channel=0 note=76 velocity=0 time=120
note_on channel=0 note=64 velocity=53 time=0
note_on channel=0 note=64 velocity=0 time=120
note_on channel=0 note=63 velocity=54 time=0
note_on channel=0 note=63 velocity=0 time=120
note_on channel=0 note=61 velocity=49 time=0
note_on channel=0 note=61 velocity=0 time=120
note_on channel=0 note=68 velocity=62 time=0
note_on channel=0 note=68 velocity=0 time=120
note_on channel=0 note=56 velocity=45 time=0
note_on channel=0 note=56 velocity=0 time=120
note_on channel=0 note=69 velocity=55 time=0
note_on channel=0 note=69 velocity=0 time=120
note_on channel=0 note=68 velocity=48 time=0
note_on channel=0 note=68 velocity=0 time=120
note_on channel=0 note=76 velocity=62 time=0
note_on channel=0 note=76 velocity=0 time=120
note_on channel=0 note=64 velocity=48 time=0
note_on channel=0 note=64 velocity=0 time=120
note_on channel=0 note=66 velocity=54 time=0
note_on channel=0 note=66 velocity=0 time=120
note_on channel=0 note=64 velocity=49 time=0
note_on channel=0 note=64 velocity=0 time=120
note_on channel=0 note=73 velocity=62 time=0
note_on channel=0 note=73 velocity=0 time=120
note_on channel=0 note=61 velocity=45 time=0
note_on channel=0 note=61 velocity=0 time=120
note_on channel=0 note=69 velocity=51 time=0
note_on channel=0 note=69 velocity=0 time=120
note_on channel=0 note=68 velocity=46 time=0
note_on channel=0 note=68 velocity=0 time=120
note_on channel=0 note=76 velocity=59 time=0
note_on channel=0 note=76 velocity=0 time=120
note_on channel=0 note=64 velocity=53 time=0
note_on channel=0 note=64 velocity=0 time=120
note_on channel=0 note=66 velocity=54 time=0
note_on channel=0 note=66 velocity=0 time=120
note_on channel=0 note=64 velocity=49 time=0
note_on channel=0 note=64 velocity=0 time=120
note_on channel=0 note=73 velocity=61 time=0
note_on channel=0 note=73 velocity=0 time=120
note_on channel=0 note=61 velocity=44 time=0
note_on channel=0 note=61 velocity=0 time=120
note_on channel=0 note=69 velocity=53 time=0
note_on channel=0 note=69 velocity=0 time=120
note_on channel=0 note=68 velocity=46 time=0
note_on channel=0 note=68 velocity=0 time=120
note_on channel=0 note=73 velocity=60 time=0
note_on channel=0 note=73 velocity=0 time=120
note_on channel=0 note=61 velocity=46 time=0
note_on channel=0 note=61 velocity=0 time=120
note_on channel=0 note=66 velocity=51 time=0
note_on channel=0 note=66 velocity=0 time=120
note_on channel=0 note=64 velocity=46 time=0
note_on channel=0 note=64 velocity=0 time=120
note_on channel=0 note=73 velocity=58 time=0
note_on channel=0 note=73 velocity=0 time=120
note_on channel=0 note=61 velocity=42 time=0
note_on channel=0 note=61 velocity=0 time=120
note_on channel=0 note=69 velocity=47 time=0
note_on channel=0 note=69 velocity=0 time=120
note_on channel=0 note=68 velocity=42 time=0
note_on channel=0 note=68 velocity=0 time=120
note_on channel=0 note=73 velocity=54 time=0
note_on channel=0 note=73 velocity=0 time=120
note_on channel=0 note=61 velocity=48 time=0
note_on channel=0 note=61 velocity=0 time=120
note_on channel=0 note=66 velocity=48 time=0
note_on channel=0 note=66 velocity=0 time=120
note_on channel=0 note=64 velocity=44 time=0
note_on channel=0 note=64 velocity=0 time=120
note_on channel=0 note=73 velocity=55 time=0
note_on channel=0 note=73 velocity=0 time=120
note_on channel=0 note=61 velocity=40 time=0
note_on channel=0 note=61 velocity=0 time=120
note_on channel=0 note=69 velocity=48 time=0
note_on channel=0 note=69 velocity=0 time=120
note_on channel=0 note=68 velocity=41 time=0
note_on channel=0 note=68 velocity=0 time=120
note_on channel=0 note=73 velocity=53 time=0
note_on channel=0 note=73 velocity=0 time=120
note_on channel=0 note=61 velocity=41 time=0
note_on channel=0 note=61 velocity=0 time=120
note_on channel=0 note=66 velocity=45 time=0
note_on channel=0 note=66 velocity=0 time=120
note_on channel=0 note=64 velocity=41 time=0
note_on channel=0 note=64 velocity=0 time=120
note_on channel=0 note=73 velocity=52 time=0
note_on channel=0 note=73 velocity=0 time=120
note_on channel=0 note=61 velocity=37 time=0
note_on channel=0 note=61 velocity=0 time=120
note_on channel=0 note=69 velocity=42 time=0
note_on channel=0 note=69 velocity=0 time=120
note_on channel=0 note=68 velocity=37 time=0
note_on channel=0 note=68 velocity=0 time=120
note_on channel=0 note=73 velocity=48 time=0
note_on channel=0 note=73 velocity=0 time=120
note_on channel=0 note=61 velocity=42 time=0
note_on channel=0 note=61 velocity=0 time=120
note_on channel=0 note=63 velocity=43 time=0
note_on channel=0 note=63 velocity=0 time=120
note_on channel=0 note=61 velocity=39 time=0
note_on channel=0 note=61 velocity=0 time=120
note_on channel=0 note=68 velocity=49 time=0
note_on channel=0 note=68 velocity=0 time=120
note_on channel=0 note=56 velocity=36 time=0
note_on channel=0 note=56 velocity=0 time=120
note_on channel=0 note=63 velocity=44 time=0
note_on channel=0 note=63 velocity=0 time=120
note_on channel=0 note=61 velocity=38 time=0
note_on channel=0 note=61 velocity=0 time=120
note_on channel=0 note=68 velocity=49 time=0
note_on channel=0 note=68 velocity=0 time=120
note_on channel=0 note=56 velocity=38 time=0
note_on channel=0 note=56 velocity=0 time=120
note_on channel=0 note=63 velocity=43 time=0
note_on channel=0 note=63 velocity=0 time=120
note_on channel=0 note=61 velocity=39 time=0
note_on channel=0 note=61 velocity=0 time=120
note_on channel=0 note=68 velocity=49 time=0
note_on channel=0 note=68 velocity=0 time=120
note_on channel=0 note=56 velocity=36 time=0
note_on channel=0 note=56 velocity=0 time=120
note_on channel=0 note=63 velocity=40 time=0
note_on channel=0 note=63 velocity=0 time=120
note_on channel=0 note=61 velocity=36 time=0
note_on channel=0 note=61 velocity=0 time=120
note_on channel=0 note=68 velocity=47 time=0
note_on channel=0 note=68 velocity=0 time=120
note_on channel=0 note=56 velocity=42 time=0
note_on channel=0 note=56 velocity=0 time=120
note_on channel=0 note=63 velocity=43 time=0
note_on channel=0 note=63 velocity=0 time=120
note_on channel=0 note=61 velocity=39 time=0
note_on channel=0 note=61 velocity=0 time=120
note_on channel=0 note=68 velocity=48 time=0
note_on channel=0 note=68 velocity=0 time=120
note_on channel=0 note=56 velocity=35 time=0
note_on channel=0 note=56 velocity=0 time=120
note_on channel=0 note=63 velocity=42 time=0
note_on channel=0 note=63 velocity=0 time=120
note_on channel=0 note=61 velocity=36 time=0
note_on channel=0 note=61 velocity=0 time=120
note_on channel=0 note=68 velocity=46 time=0
note_on channel=0 note=68 velocity=0 time=120
note_on channel=0 note=56 velocity=35 time=0
note_on channel=0 note=56 velocity=0 time=120
note_on channel=0 note=63 velocity=39 time=0
note_on channel=0 note=63 velocity=0 time=120
note_on channel=0 note=61 velocity=35 time=0
note_on channel=0 note=61 velocity=0 time=120
note_on channel=0 note=68 velocity=44 time=0
note_on channel=0 note=68 velocity=0 time=120
note_on channel=0 note=56 velocity=32 time=0
note_on channel=0 note=56 velocity=0 time=120
note_on channel=0 note=63 velocity=35 time=0
note_on channel=0 note=63 velocity=0 time=120
note_on channel=0 note=61 velocity=31 time=0
note_on channel=0 note=61 velocity=0 time=120
note_on channel=0 note=68 velocity=40 time=0
note_on channel=0 note=68 velocity=0 time=120
note_on channel=0 note=56 velocity=36 time=0
note_on channel=0 note=56 velocity=0 time=120
note_on channel=0 note=63 velocity=36 time=0
note_on channel=0 note=63 velocity=0 time=120
note_on channel=0 note=61 velocity=33 time=0
note_on channel=0 note=61 velocity=0 time=120
note_on channel=0 note=68 velocity=41 time=0
note_on channel=0 note=68 velocity=0 time=120
note_on channel=0 note=56 velocity=30 time=0
note_on channel=0 note=56 velocity=0 time=120
note_on channel=0 note=63 velocity=37 time=0
note_on channel=0 note=63 velocity=0 time=120
note_on channel=0 note=61 velocity=32 time=0
note_on channel=0 note=61 velocity=0 time=120
note_on channel=0 note=68 velocity=41 time=0
note_on channel=0 note=68 velocity=0 time=120
note_on channel=0 note=56 velocity=32 time=0
note_on channel=0 note=56 velocity=0 time=120
note_on channel=0 note=63 velocity=36 time=0
note_on channel=0 note=63 velocity=0 time=120
note_on channel=0 note=61 velocity=33 time=0
note_on channel=0 note=61 velocity=0 time=120
note_on channel=0 note=68 velocity=41 time=0
note_on channel=0 note=68 velocity=0 time=120
note_on channel=0 note=56 velocity=30 time=0
note_on channel=0 note=56 velocity=0 time=120
note_on channel=0 note=63 velocity=34 time=0
note_on channel=0 note=63 velocity=0 time=120
note_on channel=0 note=61 velocity=30 time=0
note_on channel=0 note=61 velocity=0 time=120
note_on channel=0 note=68 velocity=39 time=0
note_on channel=0 note=68 velocity=0 time=120
note_on channel=0 note=56 velocity=35 time=0
note_on channel=0 note=56 velocity=0 time=120
note_on channel=0 note=63 velocity=36 time=0
note_on channel=0 note=63 velocity=0 time=120
note_on channel=0 note=61 velocity=33 time=0
note_on channel=0 note=61 velocity=0 time=120
note_on channel=0 note=68 velocity=41 time=0
note_on channel=0 note=68 velocity=0 time=120
note_on channel=0 note=56 velocity=30 time=0
note_on channel=0 note=56 velocity=0 time=120
note_on channel=0 note=63 velocity=37 time=0
note_on channel=0 note=63 velocity=0 time=120
note_on channel=0 note=61 velocity=32 time=0
note_on channel=0 note=61 velocity=0 time=120
note_on channel=0 note=68 velocity=41 time=0
note_on channel=0 note=68 velocity=0 time=120
note_on channel=0 note=56 velocity=32 time=0
note_on channel=0 note=56 velocity=0 time=120
note_on channel=0 note=63 velocity=36 time=0
note_on channel=0 note=63 velocity=0 time=120
note_on channel=0 note=61 velocity=33 time=0
note_on channel=0 note=61 velocity=0 time=120
note_on channel=0 note=68 velocity=41 time=0
note_on channel=0 note=68 velocity=0 time=120
note_on channel=0 note=56 velocity=30 time=0
note_on channel=0 note=56 velocity=0 time=120
note_on channel=0 note=63 velocity=34 time=0
note_on channel=0 note=63 velocity=0 time=120
note_on channel=0 note=61 velocity=30 time=0
note_on channel=0 note=61 velocity=0 time=120
note_on channel=0 note=68 velocity=39 time=0
note_on channel=0 note=68 velocity=0 time=120
note_on channel=0 note=56 velocity=35 time=0
note_on channel=0 note=56 velocity=0 time=120
note_on channel=0 note=63 velocity=36 time=0
note_on channel=0 note=63 velocity=0 time=120
note_on channel=0 note=61 velocity=33 time=0
note_on channel=0 note=61 velocity=0 time=120
note_on channel=0 note=68 velocity=41 time=0
note_on channel=0 note=68 velocity=0 time=120
note_on channel=0 note=56 velocity=30 time=0
note_on channel=0 note=56 velocity=0 time=120
note_on channel=0 note=63 velocity=37 time=0
note_on channel=0 note=63 velocity=0 time=120
note_on channel=0 note=61 velocity=32 time=0
note_on channel=0 note=61 velocity=0 time=120
note_on channel=0 note=68 velocity=41 time=0
note_on channel=0 note=68 velocity=0 time=120
note_on channel=0 note=56 velocity=32 time=0
note_on channel=0 note=56 velocity=0 time=120
note_on channel=0 note=63 velocity=36 time=0
note_on channel=0 note=63 velocity=0 time=120
note_on channel=0 note=61 velocity=33 time=0
note_on channel=0 note=61 velocity=0 time=120
note_on channel=0 note=68 velocity=41 time=0
note_on channel=0 note=68 velocity=0 time=120
note_on channel=0 note=56 velocity=30 time=0
note_on channel=0 note=56 velocity=0 time=120
note_on channel=0 note=63 velocity=34 time=0
note_on channel=0 note=63 velocity=0 time=120
note_on channel=0 note=61 velocity=30 time=0
note_on channel=0 note=61 velocity=0 time=120
note_on channel=0 note=68 velocity=39 time=0
note_on channel=0 note=68 velocity=0 time=120
note_on channel=0 note=56 velocity=35 time=0
note_on channel=0 note=56 velocity=0 time=120
note_on channel=0 note=63 velocity=36 time=0
note_on channel=0 note=63 velocity=0 time=120
note_on channel=0 note=61 velocity=33 time=0
note_on channel=0 note=61 velocity=0 time=120
note_on channel=0 note=68 velocity=41 time=0
note_on channel=0 note=68 velocity=0 time=120
note_on channel=0 note=56 velocity=30 time=0
note_on channel=0 note=56 velocity=0 time=120
note_on channel=0 note=63 velocity=37 time=0
note_on channel=0 note=63 velocity=0 time=120
note_on channel=0 note=61 velocity=32 time=0
note_on channel=0 note=61 velocity=0 time=120
note_on channel=0 note=68 velocity=41 time=0
note_on channel=0 note=68 velocity=0 time=120
note_on channel=0 note=56 velocity=32 time=0
note_on channel=0 note=56 velocity=0 time=120
note_on channel=0 note=63 velocity=36 time=0
note_on channel=0 note=63 velocity=0 time=120
note_on channel=0 note=61 velocity=33 time=0
note_on channel=0 note=61 velocity=0 time=120
note_on channel=0 note=68 velocity=41 time=0
note_on channel=0 note=68 velocity=0 time=120
note_on channel=0 note=56 velocity=30 time=0
note_on channel=0 note=56 velocity=0 time=120
note_on channel=0 note=63 velocity=34 time=0
note_on channel=0 note=63 velocity=0 time=120
note_on channel=0 note=61 velocity=30 time=0
note_on channel=0 note=61 velocity=0 time=120
note_on channel=0 note=68 velocity=39 time=0
note_on channel=0 note=68 velocity=0 time=120
note_on channel=0 note=56 velocity=35 time=0
note_on channel=0 note=56 velocity=0 time=120
note_on channel=0 note=63 velocity=36 time=0
note_on channel=0 note=63 velocity=0 time=120
note_on channel=0 note=61 velocity=33 time=0
note_on channel=0 note=61 velocity=0 time=120
note_on channel=0 note=68 velocity=41 time=0
note_on channel=0 note=68 velocity=0 time=120
note_on channel=0 note=56 velocity=30 time=0
note_on channel=0 note=56 velocity=0 time=120
note_on channel=0 note=63 velocity=37 time=0
note_on channel=0 note=63 velocity=0 time=120
note_on channel=0 note=61 velocity=32 time=0
note_on channel=0 note=61 velocity=0 time=120
note_on channel=0 note=68 velocity=41 time=0
note_on channel=0 note=68 velocity=0 time=120
note_on channel=0 note=56 velocity=32 time=0
note_on channel=0 note=56 velocity=0 time=120
note_on channel=0 note=63 velocity=36 time=0
note_on channel=0 note=63 velocity=0 time=120
note_on channel=0 note=61 velocity=33 time=0
note_on channel=0 note=61 velocity=0 time=120
note_on channel=0 note=68 velocity=41 time=0
note_on channel=0 note=68 velocity=0 time=120
note_on channel=0 note=56 velocity=30 time=0
note_on channel=0 note=56 velocity=0 time=120
note_on channel=0 note=63 velocity=34 time=0
note_on channel=0 note=63 velocity=0 time=120
note_on channel=0 note=61 velocity=30 time=0
note_on channel=0 note=61 velocity=0 time=120
note_on channel=0 note=68 velocity=39 time=0
note_on channel=0 note=68 velocity=0 time=120
note_on channel=0 note=56 velocity=35 time=0
note_on channel=0 note=56 velocity=0 time=120
note_on channel=0 note=63 velocity=36 time=0
note_on channel=0 note=63 velocity=0 time=120
note_on channel=0 note=61 velocity=33 time=0
note_on channel=0 note=61 velocity=0 time=120
note_on channel=0 note=68 velocity=41 time=0
note_on channel=0 note=68 velocity=0 time=120
note_on channel=0 note=56 velocity=30 time=0
note_on channel=0 note=56 velocity=0 time=120
note_on channel=0 note=63 velocity=37 time=0
note_on channel=0 note=63 velocity=0 time=120
note_on channel=0 note=61 velocity=32 time=0
note_on channel=0 note=61 velocity=0 time=120
note_on channel=0 note=68 velocity=41 time=0
note_on channel=0 note=68 velocity=0 time=120
note_on channel=0 note=56 velocity=32 time=0
note_on channel=0 note=56 velocity=0 time=120
note_on channel=0 note=63 velocity=36 time=0
note_on channel=0 note=63 velocity=0 time=120
note_on channel=0 note=61 velocity=33 time=0
note_on channel=0 note=61 velocity=0 time=120
note_on channel=0 note=68 velocity=41 time=0
note_on channel=0 note=68 velocity=0 time=120
note_on channel=0 note=56 velocity=30 time=0
note_on channel=0 note=56 velocity=0 time=120
note_on channel=0 note=63 velocity=34 time=0
note_on channel=0 note=63 velocity=0 time=120
note_on channel=0 note=61 velocity=30 time=0
note_on channel=0 note=61 velocity=0 time=120
note_on channel=0 note=68 velocity=39 time=0
note_on channel=0 note=68 velocity=0 time=120
note_on channel=0 note=56 velocity=35 time=0
note_on channel=0 note=56 velocity=0 time=120
note_on channel=0 note=63 velocity=36 time=0
note_on channel=0 note=63 velocity=0 time=120
note_on channel=0 note=61 velocity=29 time=0
note_on channel=0 note=61 velocity=0 time=120
note_on channel=0 note=68 velocity=35 time=0
note_on channel=0 note=68 velocity=0 time=120
note_on channel=0 note=53 velocity=37 time=0
note_on channel=0 note=53 velocity=0 time=120
note_on channel=0 note=63 velocity=44 time=0
note_on channel=0 note=63 velocity=0 time=120
note_on channel=0 note=61 velocity=28 time=0
note_on channel=0 note=61 velocity=0 time=120
note_on channel=0 note=68 velocity=36 time=0
note_on channel=0 note=68 velocity=0 time=120
note_on channel=0 note=53 velocity=37 time=0
note_on channel=0 note=53 velocity=0 time=120
note_on channel=0 note=63 velocity=43 time=0
note_on channel=0 note=63 velocity=0 time=120
note_on channel=0 note=61 velocity=29 time=0
note_on channel=0 note=61 velocity=0 time=120
note_on channel=0 note=68 velocity=37 time=0
note_on channel=0 note=68 velocity=0 time=120
note_on channel=0 note=53 velocity=37 time=0
note_on channel=0 note=53 velocity=0 time=120
note_on channel=0 note=63 velocity=45 time=0
note_on channel=0 note=63 velocity=0 time=120
note_on channel=0 note=61 velocity=27 time=0
note_on channel=0 note=61 velocity=0 time=120
note_on channel=0 note=68 velocity=36 time=0
note_on channel=0 note=68 velocity=0 time=120
note_on channel=0 note=53 velocity=31 time=0
note_on channel=0 note=53 velocity=0 time=120
note_on channel=0 note=65 velocity=32 time=0
note_on channel=0 note=65 velocity=0 time=120
note_on channel=0 note=63 velocity=29 time=6
note_on channel=0 note=68 velocity=35 time=114
note_on channel=0 note=63 velocity=0 time=6
note_on channel=0 note=68 velocity=0 time=114
note_on channel=0 note=54 velocity=38 time=0
note_on channel=0 note=54 velocity=0 time=120
note_on channel=0 note=65 velocity=44 time=0
note_on channel=0 note=65 velocity=0 time=120
note_on channel=0 note=63 velocity=28 time=0
note_on channel=0 note=63 velocity=0 time=120
note_on channel=0 note=68 velocity=35 time=0
note_on channel=0 note=68 velocity=0 time=120
note_on channel=0 note=54 velocity=38 time=0
note_on channel=0 note=54 velocity=0 time=120
note_on channel=0 note=65 velocity=42 time=6
note_on channel=0 note=65 velocity=0 time=120
note_on channel=0 note=63 velocity=29 time=0
note_on channel=0 note=68 velocity=37 time=114
note_on channel=0 note=63 velocity=0 time=6
note_on channel=0 note=68 velocity=0 time=114
note_on channel=0 note=54 velocity=37 time=0
note_on channel=0 note=54 velocity=0 time=120
note_on channel=0 note=65 velocity=40 time=0
note_on channel=0 note=65 velocity=0 time=120
note_on channel=0 note=63 velocity=27 time=0
note_on channel=0 note=63 velocity=0 time=120
note_on channel=0 note=68 velocity=35 time=0
note_on channel=0 note=68 velocity=0 time=120
note_on channel=0 note=54 velocity=38 time=0
note_on channel=0 note=54 velocity=0 time=120
note_on channel=0 note=54 velocity=38 time=120
note_on channel=0 note=56 velocity=40 time=60
note_on channel=0 note=60 velocity=43 time=60
note_on channel=0 note=63 velocity=48 time=120
note_on channel=0 note=63 velocity=0 time=1560
note_on channel=0 note=60 velocity=0 time=0
note_on channel=0 note=54 velocity=0 time=0
note_on channel=0 note=53 velocity=35 time=120
note_on channel=0 note=61 velocity=42 time=60
note_on channel=0 note=61 velocity=0 time=1740
note_on channel=0 note=53 velocity=0 time=0
note_on channel=0 note=56 velocity=0 time=0
note_on channel=0 note=44 velocity=79 time=0
note_on channel=0 note=56 velocity=79 time=0
note_on channel=0 note=56 velocity=0 time=3600
note_on channel=0 note=44 velocity=0 time=0
note_on channel=0 note=37 velocity=75 time=0
note_on channel=0 note=49 velocity=75 time=0
note_on channel=0 note=49 velocity=0 time=61
note_on channel=0 note=37 velocity=0 time=0
note_on channel=0 note=56 velocity=60 time=0
note_on channel=0 note=56 velocity=0 time=160
note_on channel=0 note=61 velocity=64 time=0
note_on channel=0 note=61 velocity=0 time=160
note_on channel=0 note=64 velocity=65 time=0
note_on channel=0 note=64 velocity=0 time=160
note_on channel=0 note=61 velocity=62 time=0
note_on channel=0 note=61 velocity=0 time=160
note_on channel=0 note=56 velocity=61 time=0
note_on channel=0 note=56 velocity=0 time=160
note_on channel=0 note=49 velocity=57 time=0
note_on channel=0 note=49 velocity=0 time=160
note_on channel=0 note=56 velocity=58 time=0
note_on channel=0 note=56 velocity=0 time=160
note_on channel=0 note=61 velocity=60 time=0
note_on channel=0 note=61 velocity=0 time=160
note_on channel=0 note=64 velocity=60 time=0
note_on channel=0 note=64 velocity=0 time=160
note_on channel=0 note=61 velocity=58 time=0
note_on channel=0 note=61 velocity=0 time=160
note_on channel=0 note=56 velocity=57 time=0
note_on channel=0 note=56 velocity=0 time=160
note_on channel=0 note=49 velocity=53 time=0
note_on channel=0 note=49 velocity=0 time=160
note_on channel=0 note=56 velocity=54 time=0
note_on channel=0 note=56 velocity=0 time=160
note_on channel=0 note=61 velocity=55 time=0
note_on channel=0 note=61 velocity=0 time=160
note_on channel=0 note=64 velocity=54 time=0
note_on channel=0 note=64 velocity=0 time=160
note_on channel=0 note=61 velocity=52 time=0
note_on channel=0 note=61 velocity=0 time=160
note_on channel=0 note=56 velocity=50 time=0
note_on channel=0 note=56 velocity=0 time=160
note_on channel=0 note=49 velocity=45 time=0
note_on channel=0 note=49 velocity=0 time=160
note_on channel=0 note=56 velocity=47 time=0
note_on channel=0 note=56 velocity=0 time=160
note_on channel=0 note=61 velocity=49 time=0
note_on channel=0 note=61 velocity=0 time=160
note_on channel=0 note=64 velocity=46 time=0
note_on channel=0 note=64 velocity=0 time=160
note_on channel=0 note=61 velocity=43 time=0
note_on channel=0 note=61 velocity=0 time=160
note_on channel=0 note=56 velocity=38 time=0
note_on channel=0 note=56 velocity=0 time=160
note_on channel=0 note=49 velocity=22 time=0
note_on channel=0 note=49 velocity=0 time=97
note_on channel=0 note=56 velocity=25 time=0
note_on channel=0 note=56 velocity=0 time=160
note_on channel=0 note=61 velocity=28 time=0
note_on channel=0 note=61 velocity=0 time=160
note_on channel=0 note=64 velocity=30 time=0
note_on channel=0 note=64 velocity=0 time=160
note_on channel=0 note=61 velocity=28 time=0
note_on channel=0 note=61 velocity=0 time=160
note_on channel=0 note=56 velocity=27 time=0
note_on channel=0 note=56 velocity=0 time=160
note_on channel=0 note=52 velocity=26 time=0
note_on channel=0 note=52 velocity=0 time=145
note_on channel=0 note=56 velocity=28 time=0
note_on channel=0 note=56 velocity=0 time=160
note_on channel=0 note=61 velocity=30 time=0
note_on channel=0 note=61 velocity=0 time=160
note_on channel=0 note=64 velocity=31 time=0
note_on channel=0 note=64 velocity=0 time=160
note_on channel=0 note=61 velocity=28 time=0
note_on channel=0 note=61 velocity=0 time=160
note_on channel=0 note=56 velocity=27 time=0
note_on channel=0 note=56 velocity=0 time=160
note_on channel=0 note=49 velocity=27 time=0
note_on channel=0 note=49 velocity=0 time=97
note_on channel=0 note=56 velocity=30 time=0
note_on channel=0 note=56 velocity=0 time=160
note_on channel=0 note=61 velocity=34 time=0
note_on channel=0 note=61 velocity=0 time=160
note_on channel=0 note=64 velocity=36 time=0
note_on channel=0 note=64 velocity=0 time=160
note_on channel=0 note=61 velocity=34 time=0
note_on channel=0 note=61 velocity=0 time=160
note_on channel=0 note=56 velocity=33 time=0
note_on channel=0 note=56 velocity=0 time=160
note_on channel=0 note=52 velocity=31 time=0
note_on channel=0 note=52 velocity=0 time=143
note_on channel=0 note=56 velocity=33 time=0
note_on channel=0 note=56 velocity=0 time=160
note_on channel=0 note=61 velocity=36 time=0
note_on channel=0 note=61 velocity=0 time=160
note_on channel=0 note=64 velocity=37 time=0
note_on channel=0 note=64 velocity=0 time=160
note_on channel=0 note=61 velocity=34 time=0
note_on channel=0 note=61 velocity=0 time=160
note_on channel=0 note=56 velocity=32 time=0
note_on channel=0 note=56 velocity=0 time=160
note_on channel=0 note=51 velocity=31 time=0
note_on channel=0 note=51 velocity=0 time=97
note_on channel=0 note=57 velocity=35 time=0
note_on channel=0 note=57 velocity=0 time=160
note_on channel=0 note=61 velocity=39 time=0
note_on channel=0 note=61 velocity=0 time=160
note_on channel=0 note=66 velocity=45 time=0
note_on channel=0 note=66 velocity=0 time=160
note_on channel=0 note=61 velocity=39 time=0
note_on channel=0 note=61 velocity=0 time=160
note_on channel=0 note=57 velocity=37 time=0
note_on channel=0 note=57 velocity=0 time=160
note_on channel=0 note=54 velocity=37 time=0
note_on channel=0 note=54 velocity=0 time=160
note_on channel=0 note=61 velocity=40 time=0
note_on channel=0 note=61 velocity=0 time=160
note_on channel=0 note=63 velocity=44 time=0
note_on channel=0 note=63 velocity=0 time=160
note_on channel=0 note=69 velocity=46 time=0
note_on channel=0 note=69 velocity=0 time=160
note_on channel=0 note=63 velocity=44 time=0
note_on channel=0 note=63 velocity=0 time=160
note_on channel=0 note=61 velocity=41 time=0
note_on channel=0 note=61 velocity=0 time=160
note_on channel=0 note=44 velocity=33 time=0
note_on channel=0 note=44 velocity=0 time=97
note_on channel=0 note=51 velocity=35 time=0
note_on channel=0 note=51 velocity=0 time=160
note_on channel=0 note=54 velocity=38 time=0
note_on channel=0 note=54 velocity=0 time=160
note_on channel=0 note=60 velocity=39 time=0
note_on channel=0 note=60 velocity=0 time=160
note_on channel=0 note=54 velocity=36 time=0
note_on channel=0 note=54 velocity=0 time=160
note_on channel=0 note=51 velocity=34 time=0
note_on channel=0 note=51 velocity=0 time=160
note_on channel=0 note=44 velocity=29 time=0
note_on channel=0 note=44 velocity=0 time=160
note_on channel=0 note=51 velocity=31 time=0
note_on channel=0 note=51 velocity=0 time=160
note_on channel=0 note=54 velocity=33 time=0
note_on channel=0 note=54 velocity=0 time=160
note_on channel=0 note=60 velocity=33 time=0
note_on channel=0 note=60 velocity=0 time=160
note_on channel=0 note=54 velocity=29 time=0
note_on channel=0 note=54 velocity=0 time=160
note_on channel=0 note=51 velocity=26 time=0
note_on channel=0 note=51 velocity=0 time=160
note_on channel=0 note=49 velocity=22 time=0
note_on channel=0 note=49 velocity=0 time=97
note_on channel=0 note=56 velocity=25 time=0
note_on channel=0 note=56 velocity=0 time=160
note_on channel=0 note=61 velocity=28 time=0
note_on channel=0 note=61 velocity=0 time=160
note_on channel=0 note=64 velocity=30 time=0
note_on channel=0 note=64 velocity=0 time=160
note_on channel=0 note=61 velocity=28 time=0
note_on channel=0 note=61 velocity=0 time=160
note_on channel=0 note=56 velocity=27 time=0
note_on channel=0 note=56 velocity=0 time=160
note_on channel=0 note=52 velocity=26 time=0
note_on channel=0 note=52 velocity=0 time=143
note_on channel=0 note=56 velocity=28 time=0
note_on channel=0 note=56 velocity=0 time=160
note_on channel=0 note=61 velocity=30 time=0
note_on channel=0 note=61 velocity=0 time=160
note_on channel=0 note=64 velocity=31 time=0
note_on channel=0 note=64 velocity=0 time=160
note_on channel=0 note=61 velocity=28 time=0
note_on channel=0 note=61 velocity=0 time=160
note_on channel=0 note=56 velocity=27 time=0
note_on channel=0 note=56 velocity=0 time=160
note_on channel=0 note=49 velocity=27 time=0
note_on channel=0 note=49 velocity=0 time=97
note_on channel=0 note=56 velocity=30 time=0
note_on channel=0 note=56 velocity=0 time=160
note_on channel=0 note=58 velocity=34 time=0
note_on channel=0 note=58 velocity=0 time=160
note_on channel=0 note=64 velocity=36 time=0
note_on channel=0 note=64 velocity=0 time=160
note_on channel=0 note=58 velocity=34 time=0
note_on channel=0 note=58 velocity=0 time=160
note_on channel=0 note=56 velocity=33 time=0
note_on channel=0 note=56 velocity=0 time=160
note_on channel=0 note=52 velocity=31 time=0
note_on channel=0 note=52 velocity=0 time=145
note_on channel=0 note=56 velocity=33 time=0
note_on channel=0 note=56 velocity=0 time=160
note_on channel=0 note=58 velocity=36 time=0
note_on channel=0 note=58 velocity=0 time=160
note_on channel=0 note=61 velocity=37 time=0
note_on channel=0 note=61 velocity=0 time=160
note_on channel=0 note=58 velocity=34 time=0
note_on channel=0 note=58 velocity=0 time=160
note_on channel=0 note=56 velocity=32 time=0
note_on channel=0 note=56 velocity=0 time=160
note_on channel=0 note=51 velocity=30 time=0
note_on channel=0 note=51 velocity=0 time=97
note_on channel=0 note=56 velocity=34 time=0
note_on channel=0 note=56 velocity=0 time=160
note_on channel=0 note=59 velocity=37 time=0
note_on channel=0 note=59 velocity=0 time=160
note_on channel=0 note=63 velocity=39 time=0
note_on channel=0 note=63 velocity=0 time=160
note_on channel=0 note=59 velocity=38 time=0
note_on channel=0 note=59 velocity=0 time=160
note_on channel=0 note=56 velocity=35 time=0
note_on channel=0 note=56 velocity=0 time=160
note_on channel=0 note=51 velocity=38 time=0
note_on channel=0 note=51 velocity=0 time=63
note_on channel=0 note=58 velocity=41 time=0
note_on channel=0 note=58 velocity=0 time=160
note_on channel=0 note=61 velocity=45 time=0
note_on channel=0 note=61 velocity=0 time=160
note_on channel=0 note=67 velocity=46 time=0
note_on channel=0 note=67 velocity=0 time=160
note_on channel=0 note=61 velocity=44 time=0
note_on channel=0 note=61 velocity=0 time=160
note_on channel=0 note=58 velocity=41 time=0
note_on channel=0 note=58 velocity=0 time=160
note_on channel=0 note=44 velocity=33 time=0
note_on channel=0 note=44 velocity=0 time=97
note_on channel=0 note=51 velocity=35 time=0
note_on channel=0 note=51 velocity=0 time=160
note_on channel=0 note=56 velocity=37 time=0
note_on channel=0 note=56 velocity=0 time=160
note_on channel=0 note=59 velocity=39 time=0
note_on channel=0 note=59 velocity=0 time=160
note_on channel=0 note=56 velocity=39 time=0
note_on channel=0 note=56 velocity=0 time=160
note_on channel=0 note=51 velocity=37 time=0
note_on channel=0 note=51 velocity=0 time=160
note_on channel=0 note=44 velocity=33 time=0
note_on channel=0 note=44 velocity=0 time=160
note_on channel=0 note=51 velocity=35 time=0
note_on channel=0 note=51 velocity=0 time=160
note_on channel=0 note=56 velocity=38 time=0
note_on channel=0 note=56 velocity=0 time=160
note_on channel=0 note=59 velocity=39 time=0
note_on channel=0 note=59 velocity=0 time=160
note_on channel=0 note=56 velocity=35 time=0
note_on channel=0 note=56 velocity=0 time=160
note_on channel=0 note=51 velocity=33 time=0
note_on channel=0 note=51 velocity=0 time=160
note_on channel=0 note=45 velocity=39 time=0
note_on channel=0 note=45 velocity=0 time=108
note_on channel=0 note=49 velocity=41 time=0
note_on channel=0 note=49 velocity=0 time=160
note_on channel=0 note=54 velocity=43 time=0
note_on channel=0 note=54 velocity=0 time=160
note_on channel=0 note=57 velocity=45 time=0
note_on channel=0 note=57 velocity=0 time=160
note_on channel=0 note=54 velocity=44 time=0
note_on channel=0 note=54 velocity=0 time=160
note_on channel=0 note=49 velocity=42 time=0
note_on channel=0 note=49 velocity=0 time=160
note_on channel=0 note=45 velocity=42 time=0
note_on channel=0 note=45 velocity=0 time=160
note_on channel=0 note=49 velocity=44 time=0
note_on channel=0 note=49 velocity=0 time=160
note_on channel=0 note=54 velocity=45 time=0
note_on channel=0 note=54 velocity=0 time=160
note_on channel=0 note=57 velocity=45 time=0
note_on channel=0 note=57 velocity=0 time=160
note_on channel=0 note=54 velocity=45 time=0
note_on channel=0 note=54 velocity=0 time=160
note_on channel=0 note=49 velocity=44 time=0
note_on channel=0 note=49 velocity=0 time=160
note_on channel=0 note=47 velocity=44 time=0
note_on channel=0 note=47 velocity=0 time=69
note_on channel=0 note=54 velocity=46 time=0
note_on channel=0 note=54 velocity=0 time=160
note_on channel=0 note=57 velocity=48 time=0
note_on channel=0 note=57 velocity=0 time=160
note_on channel=0 note=59 velocity=49 time=0
note_on channel=0 note=59 velocity=0 time=160
note_on channel=0 note=57 velocity=47 time=0
note_on channel=0 note=57 velocity=0 time=160
note_on channel=0 note=54 velocity=45 time=0
note_on channel=0 note=54 velocity=0 time=160
note_on channel=0 note=40 velocity=45 time=0
note_on channel=0 note=40 velocity=0 time=68
note_on channel=0 note=47 velocity=46 time=0
note_on channel=0 note=47 velocity=0 time=160
note_on channel=0 note=52 velocity=48 time=0
note_on channel=0 note=52 velocity=0 time=160
note_on channel=0 note=56 velocity=47 time=0
note_on channel=0 note=56 velocity=0 time=160
note_on channel=0 note=52 velocity=46 time=0
note_on channel=0 note=52 velocity=0 time=160
note_on channel=0 note=47 velocity=45 time=0
note_on channel=0 note=47 velocity=0 time=160
note_on channel=0 note=45 velocity=44 time=0
note_on channel=0 note=45 velocity=0 time=91
note_on channel=0 note=49 velocity=46 time=0
note_on channel=0 note=49 velocity=0 time=160
note_on channel=0 note=54 velocity=48 time=0
note_on channel=0 note=54 velocity=0 time=160
note_on channel=0 note=57 velocity=49 time=0
note_on channel=0 note=57 velocity=0 time=160
note_on channel=0 note=54 velocity=47 time=0
note_on channel=0 note=54 velocity=0 time=160
note_on channel=0 note=49 velocity=45 time=0
note_on channel=0 note=49 velocity=0 time=160
note_on channel=0 note=45 velocity=45 time=0
note_on channel=0 note=45 velocity=0 time=160
note_on channel=0 note=49 velocity=46 time=0
note_on channel=0 note=49 velocity=0 time=160
note_on channel=0 note=54 velocity=48 time=0
note_on channel=0 note=54 velocity=0 time=160
note_on channel=0 note=57 velocity=47 time=0
note_on channel=0 note=57 velocity=0 time=160
note_on channel=0 note=54 velocity=46 time=0
note_on channel=0 note=54 velocity=0 time=160
note_on channel=0 note=49 velocity=45 time=0
note_on channel=0 note=49 velocity=0 time=160
note_on channel=0 note=47 velocity=44 time=0
note_on channel=0 note=47 velocity=0 time=69
note_on channel=0 note=51 velocity=46 time=0
note_on channel=0 note=51 velocity=0 time=160
note_on channel=0 note=57 velocity=48 time=0
note_on channel=0 note=57 velocity=0 time=160
note_on channel=0 note=59 velocity=49 time=0
note_on channel=0 note=59 velocity=0 time=160
note_on channel=0 note=57 velocity=47 time=0
note_on channel=0 note=57 velocity=0 time=160
note_on channel=0 note=51 velocity=45 time=0
note_on channel=0 note=51 velocity=0 time=160
note_on channel=0 note=40 velocity=45 time=0
note_on channel=0 note=40 velocity=0 time=68
note_on channel=0 note=47 velocity=46 time=0
note_on channel=0 note=47 velocity=0 time=160
note_on channel=0 note=52 velocity=48 time=0
note_on channel=0 note=52 velocity=0 time=160
note_on channel=0 note=56 velocity=47 time=0
note_on channel=0 note=56 velocity=0 time=160
note_on channel=0 note=52 velocity=46 time=0
note_on channel=0 note=52 velocity=0 time=160
note_on channel=0 note=47 velocity=45 time=0
note_on channel=0 note=47 velocity=0 time=160
note_on channel=0 note=45 velocity=30 time=0
note_on channel=0 note=45 velocity=0 time=69
note_on channel=0 note=49 velocity=33 time=0
note_on channel=0 note=49 velocity=0 time=160
note_on channel=0 note=54 velocity=34 time=0
note_on channel=0 note=54 velocity=0 time=160
note_on channel=0 note=57 velocity=35 time=0
note_on channel=0 note=57 velocity=0 time=160
note_on channel=0 note=54 velocity=34 time=0
note_on channel=0 note=54 velocity=0 time=160
note_on channel=0 note=49 velocity=34 time=0
note_on channel=0 note=49 velocity=0 time=160
note_on channel=0 note=45 velocity=34 time=0
note_on channel=0 note=45 velocity=0 time=160
note_on channel=0 note=49 velocity=34 time=0
note_on channel=0 note=49 velocity=0 time=160
note_on channel=0 note=54 velocity=36 time=0
note_on channel=0 note=54 velocity=0 time=160
note_on channel=0 note=57 velocity=36 time=0
note_on channel=0 note=57 velocity=0 time=160
note_on channel=0 note=54 velocity=35 time=0
note_on channel=0 note=54 velocity=0 time=160
note_on channel=0 note=49 velocity=34 time=0
note_on channel=0 note=49 velocity=0 time=160
note_on channel=0 note=47 velocity=34 time=0
note_on channel=0 note=47 velocity=0 time=69
note_on channel=0 note=54 velocity=37 time=0
note_on channel=0 note=54 velocity=0 time=160
note_on channel=0 note=57 velocity=38 time=0
note_on channel=0 note=57 velocity=0 time=160
note_on channel=0 note=59 velocity=39 time=0
note_on channel=0 note=59 velocity=0 time=160
note_on channel=0 note=57 velocity=38 time=0
note_on channel=0 note=57 velocity=0 time=160
note_on channel=0 note=54 velocity=38 time=0
note_on channel=0 note=54 velocity=0 time=160
note_on channel=0 note=40 velocity=37 time=0
note_on channel=0 note=40 velocity=0 time=68
note_on channel=0 note=47 velocity=39 time=0
note_on channel=0 note=47 velocity=0 time=160
note_on channel=0 note=52 velocity=40 time=0
note_on channel=0 note=52 velocity=0 time=160
note_on channel=0 note=56 velocity=40 time=0
note_on channel=0 note=56 velocity=0 time=160
note_on channel=0 note=52 velocity=40 time=0
note_on channel=0 note=52 velocity=0 time=160
note_on channel=0 note=47 velocity=39 time=0
note_on channel=0 note=47 velocity=0 time=160
note_on channel=0 note=45 velocity=39 time=0
note_on channel=0 note=45 velocity=0 time=69
note_on channel=0 note=49 velocity=42 time=0
note_on channel=0 note=49 velocity=0 time=160
note_on channel=0 note=54 velocity=43 time=0
note_on channel=0 note=54 velocity=0 time=160
note_on channel=0 note=57 velocity=45 time=0
note_on channel=0 note=57 velocity=0 time=160
note_on channel=0 note=54 velocity=43 time=0
note_on channel=0 note=54 velocity=0 time=160
note_on channel=0 note=49 velocity=42 time=0
note_on channel=0 note=49 velocity=0 time=160
note_on channel=0 note=45 velocity=42 time=0
note_on channel=0 note=45 velocity=0 time=68
note_on channel=0 note=51 velocity=44 time=0
note_on channel=0 note=51 velocity=0 time=160
note_on channel=0 note=54 velocity=45 time=0
note_on channel=0 note=54 velocity=0 time=160
note_on channel=0 note=57 velocity=44 time=0
note_on channel=0 note=57 velocity=0 time=160
note_on channel=0 note=54 velocity=44 time=0
note_on channel=0 note=54 velocity=0 time=160
note_on channel=0 note=51 velocity=42 time=0
note_on channel=0 note=51 velocity=0 time=160
note_on channel=0 note=44 velocity=42 time=0
note_on channel=0 note=44 velocity=0 time=68
note_on channel=0 note=51 velocity=44 time=0
note_on channel=0 note=51 velocity=0 time=160
note_on channel=0 note=54 velocity=45 time=0
note_on channel=0 note=54 velocity=0 time=160
note_on channel=0 note=60 velocity=42 time=0
note_on channel=0 note=60 velocity=0 time=103
note_on channel=0 note=54 velocity=42 time=0
note_on channel=0 note=54 velocity=0 time=160
note_on channel=0 note=51 velocity=40 time=0
note_on channel=0 note=51 velocity=0 time=160
note_on channel=0 note=44 velocity=39 time=0
note_on channel=0 note=44 velocity=0 time=160
note_on channel=0 note=51 velocity=41 time=0
note_on channel=0 note=51 velocity=0 time=160
note_on channel=0 note=54 velocity=42 time=0
note_on channel=0 note=54 velocity=0 time=160
note_on channel=0 note=60 velocity=40 time=0
note_on channel=0 note=60 velocity=0 time=160
note_on channel=0 note=54 velocity=39 time=0
note_on channel=0 note=54 velocity=0 time=160
note_on channel=0 note=51 velocity=38 time=0
note_on channel=0 note=51 velocity=0 time=160
note_on channel=0 note=45 velocity=38 time=0
note_on channel=0 note=45 velocity=0 time=68
note_on channel=0 note=51 velocity=39 time=0
note_on channel=0 note=51 velocity=0 time=160
note_on channel=0 note=54 velocity=40 time=0
note_on channel=0 note=54 velocity=0 time=160
note_on channel=0 note=59 velocity=38 time=0
note_on channel=0 note=59 velocity=0 time=103
note_on channel=0 note=54 velocity=38 time=0
note_on channel=0 note=54 velocity=0 time=160
note_on channel=0 note=51 velocity=36 time=0
note_on channel=0 note=51 velocity=0 time=160
note_on channel=0 note=46 velocity=35 time=0
note_on channel=0 note=46 velocity=0 time=103
note_on channel=0 note=51 velocity=37 time=0
note_on channel=0 note=51 velocity=0 time=160
note_on channel=0 note=54 velocity=38 time=0
note_on channel=0 note=54 velocity=0 time=160
note_on channel=0 note=58 velocity=36 time=0
note_on channel=0 note=58 velocity=0 time=101
note_on channel=0 note=54 velocity=35 time=0
note_on channel=0 note=54 velocity=0 time=160
note_on channel=0 note=51 velocity=34 time=0
note_on channel=0 note=51 velocity=0 time=160
note_on channel=0 note=48 velocity=34 time=0
note_on channel=0 note=48 velocity=0 time=91
note_on channel=0 note=51 velocity=34 time=0
note_on channel=0 note=51 velocity=0 time=160
note_on channel=0 note=54 velocity=35 time=0
note_on channel=0 note=54 velocity=0 time=160
note_on channel=0 note=57 velocity=34 time=0
note_on channel=0 note=57 velocity=0 time=103
note_on channel=0 note=54 velocity=34 time=0
note_on channel=0 note=54 velocity=0 time=160
note_on channel=0 note=51 velocity=32 time=0
note_on channel=0 note=51 velocity=0 time=160
note_on channel=0 note=48 velocity=31 time=0
note_on channel=0 note=48 velocity=0 time=160
note_on channel=0 note=51 velocity=33 time=0
note_on channel=0 note=51 velocity=0 time=160
note_on channel=0 note=54 velocity=33 time=0
note_on channel=0 note=54 velocity=0 time=160
note_on channel=0 note=57 velocity=31 time=0
note_on channel=0 note=57 velocity=0 time=160
note_on channel=0 note=54 velocity=31 time=0
note_on channel=0 note=54 velocity=0 time=160
note_on channel=0 note=51 velocity=29 time=0
note_on channel=0 note=51 velocity=0 time=160
note_on channel=0 note=45 velocity=28 time=0
note_on channel=0 note=45 velocity=0 time=68
note_on channel=0 note=51 velocity=29 time=0
note_on channel=0 note=51 velocity=0 time=160
note_on channel=0 note=54 velocity=29 time=0
note_on channel=0 note=54 velocity=0 time=160
note_on channel=0 note=59 velocity=31 time=0
note_on channel=0 note=59 velocity=0 time=103
note_on channel=0 note=54 velocity=29 time=0
note_on channel=0 note=54 velocity=0 time=160
note_on channel=0 note=51 velocity=28 time=0
note_on channel=0 note=51 velocity=0 time=160
note_on channel=0 note=46 velocity=25 time=0
note_on channel=0 note=46 velocity=0 time=103
note_on channel=0 note=51 velocity=26 time=0
note_on channel=0 note=51 velocity=0 time=160
note_on channel=0 note=54 velocity=27 time=0
note_on channel=0 note=54 velocity=0 time=160
note_on channel=0 note=58 velocity=28 time=0
note_on channel=0 note=58 velocity=0 time=68
note_on channel=0 note=54 velocity=27 time=0
note_on channel=0 note=54 velocity=0 time=160
note_on channel=0 note=51 velocity=25 time=0
note_on channel=0 note=51 velocity=0 time=160
note_on channel=0 note=47 velocity=24 time=0
note_on channel=0 note=47 velocity=0 time=97
note_on channel=0 note=51 velocity=26 time=0
note_on channel=0 note=51 velocity=0 time=160
note_on channel=0 note=54 velocity=27 time=0
note_on channel=0 note=54 velocity=0 time=160
note_on channel=0 note=57 velocity=28 time=0
note_on channel=0 note=57 velocity=0 time=103
note_on channel=0 note=54 velocity=27 time=0
note_on channel=0 note=54 velocity=0 time=160
note_on channel=0 note=51 velocity=25 time=0
note_on channel=0 note=51 velocity=0 time=160
note_on channel=0 note=48 velocity=22 time=0
note_on channel=0 note=48 velocity=0 time=103
note_on channel=0 note=51 velocity=23 time=0
note_on channel=0 note=51 velocity=0 time=160
note_on channel=0 note=54 velocity=24 time=0
note_on channel=0 note=54 velocity=0 time=160
note_on channel=0 note=56 velocity=24 time=0
note_on channel=0 note=56 velocity=0 time=74
note_on channel=0 note=54 velocity=23 time=0
note_on channel=0 note=54 velocity=0 time=160
note_on channel=0 note=51 velocity=22 time=0
note_on channel=0 note=51 velocity=0 time=160
note_on channel=0 note=49 velocity=22 time=0
note_on channel=0 note=49 velocity=0 time=97
note_on channel=0 note=56 velocity=25 time=0
note_on channel=0 note=56 velocity=0 time=160
note_on channel=0 note=61 velocity=28 time=0
note_on channel=0 note=61 velocity=0 time=160
note_on channel=0 note=64 velocity=30 time=0
note_on channel=0 note=64 velocity=0 time=160
note_on channel=0 note=61 velocity=28 time=0
note_on channel=0 note=61 velocity=0 time=160
note_on channel=0 note=56 velocity=27 time=0
note_on channel=0 note=56 velocity=0 time=160
note_on channel=0 note=52 velocity=26 time=0
note_on channel=0 note=52 velocity=0 time=143
note_on channel=0 note=56 velocity=28 time=0
note_on channel=0 note=56 velocity=0 time=160
note_on channel=0 note=61 velocity=30 time=0
note_on channel=0 note=61 velocity=0 time=160
note_on channel=0 note=64 velocity=31 time=0
note_on channel=0 note=64 velocity=0 time=160
note_on channel=0 note=61 velocity=28 time=0
note_on channel=0 note=61 velocity=0 time=160
note_on channel=0 note=56 velocity=27 time=0
note_on channel=0 note=56 velocity=0 time=160
note_on channel=0 note=49 velocity=27 time=0
note_on channel=0 note=49 velocity=0 time=97
note_on channel=0 note=56 velocity=30 time=0
note_on channel=0 note=56 velocity=0 time=160
note_on channel=0 note=61 velocity=34 time=0
note_on channel=0 note=61 velocity=0 time=160
note_on channel=0 note=64 velocity=36 time=0
note_on channel=0 note=64 velocity=0 time=160
note_on channel=0 note=61 velocity=34 time=0
note_on channel=0 note=61 velocity=0 time=160
note_on channel=0 note=56 velocity=33 time=0
note_on channel=0 note=56 velocity=0 time=160
note_on channel=0 note=52 velocity=31 time=0
note_on channel=0 note=52 velocity=0 time=143
note_on channel=0 note=56 velocity=33 time=0
note_on channel=0 note=56 velocity=0 time=160
note_on channel=0 note=61 velocity=36 time=0
note_on channel=0 note=61 velocity=0 time=160
note_on channel=0 note=64 velocity=37 time=0
note_on channel=0 note=64 velocity=0 time=160
note_on channel=0 note=61 velocity=34 time=0
note_on channel=0 note=61 velocity=0 time=160
note_on channel=0 note=56 velocity=32 time=0
note_on channel=0 note=56 velocity=0 time=160
note_on channel=0 note=51 velocity=31 time=0
note_on channel=0 note=51 velocity=0 time=97
note_on channel=0 note=57 velocity=35 time=0
note_on channel=0 note=57 velocity=0 time=160
note_on channel=0 note=61 velocity=39 time=0
note_on channel=0 note=61 velocity=0 time=160
note_on channel=0 note=66 velocity=45 time=0
note_on channel=0 note=66 velocity=0 time=160
note_on channel=0 note=61 velocity=39 time=0
note_on channel=0 note=61 velocity=0 time=160
note_on channel=0 note=57 velocity=37 time=0
note_on channel=0 note=57 velocity=0 time=160
note_on channel=0 note=54 velocity=37 time=0
note_on channel=0 note=54 velocity=0 time=160
note_on channel=0 note=61 velocity=40 time=0
note_on channel=0 note=61 velocity=0 time=160
note_on channel=0 note=63 velocity=44 time=0
note_on channel=0 note=63 velocity=0 time=160
note_on channel=0 note=69 velocity=46 time=0
note_on channel=0 note=69 velocity=0 time=160
note_on channel=0 note=63 velocity=44 time=0
note_on channel=0 note=63 velocity=0 time=160
note_on channel=0 note=61 velocity=41 time=0
note_on channel=0 note=61 velocity=0 time=160
note_on channel=0 note=44 velocity=33 time=0
note_on channel=0 note=44 velocity=0 time=97
note_on channel=0 note=51 velocity=36 time=0
note_on channel=0 note=51 velocity=0 time=160
note_on channel=0 note=54 velocity=39 time=0
note_on channel=0 note=54 velocity=0 time=160
note_on channel=0 note=60 velocity=41 time=0
note_on channel=0 note=60 velocity=0 time=160
note_on channel=0 note=54 velocity=39 time=0
note_on channel=0 note=54 velocity=0 time=160
note_on channel=0 note=51 velocity=37 time=0
note_on channel=0 note=51 velocity=0 time=160
note_on channel=0 note=44 velocity=33 time=0
note_on channel=0 note=44 velocity=0 time=160
note_on channel=0 note=51 velocity=35 time=0
note_on channel=0 note=51 velocity=0 time=160
note_on channel=0 note=54 velocity=38 time=0
note_on channel=0 note=54 velocity=0 time=160
note_on channel=0 note=60 velocity=39 time=0
note_on channel=0 note=60 velocity=0 time=160
note_on channel=0 note=54 velocity=35 time=0
note_on channel=0 note=54 velocity=0 time=160
note_on channel=0 note=51 velocity=33 time=0
note_on channel=0 note=51 velocity=0 time=160
note_on channel=0 note=49 velocity=28 time=0
note_on channel=0 note=49 velocity=0 time=97
note_on channel=0 note=56 velocity=32 time=0
note_on channel=0 note=56 velocity=0 time=160
note_on channel=0 note=61 velocity=34 time=0
note_on channel=0 note=61 velocity=0 time=160
note_on channel=0 note=64 velocity=37 time=0
note_on channel=0 note=64 velocity=0 time=160
note_on channel=0 note=61 velocity=35 time=0
note_on channel=0 note=61 velocity=0 time=160
note_on channel=0 note=56 velocity=33 time=0
note_on channel=0 note=56 velocity=0 time=160
note_on channel=0 note=52 velocity=31 time=0
note_on channel=0 note=52 velocity=0 time=80
note_on channel=0 note=56 velocity=33 time=0
note_on channel=0 note=56 velocity=0 time=160
note_on channel=0 note=61 velocity=35 time=0
note_on channel=0 note=61 velocity=0 time=160
note_on channel=0 note=64 velocity=36 time=0
note_on channel=0 note=64 velocity=0 time=160
note_on channel=0 note=61 velocity=33 time=0
note_on channel=0 note=61 velocity=0 time=160
note_on channel=0 note=56 velocity=31 time=0
note_on channel=0 note=56 velocity=0 time=160
note_on channel=0 note=54 velocity=28 time=0
note_on channel=0 note=54 velocity=0 time=97
note_on channel=0 note=61 velocity=33 time=0
note_on channel=0 note=61 velocity=0 time=160
note_on channel=0 note=63 velocity=35 time=0
note_on channel=0 note=63 velocity=0 time=160
note_on channel=0 note=69 velocity=38 time=0
note_on channel=0 note=69 velocity=0 time=160
note_on channel=0 note=63 velocity=36 time=0
note_on channel=0 note=63 velocity=0 time=160
note_on channel=0 note=61 velocity=34 time=0
note_on channel=0 note=61 velocity=0 time=160
note_on channel=0 note=56 velocity=32 time=0
note_on channel=0 note=56 velocity=0 time=80
note_on channel=0 note=61 velocity=34 time=0
note_on channel=0 note=61 velocity=0 time=160
note_on channel=0 note=65 velocity=37 time=0
note_on channel=0 note=65 velocity=0 time=160
note_on channel=0 note=71 velocity=39 time=0
note_on channel=0 note=71 velocity=0 time=160
note_on channel=0 note=65 velocity=34 time=0
note_on channel=0 note=65 velocity=0 time=160
note_on channel=0 note=61 velocity=33 time=0
note_on channel=0 note=61 velocity=0 time=160
note_on channel=0 note=57 velocity=30 time=0
note_on channel=0 note=57 velocity=0 time=97
note_on channel=0 note=61 velocity=34 time=0
note_on channel=0 note=61 velocity=0 time=160
note_on channel=0 note=66 velocity=37 time=0
note_on channel=0 note=66 velocity=0 time=160
note_on channel=0 note=69 velocity=40 time=0
note_on channel=0 note=69 velocity=0 time=160
note_on channel=0 note=66 velocity=39 time=0
note_on channel=0 note=66 velocity=0 time=160
note_on channel=0 note=61 velocity=35 time=0
note_on channel=0 note=61 velocity=0 time=160
note_on channel=0 note=56 velocity=34 time=0
note_on channel=0 note=56 velocity=0 time=80
note_on channel=0 note=61 velocity=36 time=0
note_on channel=0 note=61 velocity=0 time=160
note_on channel=0 note=65 velocity=39 time=0
note_on channel=0 note=65 velocity=0 time=160
note_on channel=0 note=71 velocity=40 time=0
note_on channel=0 note=71 velocity=0 time=160
note_on channel=0 note=65 velocity=37 time=0
note_on channel=0 note=65 velocity=0 time=160
note_on channel=0 note=61 velocity=34 time=0
note_on channel=0 note=61 velocity=0 time=160
note_on channel=0 note=57 velocity=32 time=0
note_on channel=0 note=57 velocity=0 time=97
note_on channel=0 note=61 velocity=36 time=0
note_on channel=0 note=61 velocity=0 time=160
note_on channel=0 note=66 velocity=39 time=0
note_on channel=0 note=66 velocity=0 time=160
note_on channel=0 note=69 velocity=42 time=0
note_on channel=0 note=69 velocity=0 time=160
note_on channel=0 note=66 velocity=40 time=0
note_on channel=0 note=66 velocity=0 time=160
note_on channel=0 note=61 velocity=38 time=0
note_on channel=0 note=61 velocity=0 time=160
note_on channel=0 note=48 velocity=36 time=0
note_on channel=0 note=48 velocity=0 time=80
note_on channel=0 note=54 velocity=38 time=0
note_on channel=0 note=54 velocity=0 time=160
note_on channel=0 note=56 velocity=41 time=0
note_on channel=0 note=56 velocity=0 time=160
note_on channel=0 note=63 velocity=42 time=0
note_on channel=0 note=63 velocity=0 time=160
note_on channel=0 note=56 velocity=39 time=0
note_on channel=0 note=56 velocity=0 time=160
note_on channel=0 note=54 velocity=37 time=0
note_on channel=0 note=54 velocity=0 time=160
note_on channel=0 note=49 velocity=35 time=0
note_on channel=0 note=49 velocity=0 time=97
note_on channel=0 note=56 velocity=39 time=0
note_on channel=0 note=56 velocity=0 time=160
note_on channel=0 note=61 velocity=43 time=0
note_on channel=0 note=61 velocity=0 time=160
note_on channel=0 note=64 velocity=45 time=0
note_on channel=0 note=64 velocity=0 time=160
note_on channel=0 note=61 velocity=44 time=0
note_on channel=0 note=61 velocity=0 time=160
note_on channel=0 note=56 velocity=42 time=0
note_on channel=0 note=56 velocity=0 time=160
note_on channel=0 note=51 velocity=44 time=0
note_on channel=0 note=51 velocity=0 time=68
note_on channel=0 note=56 velocity=41 time=0
note_on channel=0 note=56 velocity=0 time=160
note_on channel=0 note=60 velocity=45 time=0
note_on channel=0 note=60 velocity=0 time=160
note_on channel=0 note=66 velocity=46 time=0
note_on channel=0 note=66 velocity=0 time=160
note_on channel=0 note=60 velocity=44 time=0
note_on channel=0 note=60 velocity=0 time=160
note_on channel=0 note=56 velocity=41 time=0
note_on channel=0 note=56 velocity=0 time=160
note_on channel=0 note=52 velocity=35 time=0
note_on channel=0 note=52 velocity=0 time=97
note_on channel=0 note=56 velocity=39 time=0
note_on channel=0 note=56 velocity=0 time=160
note_on channel=0 note=61 velocity=43 time=0
note_on channel=0 note=61 velocity=0 time=160
note_on channel=0 note=64 velocity=45 time=0
note_on channel=0 note=64 velocity=0 time=160
note_on channel=0 note=61 velocity=44 time=0
note_on channel=0 note=61 velocity=0 time=160
note_on channel=0 note=56 velocity=42 time=0
note_on channel=0 note=56 velocity=0 time=160
note_on channel=0 note=54 velocity=44 time=0
note_on channel=0 note=54 velocity=0 time=63
note_on channel=0 note=61 velocity=41 time=0
note_on channel=0 note=61 velocity=0 time=160
note_on channel=0 note=63 velocity=45 time=0
note_on channel=0 note=63 velocity=0 time=160
note_on channel=0 note=69 velocity=46 time=0
note_on channel=0 note=69 velocity=0 time=160
note_on channel=0 note=63 velocity=48 time=0
note_on channel=0 note=63 velocity=0 time=160
note_on channel=0 note=61 velocity=51 time=0
note_on channel=0 note=61 velocity=0 time=160
note_on channel=0 note=68 velocity=71 time=0
note_on channel=0 note=64 velocity=71 time=0
note_on channel=0 note=61 velocity=71 time=0
note_on channel=0 note=56 velocity=71 time=0
note_on channel=0 note=56 velocity=0 time=240
note_on channel=0 note=68 velocity=0 time=0
note_on channel=0 note=64 velocity=0 time=0
note_on channel=0 note=61 velocity=0 time=0
note_on channel=0 note=69 velocity=71 time=720
note_on channel=0 note=64 velocity=71 time=0
note_on channel=0 note=61 velocity=71 time=0
note_on channel=0 note=55 velocity=71 time=0
note_on channel=0 note=55 velocity=0 time=469
note_on channel=0 note=69 velocity=0 time=0
note_on channel=0 note=64 velocity=0 time=0
note_on channel=0 note=61 velocity=0 time=0
note_on channel=0 note=32 velocity=78 time=903
note_on channel=0 note=44 velocity=78 time=0
note_on channel=0 note=44 velocity=0 time=113
note_on channel=0 note=32 velocity=0 time=0
note_on channel=0 note=76 velocity=75 time=332
note_on channel=0 note=64 velocity=75 time=0
note_on channel=0 note=64 velocity=0 time=480
note_on channel=0 note=76 velocity=0 time=0
note_on channel=0 note=61 velocity=78 time=0
note_on channel=0 note=73 velocity=78 time=0
note_on channel=0 note=73 velocity=0 time=480
note_on channel=0 note=61 velocity=0 time=0
note_on channel=0 note=56 velocity=78 time=0
note_on channel=0 note=68 velocity=78 time=0
note_on channel=0 note=68 velocity=0 time=480
note_on channel=0 note=56 velocity=0 time=0
note_on channel=0 note=52 velocity=78 time=0
note_on channel=0 note=64 velocity=78 time=0
note_on channel=0 note=64 velocity=0 time=480
note_on channel=0 note=52 velocity=0 time=0
note_on channel=0 note=49 velocity=74 time=0
note_on channel=0 note=61 velocity=74 time=0
note_on channel=0 note=61 velocity=0 time=480
note_on channel=0 note=49 velocity=0 time=0
note_on channel=0 note=44 velocity=78 time=0
note_on channel=0 note=56 velocity=78 time=0
note_on channel=0 note=56 velocity=0 time=480
note_on channel=0 note=44 velocity=0 time=0
note_on channel=0 note=40 velocity=74 time=0
note_on channel=0 note=52 velocity=74 time=0
note_on channel=0 note=52 velocity=0 time=480
note_on channel=0 note=40 velocity=0 time=0
note_on channel=0 note=37 velocity=78 time=0
note_on channel=0 note=49 velocity=78 time=0
note_on channel=0 note=49 velocity=0 time=409
note_on channel=0 note=37 velocity=0 time=0
note_on channel=0 note=32 velocity=73 time=0
note_on channel=0 note=44 velocity=73 time=0
note_on channel=0 note=44 velocity=0 time=480
note_on channel=0 note=32 velocity=0 time=0
note_on channel=0 note=32 velocity=78 time=0
note_on channel=0 note=44 velocity=78 time=0
note_on channel=0 note=44 velocity=0 time=480
note_on channel=0 note=32 velocity=0 time=0
note_on channel=0 note=33 velocity=74 time=0
note_on channel=0 note=45 velocity=74 time=0
note_on channel=0 note=45 velocity=0 time=395
note_on channel=0 note=33 velocity=0 time=0
note_on channel=0 note=32 velocity=78 time=0
note_on channel=0 note=44 velocity=78 time=0
note_on channel=0 note=44 velocity=0 time=406
note_on channel=0 note=32 velocity=0 time=0
note_on channel=0 note=31 velocity=72 time=0
note_on channel=0 note=43 velocity=72 time=0
note_on channel=0 note=43 velocity=0 time=360
note_on channel=0 note=31 velocity=0 time=0
note_on channel=0 note=32 velocity=69 time=0
note_on channel=0 note=44 velocity=69 time=0
note_on channel=0 note=44 velocity=0 time=360
note_on channel=0 note=32 velocity=0 time=0
note_on channel=0 note=37 velocity=95 time=0
note_on channel=0 note=37 velocity=0 time=54
note_on channel=0 note=44 velocity=55 time=0
note_on channel=0 note=44 velocity=0 time=160
note_on channel=0 note=49 velocity=56 time=0
note_on channel=0 note=49 velocity=0 time=160
note_on channel=0 note=53 velocity=56 time=0
note_on channel=0 note=53 velocity=0 time=160
note_on channel=0 note=56 velocity=58 time=0
note_on channel=0 note=56 velocity=0 time=160
note_on channel=0 note=61 velocity=59 time=0
note_on channel=0 note=61 velocity=0 time=160
note_on channel=0 note=65 velocity=59 time=0
note_on channel=0 note=65 velocity=0 time=160
note_on channel=0 note=61 velocity=57 time=0
note_on channel=0 note=61 velocity=0 time=160
note_on channel=0 note=56 velocity=52 time=0
note_on channel=0 note=56 velocity=0 time=160
note_on channel=0 note=53 velocity=49 time=0
note_on channel=0 note=53 velocity=0 time=160
note_on channel=0 note=49 velocity=46 time=0
note_on channel=0 note=49 velocity=0 time=160
note_on channel=0 note=44 velocity=41 time=0
note_on channel=0 note=44 velocity=0 time=160
note_on channel=0 note=37 velocity=40 time=0
note_on channel=0 note=37 velocity=0 time=160
note_on channel=0 note=44 velocity=41 time=0
note_on channel=0 note=44 velocity=0 time=160
note_on channel=0 note=49 velocity=42 time=0
note_on channel=0 note=49 velocity=0 time=160
note_on channel=0 note=53 velocity=43 time=0
note_on channel=0 note=53 velocity=0 time=160
note_on channel=0 note=56 velocity=44 time=0
note_on channel=0 note=56 velocity=0 time=160
note_on channel=0 note=61 velocity=45 time=0
note_on channel=0 note=61 velocity=0 time=160
note_on channel=0 note=65 velocity=45 time=0
note_on channel=0 note=65 velocity=0 time=160
note_on channel=0 note=61 velocity=45 time=0
note_on channel=0 note=61 velocity=0 time=160
note_on channel=0 note=56 velocity=44 time=0
note_on channel=0 note=56 velocity=0 time=160
note_on channel=0 note=53 velocity=43 time=0
note_on channel=0 note=53 velocity=0 time=160
note_on channel=0 note=49 velocity=42 time=0
note_on channel=0 note=49 velocity=0 time=160
note_on channel=0 note=44 velocity=41 time=0
note_on channel=0 note=37 velocity=25 time=0
note_on channel=0 note=37 velocity=0 time=47
note_on channel=0 note=44 velocity=0 time=0
note_on channel=0 note=56 velocity=26 time=0
note_on channel=0 note=56 velocity=0 time=160
note_on channel=0 note=60 velocity=27 time=0
note_on channel=0 note=60 velocity=0 time=160
note_on channel=0 note=63 velocity=28 time=0
note_on channel=0 note=63 velocity=0 time=160
note_on channel=0 note=60 velocity=28 time=0
note_on channel=0 note=60 velocity=0 time=160
note_on channel=0 note=56 velocity=27 time=0
note_on channel=0 note=56 velocity=0 time=160
note_on channel=0 note=49 velocity=27 time=0
note_on channel=0 note=49 velocity=0 time=160
note_on channel=0 note=56 velocity=27 time=0
note_on channel=0 note=56 velocity=0 time=160
note_on channel=0 note=60 velocity=28 time=0
note_on channel=0 note=60 velocity=0 time=160
note_on channel=0 note=66 velocity=28 time=0
note_on channel=0 note=66 velocity=0 time=160
note_on channel=0 note=60 velocity=27 time=0
note_on channel=0 note=60 velocity=0 time=160
note_on channel=0 note=56 velocity=26 time=0
note_on channel=0 note=56 velocity=0 time=160
note_on channel=0 note=49 velocity=27 time=0
note_on channel=0 note=49 velocity=0 time=107
note_on channel=0 note=56 velocity=28 time=0
note_on channel=0 note=56 velocity=0 time=160
note_on channel=0 note=61 velocity=28 time=0
note_on channel=0 note=61 velocity=0 time=160
note_on channel=0 note=65 velocity=29 time=0
note_on channel=0 note=65 velocity=0 time=160
note_on channel=0 note=61 velocity=30 time=0
note_on channel=0 note=61 velocity=0 time=160
note_on channel=0 note=56 velocity=28 time=0
note_on channel=0 note=56 velocity=0 time=160
note_on channel=0 note=49 velocity=27 time=0
note_on channel=0 note=49 velocity=0 time=100
note_on channel=0 note=56 velocity=28 time=0
note_on channel=0 note=56 velocity=0 time=160
note_on channel=0 note=65 velocity=29 time=0
note_on channel=0 note=65 velocity=0 time=160
note_on channel=0 note=65 velocity=30 time=160
note_on channel=0 note=65 velocity=0 time=160
note_on channel=0 note=56 velocity=29 time=0
note_on channel=0 note=56 velocity=0 time=160
note_on channel=0 note=66 velocity=30 time=0
note_on channel=0 note=66 velocity=0 time=40
note_on channel=0 note=63 velocity=26 time=0
note_on channel=0 note=63 velocity=0 time=160
note_on channel=0 note=56 velocity=26 time=0
note_on channel=0 note=56 velocity=0 time=160
note_on channel=0 note=65 velocity=30 time=0
note_on channel=0 note=65 velocity=0 time=61
note_on channel=0 note=61 velocity=26 time=0
note_on channel=0 note=61 velocity=0 time=160
note_on channel=0 note=56 velocity=26 time=0
note_on channel=0 note=56 velocity=0 time=160
note_on channel=0 note=63 velocity=30 time=0
note_on channel=0 note=63 velocity=0 time=75
note_on channel=0 note=60 velocity=23 time=0
note_on channel=0 note=60 velocity=0 time=160
note_on channel=0 note=56 velocity=23 time=0
note_on channel=0 note=56 velocity=0 time=160
note_on channel=0 note=61 velocity=29 time=0
note_on channel=0 note=61 velocity=0 time=89
note_on channel=0 note=56 velocity=24 time=0
note_on channel=0 note=56 velocity=0 time=160
note_on channel=0 note=53 velocity=24 time=0
note_on channel=0 note=53 velocity=0 time=160
note_on channel=0 note=44 velocity=26 time=0
note_on channel=0 note=44 velocity=0 time=96
note_on channel=0 note=51 velocity=27 time=0
note_on channel=0 note=51 velocity=0 time=160
note_on channel=0 note=56 velocity=27 time=0
note_on channel=0 note=56 velocity=0 time=160
note_on channel=0 note=60 velocity=28 time=0
note_on channel=0 note=60 velocity=0 time=160
note_on channel=0 note=56 velocity=27 time=0
note_on channel=0 note=56 velocity=0 time=160
note_on channel=0 note=51 velocity=27 time=0
note_on channel=0 note=51 velocity=0 time=160
note_on channel=0 note=42 velocity=27 time=0
note_on channel=0 note=42 velocity=0 time=47
note_on channel=0 note=54 velocity=27 time=0
note_on channel=0 note=54 velocity=0 time=160
note_on channel=0 note=58 velocity=28 time=0
note_on channel=0 note=58 velocity=0 time=160
note_on channel=0 note=61 velocity=29 time=0
note_on channel=0 note=61 velocity=0 time=160
note_on channel=0 note=58 velocity=28 time=0
note_on channel=0 note=58 velocity=0 time=160
note_on channel=0 note=54 velocity=28 time=0
note_on channel=0 note=54 velocity=0 time=160
note_on channel=0 note=46 velocity=27 time=0
note_on channel=0 note=46 velocity=0 time=97
note_on channel=0 note=53 velocity=27 time=0
note_on channel=0 note=53 velocity=0 time=160
note_on channel=0 note=58 velocity=28 time=0
note_on channel=0 note=58 velocity=0 time=160
note_on channel=0 note=62 velocity=28 time=0
note_on channel=0 note=62 velocity=0 time=160
note_on channel=0 note=58 velocity=28 time=0
note_on channel=0 note=58 velocity=0 time=160
note_on channel=0 note=53 velocity=27 time=0
note_on channel=0 note=53 velocity=0 time=160
note_on channel=0 note=46 velocity=28 time=0
note_on channel=0 note=46 velocity=0 time=94
note_on channel=0 note=58 velocity=29 time=0
note_on channel=0 note=58 velocity=0 time=160
note_on channel=0 note=62 velocity=30 time=0
note_on channel=0 note=62 velocity=0 time=160
note_on channel=0 note=68 velocity=33 time=0
note_on channel=0 note=68 velocity=0 time=160
note_on channel=0 note=62 velocity=31 time=0
note_on channel=0 note=62 velocity=0 time=160
note_on channel=0 note=58 velocity=29 time=0
note_on channel=0 note=58 velocity=0 time=160
note_on channel=0 note=51 velocity=34 time=0
note_on channel=0 note=51 velocity=0 time=107
note_on channel=0 note=66 velocity=31 time=0
note_on channel=0 note=66 velocity=0 time=160
note_on channel=0 note=58 velocity=28 time=0
note_on channel=0 note=58 velocity=0 time=160
note_on channel=0 note=53 velocity=32 time=0
note_on channel=0 note=53 velocity=0 time=91
note_on channel=0 note=65 velocity=30 time=0
note_on channel=0 note=65 velocity=0 time=160
note_on channel=0 note=57 velocity=28 time=0
note_on channel=0 note=57 velocity=0 time=160
note_on channel=0 note=54 velocity=31 time=0
note_on channel=0 note=54 velocity=0 time=100
note_on channel=0 note=63 velocity=28 time=0
note_on channel=0 note=63 velocity=0 time=160
note_on channel=0 note=58 velocity=29 time=0
note_on channel=0 note=58 velocity=0 time=160
note_on channel=0 note=56 velocity=30 time=0
note_on channel=0 note=56 velocity=0 time=97
note_on channel=0 note=66 velocity=27 time=0
note_on channel=0 note=66 velocity=0 time=160
note_on channel=0 note=60 velocity=27 time=0
note_on channel=0 note=60 velocity=0 time=160
note_on channel=0 note=49 velocity=25 time=0
note_on channel=0 note=49 velocity=0 time=75
note_on channel=0 note=56 velocity=27 time=0
note_on channel=0 note=56 velocity=0 time=160
note_on channel=0 note=61 velocity=29 time=0
note_on channel=0 note=61 velocity=0 time=160
note_on channel=0 note=65 velocity=30 time=0
note_on channel=0 note=65 velocity=0 time=160
note_on channel=0 note=61 velocity=29 time=0
note_on channel=0 note=61 velocity=0 time=160
note_on channel=0 note=56 velocity=27 time=0
note_on channel=0 note=56 velocity=0 time=160
note_on channel=0 note=51 velocity=27 time=0
note_on channel=0 note=51 velocity=0 time=100
note_on channel=0 note=55 velocity=28 time=0
note_on channel=0 note=55 velocity=0 time=160
note_on channel=0 note=61 velocity=29 time=0
note_on channel=0 note=61 velocity=0 time=160
note_on channel=0 note=63 velocity=30 time=0
note_on channel=0 note=63 velocity=0 time=160
note_on channel=0 note=61 velocity=29 time=0
note_on channel=0 note=61 velocity=0 time=160
note_on channel=0 note=55 velocity=27 time=0
note_on channel=0 note=55 velocity=0 time=160
note_on channel=0 note=44 velocity=23 time=0
note_on channel=0 note=44 velocity=0 time=54
note_on channel=0 note=51 velocity=25 time=0
note_on channel=0 note=51 velocity=0 time=160
note_on channel=0 note=56 velocity=27 time=0
note_on channel=0 note=56 velocity=0 time=160
note_on channel=0 note=60 velocity=28 time=0
note_on channel=0 note=60 velocity=0 time=160
note_on channel=0 note=56 velocity=27 time=0
note_on channel=0 note=56 velocity=0 time=160
note_on channel=0 note=51 velocity=27 time=0
note_on channel=0 note=51 velocity=0 time=160
note_on channel=0 note=44 velocity=25 time=0
note_on channel=0 note=44 velocity=0 time=68
note_on channel=0 note=51 velocity=25 time=0
note_on channel=0 note=51 velocity=0 time=160
note_on channel=0 note=54 velocity=27 time=0
note_on channel=0 note=54 velocity=0 time=160
note_on channel=0 note=58 velocity=28 time=0
note_on channel=0 note=58 velocity=0 time=160
note_on channel=0 note=54 velocity=26 time=0
note_on channel=0 note=54 velocity=0 time=160
note_on channel=0 note=51 velocity=25 time=0
note_on channel=0 note=51 velocity=0 time=160
note_on channel=0 note=44 velocity=24 time=0
note_on channel=0 note=44 velocity=0 time=64
note_on channel=0 note=51 velocity=26 time=0
note_on channel=0 note=51 velocity=0 time=160
note_on channel=0 note=56 velocity=27 time=0
note_on channel=0 note=56 velocity=0 time=160
note_on channel=0 note=60 velocity=28 time=0
note_on channel=0 note=60 velocity=0 time=160
note_on channel=0 note=56 velocity=28 time=0
note_on channel=0 note=56 velocity=0 time=160
note_on channel=0 note=51 velocity=27 time=0
note_on channel=0 note=51 velocity=0 time=160
note_on channel=0 note=44 velocity=27 time=0
note_on channel=0 note=44 velocity=0 time=160
note_on channel=0 note=56 velocity=27 time=0
note_on channel=0 note=56 velocity=0 time=160
note_on channel=0 note=60 velocity=28 time=0
note_on channel=0 note=60 velocity=0 time=160
note_on channel=0 note=66 velocity=28 time=0
note_on channel=0 note=66 velocity=0 time=160
note_on channel=0 note=60 velocity=27 time=0
note_on channel=0 note=60 velocity=0 time=160
note_on channel=0 note=58 velocity=26 time=0
note_on channel=0 note=58 velocity=0 time=160
note_on channel=0 note=49 velocity=27 time=0
note_on channel=0 note=49 velocity=0 time=68
note_on channel=0 note=56 velocity=28 time=0
note_on channel=0 note=56 velocity=0 time=160
note_on channel=0 note=61 velocity=28 time=0
note_on channel=0 note=61 velocity=0 time=160
note_on channel=0 note=65 velocity=29 time=0
note_on channel=0 note=65 velocity=0 time=160
note_on channel=0 note=61 velocity=30 time=0
note_on channel=0 note=61 velocity=0 time=160
note_on channel=0 note=56 velocity=28 time=0
note_on channel=0 note=56 velocity=0 time=160
note_on channel=0 note=49 velocity=27 time=0
note_on channel=0 note=49 velocity=0 time=54
note_on channel=0 note=56 velocity=28 time=0
note_on channel=0 note=56 velocity=0 time=160
note_on channel=0 note=65 velocity=29 time=0
note_on channel=0 note=65 velocity=0 time=160
note_on channel=0 note=65 velocity=30 time=160
note_on channel=0 note=65 velocity=0 time=160
note_on channel=0 note=56 velocity=29 time=0
note_on channel=0 note=56 velocity=0 time=160
note_on channel=0 note=66 velocity=30 time=0
note_on channel=0 note=66 velocity=0 time=86
note_on channel=0 note=63 velocity=26 time=0
note_on channel=0 note=63 velocity=0 time=160
note_on channel=0 note=56 velocity=26 time=0
note_on channel=0 note=56 velocity=0 time=160
note_on channel=0 note=65 velocity=30 time=0
note_on channel=0 note=65 velocity=0 time=61
note_on channel=0 note=61 velocity=26 time=0
note_on channel=0 note=61 velocity=0 time=160
note_on channel=0 note=56 velocity=26 time=0
note_on channel=0 note=56 velocity=0 time=160
note_on channel=0 note=63 velocity=30 time=0
note_on channel=0 note=63 velocity=0 time=75
note_on channel=0 note=60 velocity=23 time=0
note_on channel=0 note=60 velocity=0 time=160
note_on channel=0 note=56 velocity=23 time=0
note_on channel=0 note=56 velocity=0 time=160
note_on channel=0 note=61 velocity=29 time=0
note_on channel=0 note=61 velocity=0 time=89
note_on channel=0 note=56 velocity=24 time=0
note_on channel=0 note=56 velocity=0 time=160
note_on channel=0 note=53 velocity=24 time=0
note_on channel=0 note=53 velocity=0 time=160
note_on channel=0 note=44 velocity=26 time=0
note_on channel=0 note=44 velocity=0 time=96
note_on channel=0 note=51 velocity=27 time=0
note_on channel=0 note=51 velocity=0 time=160
note_on channel=0 note=56 velocity=27 time=0
note_on channel=0 note=56 velocity=0 time=160
note_on channel=0 note=60 velocity=28 time=0
note_on channel=0 note=60 velocity=0 time=160
note_on channel=0 note=56 velocity=27 time=0
note_on channel=0 note=56 velocity=0 time=160
note_on channel=0 note=51 velocity=27 time=0
note_on channel=0 note=51 velocity=0 time=160
note_on channel=0 note=42 velocity=27 time=0
note_on channel=0 note=42 velocity=0 time=75
note_on channel=0 note=54 velocity=27 time=0
note_on channel=0 note=54 velocity=0 time=160
note_on channel=0 note=58 velocity=28 time=0
note_on channel=0 note=58 velocity=0 time=160
note_on channel=0 note=61 velocity=29 time=0
note_on channel=0 note=61 velocity=0 time=160
note_on channel=0 note=58 velocity=28 time=0
note_on channel=0 note=58 velocity=0 time=160
note_on channel=0 note=54 velocity=28 time=0
note_on channel=0 note=54 velocity=0 time=160
note_on channel=0 note=46 velocity=27 time=0
note_on channel=0 note=46 velocity=0 time=97
note_on channel=0 note=53 velocity=27 time=0
note_on channel=0 note=53 velocity=0 time=160
note_on channel=0 note=58 velocity=28 time=0
note_on channel=0 note=58 velocity=0 time=160
note_on channel=0 note=62 velocity=28 time=0
note_on channel=0 note=62 velocity=0 time=160
note_on channel=0 note=58 velocity=28 time=0
note_on channel=0 note=58 velocity=0 time=160
note_on channel=0 note=53 velocity=27 time=0
note_on channel=0 note=53 velocity=0 time=160
note_on channel=0 note=46 velocity=28 time=0
note_on channel=0 note=46 velocity=0 time=91
note_on channel=0 note=58 velocity=29 time=0
note_on channel=0 note=58 velocity=0 time=160
note_on channel=0 note=62 velocity=30 time=0
note_on channel=0 note=62 velocity=0 time=160
note_on channel=0 note=68 velocity=33 time=0
note_on channel=0 note=68 velocity=0 time=160
note_on channel=0 note=62 velocity=31 time=0
note_on channel=0 note=62 velocity=0 time=160
note_on channel=0 note=58 velocity=29 time=0
note_on channel=0 note=58 velocity=0 time=160
note_on channel=0 note=51 velocity=34 time=0
note_on channel=0 note=51 velocity=0 time=107
note_on channel=0 note=66 velocity=31 time=0
note_on channel=0 note=66 velocity=0 time=160
note_on channel=0 note=58 velocity=28 time=0
note_on channel=0 note=58 velocity=0 time=160
note_on channel=0 note=53 velocity=32 time=0
note_on channel=0 note=53 velocity=0 time=91
note_on channel=0 note=65 velocity=30 time=0
note_on channel=0 note=65 velocity=0 time=160
note_on channel=0 note=57 velocity=28 time=0
note_on channel=0 note=57 velocity=0 time=160
note_on channel=0 note=54 velocity=31 time=0
note_on channel=0 note=54 velocity=0 time=100
note_on channel=0 note=63 velocity=28 time=0
note_on channel=0 note=63 velocity=0 time=160
note_on channel=0 note=58 velocity=29 time=0
note_on channel=0 note=58 velocity=0 time=160
note_on channel=0 note=56 velocity=30 time=0
note_on channel=0 note=56 velocity=0 time=97
note_on channel=0 note=66 velocity=27 time=0
note_on channel=0 note=66 velocity=0 time=160
note_on channel=0 note=60 velocity=27 time=0
note_on channel=0 note=60 velocity=0 time=160
note_on channel=0 note=49 velocity=25 time=0
note_on channel=0 note=49 velocity=0 time=75
note_on channel=0 note=56 velocity=27 time=0
note_on channel=0 note=56 velocity=0 time=160
note_on channel=0 note=61 velocity=29 time=0
note_on channel=0 note=61 velocity=0 time=160
note_on channel=0 note=65 velocity=30 time=0
note_on channel=0 note=65 velocity=0 time=160
note_on channel=0 note=61 velocity=29 time=0
note_on channel=0 note=61 velocity=0 time=160
note_on channel=0 note=56 velocity=27 time=0
note_on channel=0 note=56 velocity=0 time=160
note_on channel=0 note=49 velocity=27 time=0
note_on channel=0 note=49 velocity=0 time=100
note_on channel=0 note=56 velocity=28 time=0
note_on channel=0 note=56 velocity=0 time=160
note_on channel=0 note=60 velocity=29 time=0
note_on channel=0 note=60 velocity=0 time=160
note_on channel=0 note=66 velocity=30 time=0
note_on channel=0 note=66 velocity=0 time=160
note_on channel=0 note=60 velocity=29 time=0
note_on channel=0 note=60 velocity=0 time=160
note_on channel=0 note=56 velocity=27 time=0
note_on channel=0 note=56 velocity=0 time=160
note_on channel=0 note=49 velocity=27 time=0
note_on channel=0 note=49 velocity=0 time=54
note_on channel=0 note=56 velocity=28 time=0
note_on channel=0 note=56 velocity=0 time=160
note_on channel=0 note=60 velocity=30 time=0
note_on channel=0 note=60 velocity=0 time=160
note_on channel=0 note=66 velocity=31 time=0
note_on channel=0 note=66 velocity=0 time=160
note_on channel=0 note=60 velocity=30 time=0
note_on channel=0 note=60 velocity=0 time=160
note_on channel=0 note=56 velocity=28 time=0
note_on channel=0 note=56 velocity=0 time=160
note_on channel=0 note=49 velocity=27 time=0
note_on channel=0 note=49 velocity=0 time=75
note_on channel=0 note=56 velocity=27 time=0
note_on channel=0 note=56 velocity=0 time=160
note_on channel=0 note=61 velocity=28 time=0
note_on channel=0 note=61 velocity=0 time=160
note_on channel=0 note=65 velocity=30 time=0
note_on channel=0 note=65 velocity=0 time=160
note_on channel=0 note=61 velocity=28 time=0
note_on channel=0 note=61 velocity=0 time=160
note_on channel=0 note=56 velocity=27 time=0
note_on channel=0 note=56 velocity=0 time=160
note_on channel=0 note=44 velocity=34 time=0
note_on channel=0 note=44 velocity=0 time=100
note_on channel=0 note=51 velocity=33 time=0
note_on channel=0 note=51 velocity=0 time=160
note_on channel=0 note=56 velocity=34 time=0
note_on channel=0 note=56 velocity=0 time=160
note_on channel=0 note=60 velocity=34 time=0
note_on channel=0 note=60 velocity=0 time=160
note_on channel=0 note=56 velocity=33 time=0
note_on channel=0 note=56 velocity=0 time=160
note_on channel=0 note=51 velocity=32 time=0
note_on channel=0 note=51 velocity=0 time=160
note_on channel=0 note=44 velocity=31 time=0
note_on channel=0 note=44 velocity=0 time=96
note_on channel=0 note=51 velocity=33 time=0
note_on channel=0 note=51 velocity=0 time=160
note_on channel=0 note=55 velocity=34 time=0
note_on channel=0 note=55 velocity=0 time=160
note_on channel=0 note=61 velocity=34 time=0
note_on channel=0 note=61 velocity=0 time=160
note_on channel=0 note=55 velocity=33 time=0
note_on channel=0 note=55 velocity=0 time=160
note_on channel=0 note=51 velocity=30 time=0
note_on channel=0 note=51 velocity=0 time=160
note_on channel=0 note=44 velocity=36 time=0
note_on channel=0 note=44 velocity=0 time=117
note_on channel=0 note=51 velocity=30 time=0
note_on channel=0 note=51 velocity=0 time=160
note_on channel=0 note=56 velocity=32 time=0
note_on channel=0 note=56 velocity=0 time=160
note_on channel=0 note=60 velocity=33 time=0
note_on channel=0 note=60 velocity=0 time=160
note_on channel=0 note=56 velocity=32 time=0
note_on channel=0 note=56 velocity=0 time=160
note_on channel=0 note=51 velocity=30 time=0
note_on channel=0 note=51 velocity=0 time=160
note_on channel=0 note=49 velocity=27 time=0
note_on channel=0 note=49 velocity=0 time=123
note_on channel=0 note=56 velocity=29 time=0
note_on channel=0 note=56 velocity=0 time=160
note_on channel=0 note=61 velocity=30 time=0
note_on channel=0 note=61 velocity=0 time=160
note_on channel=0 note=64 velocity=31 time=0
note_on channel=0 note=64 velocity=0 time=160
note_on channel=0 note=61 velocity=30 time=0
note_on channel=0 note=61 velocity=0 time=160
note_on channel=0 note=56 velocity=29 time=0
note_on channel=0 note=56 velocity=0 time=160
note_on channel=0 note=39 velocity=34 time=0
note_on channel=0 note=39 velocity=0 time=100
note_on channel=0 note=51 velocity=33 time=0
note_on channel=0 note=51 velocity=0 time=160
note_on channel=0 note=56 velocity=34 time=0
note_on channel=0 note=56 velocity=0 time=160
note_on channel=0 note=60 velocity=34 time=0
note_on channel=0 note=60 velocity=0 time=160
note_on channel=0 note=56 velocity=33 time=0
note_on channel=0 note=56 velocity=0 time=160
note_on channel=0 note=51 velocity=32 time=0
note_on channel=0 note=51 velocity=0 time=160
note_on channel=0 note=39 velocity=31 time=0
note_on channel=0 note=39 velocity=0 time=96
note_on channel=0 note=51 velocity=33 time=0
note_on channel=0 note=51 velocity=0 time=160
note_on channel=0 note=55 velocity=34 time=0
note_on channel=0 note=55 velocity=0 time=160
note_on channel=0 note=61 velocity=34 time=0
note_on channel=0 note=61 velocity=0 time=160
note_on channel=0 note=55 velocity=33 time=0
note_on channel=0 note=55 velocity=0 time=160
note_on channel=0 note=51 velocity=30 time=0
note_on channel=0 note=51 velocity=0 time=160
note_on channel=0 note=44 velocity=34 time=0
note_on channel=0 note=44 velocity=0 time=68
note_on channel=0 note=51 velocity=30 time=0
note_on channel=0 note=51 velocity=0 time=160
note_on channel=0 note=56 velocity=32 time=0
note_on channel=0 note=56 velocity=0 time=160
note_on channel=0 note=60 velocity=33 time=0
note_on channel=0 note=60 velocity=0 time=160
note_on channel=0 note=56 velocity=32 time=0
note_on channel=0 note=56 velocity=0 time=160
note_on channel=0 note=51 velocity=30 time=0
note_on channel=0 note=51 velocity=0 time=160
note_on channel=0 note=42 velocity=19 time=0
note_on channel=0 note=42 velocity=0 time=68
note_on channel=0 note=54 velocity=20 time=0
note_on channel=0 note=54 velocity=0 time=160
note_on channel=0 note=58 velocity=22 time=0
note_on channel=0 note=58 velocity=0 time=160
note_on channel=0 note=61 velocity=22 time=0
note_on channel=0 note=61 velocity=0 time=160
note_on channel=0 note=58 velocity=20 time=0
note_on channel=0 note=58 velocity=0 time=160
note_on channel=0 note=54 velocity=20 time=0
note_on channel=0 note=54 velocity=0 time=160
note_on channel=0 note=44 velocity=21 time=0
note_on channel=0 note=44 velocity=0 time=87
note_on channel=0 note=56 velocity=22 time=0
note_on channel=0 note=56 velocity=0 time=160
note_on channel=0 note=60 velocity=22 time=0
note_on channel=0 note=60 velocity=0 time=160
note_on channel=0 note=63 velocity=23 time=0
note_on channel=0 note=63 velocity=0 time=160
note_on channel=0 note=60 velocity=23 time=0
note_on channel=0 note=60 velocity=0 time=160
note_on channel=0 note=56 velocity=22 time=0
note_on channel=0 note=56 velocity=0 time=160
note_on channel=0 note=49 velocity=22 time=0
note_on channel=0 note=49 velocity=0 time=160
note_on channel=0 note=56 velocity=23 time=0
note_on channel=0 note=56 velocity=0 time=160
note_on channel=0 note=60 velocity=25 time=0
note_on channel=0 note=60 velocity=0 time=160
note_on channel=0 note=66 velocity=27 time=0
note_on channel=0 note=66 velocity=0 time=160
note_on channel=0 note=60 velocity=26 time=0
note_on channel=0 note=60 velocity=0 time=160
note_on channel=0 note=56 velocity=25 time=0
note_on channel=0 note=56 velocity=0 time=160
note_on channel=0 note=49 velocity=27 time=0
note_on channel=0 note=49 velocity=0 time=61
note_on channel=0 note=56 velocity=28 time=0
note_on channel=0 note=56 velocity=0 time=160
note_on channel=0 note=61 velocity=28 time=0
note_on channel=0 note=61 velocity=0 time=160
note_on channel=0 note=65 velocity=29 time=0
note_on channel=0 note=65 velocity=0 time=160
note_on channel=0 note=61 velocity=30 time=0
note_on channel=0 note=61 velocity=0 time=160
note_on channel=0 note=56 velocity=28 time=0
note_on channel=0 note=56 velocity=0 time=160
note_on channel=0 note=49 velocity=27 time=0
note_on channel=0 note=49 velocity=0 time=100
note_on channel=0 note=56 velocity=28 time=0
note_on channel=0 note=56 velocity=0 time=160
note_on channel=0 note=65 velocity=29 time=0
note_on channel=0 note=65 velocity=0 time=160
note_on channel=0 note=65 velocity=30 time=160
note_on channel=0 note=65 velocity=0 time=160
note_on channel=0 note=56 velocity=29 time=0
note_on channel=0 note=56 velocity=0 time=160
note_on channel=0 note=66 velocity=30 time=0
note_on channel=0 note=66 velocity=0 time=93
note_on channel=0 note=63 velocity=26 time=0
note_on channel=0 note=63 velocity=0 time=160
note_on channel=0 note=56 velocity=26 time=0
note_on channel=0 note=56 velocity=0 time=160
note_on channel=0 note=65 velocity=30 time=0
note_on channel=0 note=65 velocity=0 time=61
note_on channel=0 note=61 velocity=26 time=0
note_on channel=0 note=61 velocity=0 time=160
note_on channel=0 note=56 velocity=26 time=0
note_on channel=0 note=56 velocity=0 time=160
note_on channel=0 note=63 velocity=30 time=0
note_on channel=0 note=63 velocity=0 time=75
note_on channel=0 note=60 velocity=23 time=0
note_on channel=0 note=60 velocity=0 time=160
note_on channel=0 note=56 velocity=23 time=0
note_on channel=0 note=56 velocity=0 time=160
note_on channel=0 note=61 velocity=29 time=0
note_on channel=0 note=61 velocity=0 time=89
note_on channel=0 note=56 velocity=24 time=0
note_on channel=0 note=56 velocity=0 time=160
note_on channel=0 note=53 velocity=24 time=0
note_on channel=0 note=53 velocity=0 time=160
note_on channel=0 note=44 velocity=26 time=0
note_on channel=0 note=44 velocity=0 time=96
note_on channel=0 note=51 velocity=27 time=0
note_on channel=0 note=51 velocity=0 time=160
note_on channel=0 note=56 velocity=27 time=0
note_on channel=0 note=56 velocity=0 time=160
note_on channel=0 note=60 velocity=28 time=0
note_on channel=0 note=60 velocity=0 time=160
note_on channel=0 note=56 velocity=27 time=0
note_on channel=0 note=56 velocity=0 time=160
note_on channel=0 note=51 velocity=27 time=0
note_on channel=0 note=51 velocity=0 time=160
note_on channel=0 note=42 velocity=27 time=0
note_on channel=0 note=42 velocity=0 time=61
note_on channel=0 note=54 velocity=27 time=0
note_on channel=0 note=54 velocity=0 time=160
note_on channel=0 note=58 velocity=28 time=0
note_on channel=0 note=58 velocity=0 time=160
note_on channel=0 note=61 velocity=29 time=0
note_on channel=0 note=61 velocity=0 time=160
note_on channel=0 note=58 velocity=28 time=0
note_on channel=0 note=58 velocity=0 time=160
note_on channel=0 note=54 velocity=28 time=0
note_on channel=0 note=54 velocity=0 time=160
note_on channel=0 note=46 velocity=27 time=0
note_on channel=0 note=46 velocity=0 time=97
note_on channel=0 note=53 velocity=27 time=0
note_on channel=0 note=53 velocity=0 time=160
note_on channel=0 note=58 velocity=28 time=0
note_on channel=0 note=58 velocity=0 time=160
note_on channel=0 note=62 velocity=28 time=0
note_on channel=0 note=62 velocity=0 time=160
note_on channel=0 note=58 velocity=28 time=0
note_on channel=0 note=58 velocity=0 time=160
note_on channel=0 note=53 velocity=27 time=0
note_on channel=0 note=53 velocity=0 time=160
note_on channel=0 note=46 velocity=28 time=0
note_on channel=0 note=46 velocity=0 time=97
note_on channel=0 note=58 velocity=29 time=0
note_on channel=0 note=58 velocity=0 time=160
note_on channel=0 note=62 velocity=30 time=0
note_on channel=0 note=62 velocity=0 time=160
note_on channel=0 note=68 velocity=33 time=0
note_on channel=0 note=68 velocity=0 time=160
note_on channel=0 note=62 velocity=31 time=0
note_on channel=0 note=62 velocity=0 time=160
note_on channel=0 note=58 velocity=29 time=0
note_on channel=0 note=58 velocity=0 time=160
note_on channel=0 note=51 velocity=34 time=0
note_on channel=0 note=51 velocity=0 time=107
note_on channel=0 note=66 velocity=31 time=0
note_on channel=0 note=66 velocity=0 time=160
note_on channel=0 note=58 velocity=28 time=0
note_on channel=0 note=58 velocity=0 time=160
note_on channel=0 note=53 velocity=32 time=0
note_on channel=0 note=53 velocity=0 time=91
note_on channel=0 note=65 velocity=30 time=0
note_on channel=0 note=65 velocity=0 time=160
note_on channel=0 note=57 velocity=28 time=0
note_on channel=0 note=57 velocity=0 time=160
note_on channel=0 note=54 velocity=31 time=0
note_on channel=0 note=54 velocity=0 time=100
note_on channel=0 note=63 velocity=28 time=0
note_on channel=0 note=63 velocity=0 time=160
note_on channel=0 note=58 velocity=29 time=0
note_on channel=0 note=58 velocity=0 time=160
note_on channel=0 note=56 velocity=30 time=0
note_on channel=0 note=56 velocity=0 time=97
note_on channel=0 note=66 velocity=27 time=0
note_on channel=0 note=66 velocity=0 time=160
note_on channel=0 note=60 velocity=27 time=0
note_on channel=0 note=60 velocity=0 time=160
note_on channel=0 note=49 velocity=25 time=0
note_on channel=0 note=49 velocity=0 time=75
note_on channel=0 note=56 velocity=27 time=0
note_on channel=0 note=56 velocity=0 time=160
note_on channel=0 note=61 velocity=29 time=0
note_on channel=0 note=61 velocity=0 time=160
note_on channel=0 note=65 velocity=30 time=0
note_on channel=0 note=65 velocity=0 time=160
note_on channel=0 note=61 velocity=29 time=0
note_on channel=0 note=61 velocity=0 time=160
note_on channel=0 note=56 velocity=27 time=0
note_on channel=0 note=56 velocity=0 time=160
note_on channel=0 note=49 velocity=27 time=0
note_on channel=0 note=49 velocity=0 time=100
note_on channel=0 note=56 velocity=28 time=0
note_on channel=0 note=56 velocity=0 time=160
note_on channel=0 note=60 velocity=29 time=0
note_on channel=0 note=60 velocity=0 time=160
note_on channel=0 note=66 velocity=30 time=0
note_on channel=0 note=66 velocity=0 time=160
note_on channel=0 note=60 velocity=29 time=0
note_on channel=0 note=60 velocity=0 time=160
note_on channel=0 note=56 velocity=27 time=0
note_on channel=0 note=56 velocity=0 time=160
note_on channel=0 note=49 velocity=27 time=0
note_on channel=0 note=49 velocity=0 time=54
note_on channel=0 note=56 velocity=28 time=0
note_on channel=0 note=56 velocity=0 time=160
note_on channel=0 note=60 velocity=30 time=0
note_on channel=0 note=60 velocity=0 time=160
note_on channel=0 note=66 velocity=31 time=0
note_on channel=0 note=66 velocity=0 time=160
note_on channel=0 note=60 velocity=30 time=0
note_on channel=0 note=60 velocity=0 time=160
note_on channel=0 note=56 velocity=28 time=0
note_on channel=0 note=56 velocity=0 time=160
note_on channel=0 note=49 velocity=27 time=0
note_on channel=0 note=49 velocity=0 time=61
note_on channel=0 note=56 velocity=27 time=0
note_on channel=0 note=56 velocity=0 time=160
note_on channel=0 note=61 velocity=28 time=0
note_on channel=0 note=61 velocity=0 time=160
note_on channel=0 note=65 velocity=30 time=0
note_on channel=0 note=65 velocity=0 time=160
note_on channel=0 note=61 velocity=28 time=0
note_on channel=0 note=61 velocity=0 time=160
note_on channel=0 note=56 velocity=27 time=0
note_on channel=0 note=56 velocity=0 time=160
note_on channel=0 note=44 velocity=34 time=0
note_on channel=0 note=44 velocity=0 time=100
note_on channel=0 note=51 velocity=33 time=0
note_on channel=0 note=51 velocity=0 time=160
note_on channel=0 note=56 velocity=34 time=0
note_on channel=0 note=56 velocity=0 time=160
note_on channel=0 note=60 velocity=34 time=0
note_on channel=0 note=60 velocity=0 time=160
note_on channel=0 note=56 velocity=33 time=0
note_on channel=0 note=56 velocity=0 time=160
note_on channel=0 note=51 velocity=32 time=0
note_on channel=0 note=51 velocity=0 time=160
note_on channel=0 note=44 velocity=31 time=0
note_on channel=0 note=44 velocity=0 time=96
note_on channel=0 note=51 velocity=33 time=0
note_on channel=0 note=51 velocity=0 time=160
note_on channel=0 note=55 velocity=34 time=0
note_on channel=0 note=55 velocity=0 time=160
note_on channel=0 note=61 velocity=34 time=0
note_on channel=0 note=61 velocity=0 time=160
note_on channel=0 note=55 velocity=33 time=0
note_on channel=0 note=55 velocity=0 time=160
note_on channel=0 note=51 velocity=30 time=0
note_on channel=0 note=51 velocity=0 time=160
note_on channel=0 note=44 velocity=36 time=0
note_on channel=0 note=44 velocity=0 time=117
note_on channel=0 note=51 velocity=30 time=0
note_on channel=0 note=51 velocity=0 time=160
note_on channel=0 note=56 velocity=32 time=0
note_on channel=0 note=56 velocity=0 time=160
note_on channel=0 note=60 velocity=33 time=0
note_on channel=0 note=60 velocity=0 time=160
note_on channel=0 note=56 velocity=32 time=0
note_on channel=0 note=56 velocity=0 time=160
note_on channel=0 note=51 velocity=30 time=0
note_on channel=0 note=51 velocity=0 time=160
note_on channel=0 note=49 velocity=27 time=0
note_on channel=0 note=49 velocity=0 time=123
note_on channel=0 note=56 velocity=29 time=0
note_on channel=0 note=56 velocity=0 time=160
note_on channel=0 note=61 velocity=30 time=0
note_on channel=0 note=61 velocity=0 time=160
note_on channel=0 note=64 velocity=31 time=0
note_on channel=0 note=64 velocity=0 time=160
note_on channel=0 note=61 velocity=30 time=0
note_on channel=0 note=61 velocity=0 time=160
note_on channel=0 note=56 velocity=29 time=0
note_on channel=0 note=56 velocity=0 time=160
note_on channel=0 note=39 velocity=34 time=0
note_on channel=0 note=39 velocity=0 time=100
note_on channel=0 note=51 velocity=33 time=0
note_on channel=0 note=51 velocity=0 time=160
note_on channel=0 note=56 velocity=34 time=0
note_on channel=0 note=56 velocity=0 time=160
note_on channel=0 note=60 velocity=34 time=0
note_on channel=0 note=60 velocity=0 time=160
note_on channel=0 note=56 velocity=33 time=0
note_on channel=0 note=56 velocity=0 time=160
note_on channel=0 note=51 velocity=32 time=0
note_on channel=0 note=51 velocity=0 time=160
note_on channel=0 note=39 velocity=31 time=0
note_on channel=0 note=39 velocity=0 time=96
note_on channel=0 note=51 velocity=33 time=0
note_on channel=0 note=51 velocity=0 time=160
note_on channel=0 note=55 velocity=34 time=0
note_on channel=0 note=55 velocity=0 time=160
note_on channel=0 note=61 velocity=34 time=0
note_on channel=0 note=61 velocity=0 time=160
note_on channel=0 note=55 velocity=33 time=0
note_on channel=0 note=55 velocity=0 time=160
note_on channel=0 note=51 velocity=30 time=0
note_on channel=0 note=51 velocity=0 time=160
note_on channel=0 note=44 velocity=34 time=0
note_on channel=0 note=44 velocity=0 time=61
note_on channel=0 note=51 velocity=30 time=0
note_on channel=0 note=51 velocity=0 time=160
note_on channel=0 note=56 velocity=32 time=0
note_on channel=0 note=56 velocity=0 time=160
note_on channel=0 note=60 velocity=33 time=0
note_on channel=0 note=60 velocity=0 time=160
note_on channel=0 note=56 velocity=32 time=0
note_on channel=0 note=56 velocity=0 time=160
note_on channel=0 note=51 velocity=30 time=0
note_on channel=0 note=51 velocity=0 time=160
note_on channel=0 note=42 velocity=19 time=0
note_on channel=0 note=42 velocity=0 time=58
note_on channel=0 note=54 velocity=20 time=0
note_on channel=0 note=54 velocity=0 time=160
note_on channel=0 note=58 velocity=22 time=0
note_on channel=0 note=58 velocity=0 time=160
note_on channel=0 note=61 velocity=22 time=0
note_on channel=0 note=61 velocity=0 time=160
note_on channel=0 note=58 velocity=20 time=0
note_on channel=0 note=58 velocity=0 time=160
note_on channel=0 note=54 velocity=20 time=0
note_on channel=0 note=54 velocity=0 time=160
note_on channel=0 note=44 velocity=21 time=0
note_on channel=0 note=44 velocity=0 time=84
note_on channel=0 note=51 velocity=22 time=0
note_on channel=0 note=51 velocity=0 time=160
note_on channel=0 note=56 velocity=22 time=0
note_on channel=0 note=56 velocity=0 time=160
note_on channel=0 note=60 velocity=23 time=0
note_on channel=0 note=60 velocity=0 time=160
note_on channel=0 note=56 velocity=23 time=0
note_on channel=0 note=56 velocity=0 time=160
note_on channel=0 note=51 velocity=22 time=0
note_on channel=0 note=51 velocity=0 time=160
note_on channel=0 note=44 velocity=22 time=0
note_on channel=0 note=44 velocity=0 time=160
note_on channel=0 note=56 velocity=23 time=0
note_on channel=0 note=56 velocity=0 time=160
note_on channel=0 note=60 velocity=25 time=0
note_on channel=0 note=60 velocity=0 time=160
note_on channel=0 note=66 velocity=27 time=0
note_on channel=0 note=66 velocity=0 time=160
note_on channel=0 note=60 velocity=26 time=0
note_on channel=0 note=60 velocity=0 time=160
note_on channel=0 note=58 velocity=25 time=0
note_on channel=0 note=58 velocity=0 time=160
note_on channel=0 note=49 velocity=27 time=0
note_on channel=0 note=49 velocity=0 time=68
note_on channel=0 note=56 velocity=28 time=0
note_on channel=0 note=56 velocity=0 time=160
note_on channel=0 note=61 velocity=28 time=0
note_on channel=0 note=61 velocity=0 time=160
note_on channel=0 note=65 velocity=29 time=0
note_on channel=0 note=65 velocity=0 time=160
note_on channel=0 note=61 velocity=30 time=0
note_on channel=0 note=61 velocity=0 time=160
note_on channel=0 note=56 velocity=28 time=0
note_on channel=0 note=56 velocity=0 time=160
note_on channel=0 note=49 velocity=27 time=0
note_on channel=0 note=49 velocity=0 time=61
note_on channel=0 note=56 velocity=28 time=0
note_on channel=0 note=56 velocity=0 time=160
note_on channel=0 note=65 velocity=29 time=0
note_on channel=0 note=65 velocity=0 time=160
note_on channel=0 note=65 velocity=30 time=160
note_on channel=0 note=65 velocity=0 time=160
note_on channel=0 note=56 velocity=29 time=0
note_on channel=0 note=56 velocity=0 time=160
note_on channel=0 note=66 velocity=30 time=0
note_on channel=0 note=66 velocity=0 time=82
note_on channel=0 note=63 velocity=26 time=0
note_on channel=0 note=63 velocity=0 time=160
note_on channel=0 note=56 velocity=26 time=0
note_on channel=0 note=56 velocity=0 time=160
note_on channel=0 note=65 velocity=30 time=0
note_on channel=0 note=65 velocity=0 time=93
note_on channel=0 note=61 velocity=26 time=0
note_on channel=0 note=61 velocity=0 time=160
note_on channel=0 note=56 velocity=26 time=0
note_on channel=0 note=56 velocity=0 time=160
note_on channel=0 note=63 velocity=30 time=0
note_on channel=0 note=63 velocity=0 time=75
note_on channel=0 note=60 velocity=23 time=0
note_on channel=0 note=60 velocity=0 time=160
note_on channel=0 note=56 velocity=23 time=0
note_on channel=0 note=56 velocity=0 time=160
note_on channel=0 note=61 velocity=29 time=0
note_on channel=0 note=61 velocity=0 time=89
note_on channel=0 note=56 velocity=24 time=0
note_on channel=0 note=56 velocity=0 time=160
note_on channel=0 note=53 velocity=24 time=0
note_on channel=0 note=53 velocity=0 time=160
note_on channel=0 note=44 velocity=26 time=0
note_on channel=0 note=44 velocity=0 time=96
note_on channel=0 note=51 velocity=27 time=0
note_on channel=0 note=51 velocity=0 time=160
note_on channel=0 note=56 velocity=27 time=0
note_on channel=0 note=56 velocity=0 time=160
note_on channel=0 note=60 velocity=28 time=0
note_on channel=0 note=60 velocity=0 time=160
note_on channel=0 note=56 velocity=27 time=0
note_on channel=0 note=56 velocity=0 time=160
note_on channel=0 note=51 velocity=27 time=0
note_on channel=0 note=51 velocity=0 time=160
note_on channel=0 note=42 velocity=27 time=0
note_on channel=0 note=42 velocity=0 time=68
note_on channel=0 note=54 velocity=27 time=0
note_on channel=0 note=54 velocity=0 time=160
note_on channel=0 note=58 velocity=28 time=0
note_on channel=0 note=58 velocity=0 time=160
note_on channel=0 note=61 velocity=29 time=0
note_on channel=0 note=61 velocity=0 time=160
note_on channel=0 note=58 velocity=28 time=0
note_on channel=0 note=58 velocity=0 time=160
note_on channel=0 note=54 velocity=28 time=0
note_on channel=0 note=54 velocity=0 time=160
note_on channel=0 note=46 velocity=27 time=0
note_on channel=0 note=46 velocity=0 time=97
note_on channel=0 note=53 velocity=27 time=0
note_on channel=0 note=53 velocity=0 time=160
note_on channel=0 note=58 velocity=28 time=0
note_on channel=0 note=58 velocity=0 time=160
note_on channel=0 note=62 velocity=28 time=0
note_on channel=0 note=62 velocity=0 time=160
note_on channel=0 note=58 velocity=28 time=0
note_on channel=0 note=58 velocity=0 time=160
note_on channel=0 note=53 velocity=27 time=0
note_on channel=0 note=53 velocity=0 time=160
note_on channel=0 note=46 velocity=28 time=0
note_on channel=0 note=46 velocity=0 time=100
note_on channel=0 note=58 velocity=29 time=0
note_on channel=0 note=58 velocity=0 time=160
note_on channel=0 note=62 velocity=30 time=0
note_on channel=0 note=62 velocity=0 time=160
note_on channel=0 note=68 velocity=33 time=0
note_on channel=0 note=68 velocity=0 time=160
note_on channel=0 note=62 velocity=31 time=0
note_on channel=0 note=62 velocity=0 time=160
note_on channel=0 note=58 velocity=29 time=0
note_on channel=0 note=58 velocity=0 time=160
note_on channel=0 note=51 velocity=34 time=0
note_on channel=0 note=51 velocity=0 time=85
note_on channel=0 note=66 velocity=31 time=0
note_on channel=0 note=66 velocity=0 time=160
note_on channel=0 note=58 velocity=28 time=0
note_on channel=0 note=58 velocity=0 time=160
note_on channel=0 note=53 velocity=31 time=0
note_on channel=0 note=53 velocity=0 time=51
note_on channel=0 note=65 velocity=28 time=0
note_on channel=0 note=65 velocity=0 time=160
note_on channel=0 note=57 velocity=28 time=0
note_on channel=0 note=57 velocity=0 time=160
note_on channel=0 note=54 velocity=30 time=0
note_on channel=0 note=54 velocity=0 time=68
note_on channel=0 note=63 velocity=25 time=0
note_on channel=0 note=63 velocity=0 time=160
note_on channel=0 note=58 velocity=25 time=0
note_on channel=0 note=58 velocity=0 time=160
note_on channel=0 note=56 velocity=30 time=0
note_on channel=0 note=56 velocity=0 time=97
note_on channel=0 note=66 velocity=27 time=0
note_on channel=0 note=66 velocity=0 time=160
note_on channel=0 note=60 velocity=27 time=0
note_on channel=0 note=60 velocity=0 time=160
note_on channel=0 note=49 velocity=22 time=0
note_on channel=0 note=49 velocity=0 time=75
note_on channel=0 note=56 velocity=23 time=0
note_on channel=0 note=56 velocity=0 time=160
note_on channel=0 note=61 velocity=26 time=0
note_on channel=0 note=61 velocity=0 time=160
note_on channel=0 note=65 velocity=27 time=0
note_on channel=0 note=65 velocity=0 time=160
note_on channel=0 note=61 velocity=26 time=0
note_on channel=0 note=61 velocity=0 time=160
note_on channel=0 note=56 velocity=23 time=0
note_on channel=0 note=56 velocity=0 time=160
note_on channel=0 note=49 velocity=23 time=0
note_on channel=0 note=49 velocity=0 time=100
note_on channel=0 note=56 velocity=24 time=0
note_on channel=0 note=56 velocity=0 time=160
note_on channel=0 note=60 velocity=26 time=0
note_on channel=0 note=60 velocity=0 time=160
note_on channel=0 note=66 velocity=27 time=0
note_on channel=0 note=66 velocity=0 time=160
note_on channel=0 note=60 velocity=26 time=0
note_on channel=0 note=60 velocity=0 time=160
note_on channel=0 note=56 velocity=23 time=0
note_on channel=0 note=56 velocity=0 time=160
note_on channel=0 note=49 velocity=20 time=0
note_on channel=0 note=49 velocity=0 time=54
note_on channel=0 note=56 velocity=21 time=0
note_on channel=0 note=56 velocity=0 time=160
note_on channel=0 note=60 velocity=22 time=0
note_on channel=0 note=60 velocity=0 time=160
note_on channel=0 note=66 velocity=24 time=0
note_on channel=0 note=66 velocity=0 time=160
note_on channel=0 note=60 velocity=22 time=0
note_on channel=0 note=60 velocity=0 time=160
note_on channel=0 note=56 velocity=22 time=0
note_on channel=0 note=56 velocity=0 time=160
note_on channel=0 note=49 velocity=20 time=0
note_on channel=0 note=49 velocity=0 time=160
note_on channel=0 note=56 velocity=21 time=0
note_on channel=0 note=56 velocity=0 time=160
note_on channel=0 note=60 velocity=22 time=0
note_on channel=0 note=60 velocity=0 time=160
note_on channel=0 note=66 velocity=22 time=0
note_on channel=0 note=66 velocity=0 time=160
note_on channel=0 note=60 velocity=22 time=0
note_on channel=0 note=60 velocity=0 time=160
note_on channel=0 note=56 velocity=21 time=0
note_on channel=0 note=56 velocity=0 time=160
note_on channel=0 note=49 velocity=22 time=0
note_on channel=0 note=49 velocity=0 time=97
note_on channel=0 note=56 velocity=25 time=0
note_on channel=0 note=56 velocity=0 time=160
note_on channel=0 note=61 velocity=28 time=0
note_on channel=0 note=61 velocity=0 time=160
note_on channel=0 note=64 velocity=30 time=0
note_on channel=0 note=64 velocity=0 time=160
note_on channel=0 note=61 velocity=28 time=0
note_on channel=0 note=61 velocity=0 time=160
note_on channel=0 note=56 velocity=27 time=0
note_on channel=0 note=56 velocity=0 time=160
note_on channel=0 note=52 velocity=26 time=0
note_on channel=0 note=52 velocity=0 time=143
note_on channel=0 note=56 velocity=28 time=0
note_on channel=0 note=56 velocity=0 time=160
note_on channel=0 note=61 velocity=30 time=0
note_on channel=0 note=61 velocity=0 time=160
note_on channel=0 note=64 velocity=31 time=0
note_on channel=0 note=64 velocity=0 time=160
note_on channel=0 note=61 velocity=28 time=0
note_on channel=0 note=61 velocity=0 time=160
note_on channel=0 note=56 velocity=27 time=0
note_on channel=0 note=56 velocity=0 time=160
note_on channel=0 note=49 velocity=27 time=0
note_on channel=0 note=49 velocity=0 time=97
note_on channel=0 note=56 velocity=30 time=0
note_on channel=0 note=56 velocity=0 time=160
note_on channel=0 note=61 velocity=34 time=0
note_on channel=0 note=61 velocity=0 time=160
note_on channel=0 note=64 velocity=36 time=0
note_on channel=0 note=64 velocity=0 time=160
note_on channel=0 note=61 velocity=34 time=0
note_on channel=0 note=61 velocity=0 time=160
note_on channel=0 note=56 velocity=33 time=0
note_on channel=0 note=56 velocity=0 time=160
note_on channel=0 note=52 velocity=31 time=0
note_on channel=0 note=52 velocity=0 time=143
note_on channel=0 note=56 velocity=33 time=0
note_on channel=0 note=56 velocity=0 time=160
note_on channel=0 note=61 velocity=36 time=0
note_on channel=0 note=61 velocity=0 time=160
note_on channel=0 note=64 velocity=37 time=0
note_on channel=0 note=64 velocity=0 time=160
note_on channel=0 note=61 velocity=34 time=0
note_on channel=0 note=61 velocity=0 time=160
note_on channel=0 note=56 velocity=32 time=0
note_on channel=0 note=56 velocity=0 time=160
note_on channel=0 note=51 velocity=31 time=0
note_on channel=0 note=51 velocity=0 time=97
note_on channel=0 note=57 velocity=35 time=0
note_on channel=0 note=57 velocity=0 time=160
note_on channel=0 note=61 velocity=39 time=0
note_on channel=0 note=61 velocity=0 time=160
note_on channel=0 note=66 velocity=45 time=0
note_on channel=0 note=66 velocity=0 time=160
note_on channel=0 note=61 velocity=39 time=0
note_on channel=0 note=61 velocity=0 time=160
note_on channel=0 note=57 velocity=37 time=0
note_on channel=0 note=57 velocity=0 time=160
note_on channel=0 note=54 velocity=37 time=0
note_on channel=0 note=54 velocity=0 time=160
note_on channel=0 note=61 velocity=40 time=0
note_on channel=0 note=61 velocity=0 time=160
note_on channel=0 note=63 velocity=44 time=0
note_on channel=0 note=63 velocity=0 time=160
note_on channel=0 note=69 velocity=46 time=0
note_on channel=0 note=69 velocity=0 time=160
note_on channel=0 note=63 velocity=44 time=0
note_on channel=0 note=63 velocity=0 time=160
note_on channel=0 note=61 velocity=41 time=0
note_on channel=0 note=61 velocity=0 time=160
note_on channel=0 note=44 velocity=33 time=0
note_on channel=0 note=44 velocity=0 time=97
note_on channel=0 note=51 velocity=35 time=0
note_on channel=0 note=51 velocity=0 time=160
note_on channel=0 note=54 velocity=38 time=0
note_on channel=0 note=54 velocity=0 time=160
note_on channel=0 note=60 velocity=39 time=0
note_on channel=0 note=60 velocity=0 time=160
note_on channel=0 note=54 velocity=36 time=0
note_on channel=0 note=54 velocity=0 time=160
note_on channel=0 note=51 velocity=34 time=0
note_on channel=0 note=51 velocity=0 time=160
note_on channel=0 note=44 velocity=29 time=0
note_on channel=0 note=44 velocity=0 time=160
note_on channel=0 note=51 velocity=31 time=0
note_on channel=0 note=51 velocity=0 time=160
note_on channel=0 note=54 velocity=33 time=0
note_on channel=0 note=54 velocity=0 time=160
note_on channel=0 note=60 velocity=33 time=0
note_on channel=0 note=60 velocity=0 time=160
note_on channel=0 note=54 velocity=29 time=0
note_on channel=0 note=54 velocity=0 time=160
note_on channel=0 note=51 velocity=26 time=0
note_on channel=0 note=51 velocity=0 time=160
note_on channel=0 note=49 velocity=22 time=0
note_on channel=0 note=49 velocity=0 time=97
note_on channel=0 note=56 velocity=25 time=0
note_on channel=0 note=56 velocity=0 time=160
note_on channel=0 note=61 velocity=28 time=0
note_on channel=0 note=61 velocity=0 time=160
note_on channel=0 note=64 velocity=30 time=0
note_on channel=0 note=64 velocity=0 time=160
note_on channel=0 note=61 velocity=28 time=0
note_on channel=0 note=61 velocity=0 time=160
note_on channel=0 note=56 velocity=27 time=0
note_on channel=0 note=56 velocity=0 time=160
note_on channel=0 note=52 velocity=26 time=0
note_on channel=0 note=52 velocity=0 time=143
note_on channel=0 note=56 velocity=28 time=0
note_on channel=0 note=56 velocity=0 time=160
note_on channel=0 note=61 velocity=30 time=0
note_on channel=0 note=61 velocity=0 time=160
note_on channel=0 note=64 velocity=31 time=0
note_on channel=0 note=64 velocity=0 time=160
note_on channel=0 note=61 velocity=28 time=0
note_on channel=0 note=61 velocity=0 time=160
note_on channel=0 note=56 velocity=27 time=0
note_on channel=0 note=56 velocity=0 time=160
note_on channel=0 note=49 velocity=27 time=0
note_on channel=0 note=49 velocity=0 time=97
note_on channel=0 note=56 velocity=30 time=0
note_on channel=0 note=56 velocity=0 time=160
note_on channel=0 note=58 velocity=34 time=0
note_on channel=0 note=58 velocity=0 time=160
note_on channel=0 note=64 velocity=36 time=0
note_on channel=0 note=64 velocity=0 time=160
note_on channel=0 note=58 velocity=34 time=0
note_on channel=0 note=58 velocity=0 time=160
note_on channel=0 note=56 velocity=33 time=0
note_on channel=0 note=56 velocity=0 time=160
note_on channel=0 note=52 velocity=31 time=0
note_on channel=0 note=52 velocity=0 time=143
note_on channel=0 note=56 velocity=33 time=0
note_on channel=0 note=56 velocity=0 time=160
note_on channel=0 note=58 velocity=36 time=0
note_on channel=0 note=58 velocity=0 time=160
note_on channel=0 note=61 velocity=37 time=0
note_on channel=0 note=61 velocity=0 time=160
note_on channel=0 note=58 velocity=34 time=0
note_on channel=0 note=58 velocity=0 time=160
note_on channel=0 note=56 velocity=32 time=0
note_on channel=0 note=56 velocity=0 time=160
note_on channel=0 note=51 velocity=30 time=0
note_on channel=0 note=51 velocity=0 time=97
note_on channel=0 note=56 velocity=34 time=0
note_on channel=0 note=56 velocity=0 time=160
note_on channel=0 note=59 velocity=37 time=0
note_on channel=0 note=59 velocity=0 time=160
note_on channel=0 note=63 velocity=39 time=0
note_on channel=0 note=63 velocity=0 time=160
note_on channel=0 note=59 velocity=38 time=0
note_on channel=0 note=59 velocity=0 time=160
note_on channel=0 note=56 velocity=35 time=0
note_on channel=0 note=56 velocity=0 time=160
note_on channel=0 note=51 velocity=38 time=0
note_on channel=0 note=51 velocity=0 time=85
note_on channel=0 note=58 velocity=41 time=0
note_on channel=0 note=58 velocity=0 time=160
note_on channel=0 note=61 velocity=45 time=0
note_on channel=0 note=61 velocity=0 time=160
note_on channel=0 note=67 velocity=46 time=0
note_on channel=0 note=67 velocity=0 time=160
note_on channel=0 note=61 velocity=44 time=0
note_on channel=0 note=61 velocity=0 time=160
note_on channel=0 note=58 velocity=41 time=0
note_on channel=0 note=58 velocity=0 time=160
note_on channel=0 note=44 velocity=33 time=0
note_on channel=0 note=44 velocity=0 time=97
note_on channel=0 note=51 velocity=35 time=0
note_on channel=0 note=51 velocity=0 time=160
note_on channel=0 note=56 velocity=37 time=0
note_on channel=0 note=56 velocity=0 time=160
note_on channel=0 note=59 velocity=39 time=0
note_on channel=0 note=59 velocity=0 time=160
note_on channel=0 note=56 velocity=39 time=0
note_on channel=0 note=56 velocity=0 time=160
note_on channel=0 note=51 velocity=37 time=0
note_on channel=0 note=51 velocity=0 time=160
note_on channel=0 note=44 velocity=33 time=0
note_on channel=0 note=44 velocity=0 time=160
note_on channel=0 note=51 velocity=35 time=0
note_on channel=0 note=51 velocity=0 time=160
note_on channel=0 note=56 velocity=38 time=0
note_on channel=0 note=56 velocity=0 time=160
note_on channel=0 note=59 velocity=39 time=0
note_on channel=0 note=59 velocity=0 time=160
note_on channel=0 note=56 velocity=35 time=0
note_on channel=0 note=56 velocity=0 time=160
note_on channel=0 note=51 velocity=33 time=0
note_on channel=0 note=51 velocity=0 time=160
note_on channel=0 note=45 velocity=39 time=0
note_on channel=0 note=45 velocity=0 time=69
note_on channel=0 note=49 velocity=41 time=0
note_on channel=0 note=49 velocity=0 time=160
note_on channel=0 note=54 velocity=43 time=0
note_on channel=0 note=54 velocity=0 time=160
note_on channel=0 note=57 velocity=45 time=0
note_on channel=0 note=57 velocity=0 time=160
note_on channel=0 note=54 velocity=44 time=0
note_on channel=0 note=54 velocity=0 time=160
note_on channel=0 note=49 velocity=42 time=0
note_on channel=0 note=49 velocity=0 time=160
note_on channel=0 note=45 velocity=42 time=0
note_on channel=0 note=45 velocity=0 time=160
note_on channel=0 note=49 velocity=44 time=0
note_on channel=0 note=49 velocity=0 time=160
note_on channel=0 note=54 velocity=45 time=0
note_on channel=0 note=54 velocity=0 time=160
note_on channel=0 note=57 velocity=45 time=0
note_on channel=0 note=57 velocity=0 time=160
note_on channel=0 note=54 velocity=45 time=0
note_on channel=0 note=54 velocity=0 time=160
note_on channel=0 note=49 velocity=44 time=0
note_on channel=0 note=49 velocity=0 time=160
note_on channel=0 note=51 velocity=44 time=0
note_on channel=0 note=51 velocity=0 time=69
note_on channel=0 note=54 velocity=46 time=0
note_on channel=0 note=54 velocity=0 time=160
note_on channel=0 note=57 velocity=48 time=0
note_on channel=0 note=57 velocity=0 time=160
note_on channel=0 note=59 velocity=49 time=0
note_on channel=0 note=59 velocity=0 time=160
note_on channel=0 note=57 velocity=47 time=0
note_on channel=0 note=57 velocity=0 time=160
note_on channel=0 note=54 velocity=45 time=0
note_on channel=0 note=54 velocity=0 time=160
note_on channel=0 note=40 velocity=45 time=0
note_on channel=0 note=40 velocity=0 time=68
note_on channel=0 note=47 velocity=46 time=0
note_on channel=0 note=47 velocity=0 time=160
note_on channel=0 note=52 velocity=48 time=0
note_on channel=0 note=52 velocity=0 time=160
note_on channel=0 note=56 velocity=47 time=0
note_on channel=0 note=56 velocity=0 time=160
note_on channel=0 note=52 velocity=46 time=0
note_on channel=0 note=52 velocity=0 time=160
note_on channel=0 note=47 velocity=45 time=0
note_on channel=0 note=47 velocity=0 time=160
note_on channel=0 note=45 velocity=44 time=0
note_on channel=0 note=45 velocity=0 time=91
note_on channel=0 note=49 velocity=46 time=0
note_on channel=0 note=49 velocity=0 time=160
note_on channel=0 note=54 velocity=48 time=0
note_on channel=0 note=54 velocity=0 time=160
note_on channel=0 note=57 velocity=49 time=0
note_on channel=0 note=57 velocity=0 time=160
note_on channel=0 note=54 velocity=47 time=0
note_on channel=0 note=54 velocity=0 time=160
note_on channel=0 note=49 velocity=45 time=0
note_on channel=0 note=49 velocity=0 time=160
note_on channel=0 note=45 velocity=45 time=0
note_on channel=0 note=45 velocity=0 time=160
note_on channel=0 note=49 velocity=46 time=0
note_on channel=0 note=49 velocity=0 time=160
note_on channel=0 note=54 velocity=48 time=0
note_on channel=0 note=54 velocity=0 time=160
note_on channel=0 note=57 velocity=47 time=0
note_on channel=0 note=57 velocity=0 time=160
note_on channel=0 note=54 velocity=46 time=0
note_on channel=0 note=54 velocity=0 time=160
note_on channel=0 note=49 velocity=45 time=0
note_on channel=0 note=49 velocity=0 time=160
note_on channel=0 note=47 velocity=44 time=0
note_on channel=0 note=47 velocity=0 time=69
note_on channel=0 note=51 velocity=46 time=0
note_on channel=0 note=51 velocity=0 time=160
note_on channel=0 note=57 velocity=48 time=0
note_on channel=0 note=57 velocity=0 time=160
note_on channel=0 note=59 velocity=49 time=0
note_on channel=0 note=59 velocity=0 time=160
note_on channel=0 note=57 velocity=47 time=0
note_on channel=0 note=57 velocity=0 time=160
note_on channel=0 note=51 velocity=45 time=0
note_on channel=0 note=51 velocity=0 time=160
note_on channel=0 note=40 velocity=45 time=0
note_on channel=0 note=40 velocity=0 time=51
note_on channel=0 note=47 velocity=46 time=0
note_on channel=0 note=47 velocity=0 time=160
note_on channel=0 note=52 velocity=48 time=0
note_on channel=0 note=52 velocity=0 time=160
note_on channel=0 note=56 velocity=47 time=0
note_on channel=0 note=56 velocity=0 time=160
note_on channel=0 note=52 velocity=46 time=0
note_on channel=0 note=52 velocity=0 time=160
note_on channel=0 note=47 velocity=45 time=0
note_on channel=0 note=47 velocity=0 time=160
note_on channel=0 note=45 velocity=30 time=0
note_on channel=0 note=45 velocity=0 time=69
note_on channel=0 note=49 velocity=33 time=0
note_on channel=0 note=49 velocity=0 time=160
note_on channel=0 note=54 velocity=34 time=0
note_on channel=0 note=54 velocity=0 time=160
note_on channel=0 note=57 velocity=35 time=0
note_on channel=0 note=57 velocity=0 time=160
note_on channel=0 note=54 velocity=34 time=0
note_on channel=0 note=54 velocity=0 time=160
note_on channel=0 note=49 velocity=34 time=0
note_on channel=0 note=49 velocity=0 time=160
note_on channel=0 note=45 velocity=34 time=0
note_on channel=0 note=45 velocity=0 time=160
note_on channel=0 note=49 velocity=34 time=0
note_on channel=0 note=49 velocity=0 time=160
note_on channel=0 note=54 velocity=36 time=0
note_on channel=0 note=54 velocity=0 time=160
note_on channel=0 note=57 velocity=36 time=0
note_on channel=0 note=57 velocity=0 time=160
note_on channel=0 note=54 velocity=35 time=0
note_on channel=0 note=54 velocity=0 time=160
note_on channel=0 note=49 velocity=34 time=0
note_on channel=0 note=49 velocity=0 time=160
note_on channel=0 note=47 velocity=34 time=0
note_on channel=0 note=47 velocity=0 time=69
note_on channel=0 note=54 velocity=37 time=0
note_on channel=0 note=54 velocity=0 time=160
note_on channel=0 note=57 velocity=38 time=0
note_on channel=0 note=57 velocity=0 time=160
note_on channel=0 note=59 velocity=39 time=0
note_on channel=0 note=59 velocity=0 time=160
note_on channel=0 note=57 velocity=38 time=0
note_on channel=0 note=57 velocity=0 time=160
note_on channel=0 note=54 velocity=38 time=0
note_on channel=0 note=54 velocity=0 time=160
note_on channel=0 note=40 velocity=37 time=0
note_on channel=0 note=40 velocity=0 time=68
note_on channel=0 note=47 velocity=39 time=0
note_on channel=0 note=47 velocity=0 time=160
note_on channel=0 note=52 velocity=40 time=0
note_on channel=0 note=52 velocity=0 time=160
note_on channel=0 note=56 velocity=40 time=0
note_on channel=0 note=56 velocity=0 time=160
note_on channel=0 note=52 velocity=40 time=0
note_on channel=0 note=52 velocity=0 time=160
note_on channel=0 note=47 velocity=39 time=0
note_on channel=0 note=47 velocity=0 time=160
note_on channel=0 note=45 velocity=39 time=0
note_on channel=0 note=45 velocity=0 time=69
note_on channel=0 note=49 velocity=42 time=0
note_on channel=0 note=49 velocity=0 time=160
note_on channel=0 note=54 velocity=43 time=0
note_on channel=0 note=54 velocity=0 time=160
note_on channel=0 note=57 velocity=45 time=0
note_on channel=0 note=57 velocity=0 time=160
note_on channel=0 note=54 velocity=43 time=0
note_on channel=0 note=54 velocity=0 time=160
note_on channel=0 note=49 velocity=42 time=0
note_on channel=0 note=49 velocity=0 time=160
note_on channel=0 note=45 velocity=42 time=0
note_on channel=0 note=45 velocity=0 time=68
note_on channel=0 note=51 velocity=44 time=0
note_on channel=0 note=51 velocity=0 time=160
note_on channel=0 note=54 velocity=45 time=0
note_on channel=0 note=54 velocity=0 time=160
note_on channel=0 note=57 velocity=44 time=0
note_on channel=0 note=57 velocity=0 time=160
note_on channel=0 note=54 velocity=44 time=0
note_on channel=0 note=54 velocity=0 time=160
note_on channel=0 note=51 velocity=42 time=0
note_on channel=0 note=51 velocity=0 time=160
note_on channel=0 note=44 velocity=42 time=0
note_on channel=0 note=44 velocity=0 time=68
note_on channel=0 note=51 velocity=44 time=0
note_on channel=0 note=51 velocity=0 time=160
note_on channel=0 note=54 velocity=45 time=0
note_on channel=0 note=54 velocity=0 time=160
note_on channel=0 note=60 velocity=42 time=0
note_on channel=0 note=60 velocity=0 time=103
note_on channel=0 note=54 velocity=42 time=0
note_on channel=0 note=54 velocity=0 time=160
note_on channel=0 note=51 velocity=40 time=0
note_on channel=0 note=51 velocity=0 time=160
note_on channel=0 note=44 velocity=39 time=0
note_on channel=0 note=44 velocity=0 time=160
note_on channel=0 note=51 velocity=41 time=0
note_on channel=0 note=51 velocity=0 time=160
note_on channel=0 note=54 velocity=42 time=0
note_on channel=0 note=54 velocity=0 time=160
note_on channel=0 note=60 velocity=40 time=0
note_on channel=0 note=60 velocity=0 time=160
note_on channel=0 note=54 velocity=39 time=0
note_on channel=0 note=54 velocity=0 time=160
note_on channel=0 note=51 velocity=38 time=0
note_on channel=0 note=51 velocity=0 time=160
note_on channel=0 note=45 velocity=38 time=0
note_on channel=0 note=45 velocity=0 time=68
note_on channel=0 note=51 velocity=39 time=0
note_on channel=0 note=51 velocity=0 time=160
note_on channel=0 note=54 velocity=40 time=0
note_on channel=0 note=54 velocity=0 time=160
note_on channel=0 note=59 velocity=38 time=0
note_on channel=0 note=59 velocity=0 time=103
note_on channel=0 note=54 velocity=38 time=0
note_on channel=0 note=54 velocity=0 time=160
note_on channel=0 note=51 velocity=36 time=0
note_on channel=0 note=51 velocity=0 time=160
note_on channel=0 note=46 velocity=35 time=0
note_on channel=0 note=46 velocity=0 time=103
note_on channel=0 note=51 velocity=37 time=0
note_on channel=0 note=51 velocity=0 time=160
note_on channel=0 note=54 velocity=38 time=0
note_on channel=0 note=54 velocity=0 time=160
note_on channel=0 note=58 velocity=36 time=0
note_on channel=0 note=58 velocity=0 time=109
note_on channel=0 note=54 velocity=35 time=0
note_on channel=0 note=54 velocity=0 time=160
note_on channel=0 note=51 velocity=34 time=0
note_on channel=0 note=51 velocity=0 time=160
note_on channel=0 note=48 velocity=34 time=0
note_on channel=0 note=48 velocity=0 time=103
note_on channel=0 note=51 velocity=34 time=0
note_on channel=0 note=51 velocity=0 time=160
note_on channel=0 note=54 velocity=35 time=0
note_on channel=0 note=54 velocity=0 time=160
note_on channel=0 note=57 velocity=34 time=0
note_on channel=0 note=57 velocity=0 time=103
note_on channel=0 note=54 velocity=34 time=0
note_on channel=0 note=54 velocity=0 time=160
note_on channel=0 note=51 velocity=32 time=0
note_on channel=0 note=51 velocity=0 time=160
note_on channel=0 note=48 velocity=31 time=0
note_on channel=0 note=48 velocity=0 time=160
note_on channel=0 note=51 velocity=33 time=0
note_on channel=0 note=51 velocity=0 time=160
note_on channel=0 note=54 velocity=33 time=0
note_on channel=0 note=54 velocity=0 time=160
note_on channel=0 note=57 velocity=31 time=0
note_on channel=0 note=57 velocity=0 time=160
note_on channel=0 note=54 velocity=31 time=0
note_on channel=0 note=54 velocity=0 time=160
note_on channel=0 note=51 velocity=29 time=0
note_on channel=0 note=51 velocity=0 time=160
note_on channel=0 note=45 velocity=28 time=0
note_on channel=0 note=45 velocity=0 time=68
note_on channel=0 note=51 velocity=29 time=0
note_on channel=0 note=51 velocity=0 time=160
note_on channel=0 note=54 velocity=30 time=0
note_on channel=0 note=54 velocity=0 time=160
note_on channel=0 note=59 velocity=32 time=0
note_on channel=0 note=59 velocity=0 time=103
note_on channel=0 note=54 velocity=31 time=0
note_on channel=0 note=54 velocity=0 time=160
note_on channel=0 note=51 velocity=29 time=0
note_on channel=0 note=51 velocity=0 time=160
note_on channel=0 note=46 velocity=27 time=0
note_on channel=0 note=46 velocity=0 time=103
note_on channel=0 note=51 velocity=28 time=0
note_on channel=0 note=51 velocity=0 time=160
note_on channel=0 note=54 velocity=29 time=0
note_on channel=0 note=54 velocity=0 time=160
note_on channel=0 note=58 velocity=30 time=0
note_on channel=0 note=58 velocity=0 time=100
note_on channel=0 note=54 velocity=29 time=0
note_on channel=0 note=54 velocity=0 time=160
note_on channel=0 note=51 velocity=28 time=0
note_on channel=0 note=51 velocity=0 time=160
note_on channel=0 note=47 velocity=28 time=0
note_on channel=0 note=47 velocity=0 time=68
note_on channel=0 note=51 velocity=28 time=0
note_on channel=0 note=51 velocity=0 time=160
note_on channel=0 note=54 velocity=28 time=0
note_on channel=0 note=54 velocity=0 time=160
note_on channel=0 note=57 velocity=30 time=0
note_on channel=0 note=57 velocity=0 time=103
note_on channel=0 note=54 velocity=28 time=0
note_on channel=0 note=54 velocity=0 time=160
note_on channel=0 note=51 velocity=27 time=0
note_on channel=0 note=51 velocity=0 time=160
note_on channel=0 note=48 velocity=23 time=0
note_on channel=0 note=48 velocity=0 time=103
note_on channel=0 note=51 velocity=24 time=0
note_on channel=0 note=51 velocity=0 time=160
note_on channel=0 note=54 velocity=25 time=0
note_on channel=0 note=54 velocity=0 time=160
note_on channel=0 note=56 velocity=25 time=0
note_on channel=0 note=56 velocity=0 time=109
note_on channel=0 note=54 velocity=24 time=0
note_on channel=0 note=54 velocity=0 time=160
note_on channel=0 note=51 velocity=22 time=0
note_on channel=0 note=51 velocity=0 time=160
note_on channel=0 note=49 velocity=22 time=0
note_on channel=0 note=49 velocity=0 time=97
note_on channel=0 note=56 velocity=25 time=0
note_on channel=0 note=56 velocity=0 time=160
note_on channel=0 note=61 velocity=28 time=0
note_on channel=0 note=61 velocity=0 time=160
note_on channel=0 note=64 velocity=30 time=0
note_on channel=0 note=64 velocity=0 time=160
note_on channel=0 note=61 velocity=28 time=0
note_on channel=0 note=61 velocity=0 time=160
note_on channel=0 note=56 velocity=27 time=0
note_on channel=0 note=56 velocity=0 time=160
note_on channel=0 note=52 velocity=26 time=0
note_on channel=0 note=52 velocity=0 time=143
note_on channel=0 note=56 velocity=28 time=0
note_on channel=0 note=56 velocity=0 time=160
note_on channel=0 note=61 velocity=30 time=0
note_on channel=0 note=61 velocity=0 time=160
note_on channel=0 note=64 velocity=31 time=0
note_on channel=0 note=64 velocity=0 time=160
note_on channel=0 note=61 velocity=28 time=0
note_on channel=0 note=61 velocity=0 time=160
note_on channel=0 note=56 velocity=27 time=0
note_on channel=0 note=56 velocity=0 time=160
note_on channel=0 note=49 velocity=27 time=0
note_on channel=0 note=49 velocity=0 time=97
note_on channel=0 note=56 velocity=30 time=0
note_on channel=0 note=56 velocity=0 time=160
note_on channel=0 note=61 velocity=34 time=0
note_on channel=0 note=61 velocity=0 time=160
note_on channel=0 note=64 velocity=36 time=0
note_on channel=0 note=64 velocity=0 time=160
note_on channel=0 note=61 velocity=34 time=0
note_on channel=0 note=61 velocity=0 time=160
note_on channel=0 note=56 velocity=33 time=0
note_on channel=0 note=56 velocity=0 time=160
note_on channel=0 note=52 velocity=31 time=0
note_on channel=0 note=52 velocity=0 time=143
note_on channel=0 note=56 velocity=33 time=0
note_on channel=0 note=56 velocity=0 time=160
note_on channel=0 note=61 velocity=36 time=0
note_on channel=0 note=61 velocity=0 time=160
note_on channel=0 note=64 velocity=37 time=0
note_on channel=0 note=64 velocity=0 time=160
note_on channel=0 note=61 velocity=34 time=0
note_on channel=0 note=61 velocity=0 time=160
note_on channel=0 note=56 velocity=32 time=0
note_on channel=0 note=56 velocity=0 time=160
note_on channel=0 note=51 velocity=31 time=0
note_on channel=0 note=51 velocity=0 time=97
note_on channel=0 note=57 velocity=35 time=0
note_on channel=0 note=57 velocity=0 time=160
note_on channel=0 note=61 velocity=39 time=0
note_on channel=0 note=61 velocity=0 time=160
note_on channel=0 note=66 velocity=45 time=0
note_on channel=0 note=66 velocity=0 time=160
note_on channel=0 note=61 velocity=39 time=0
note_on channel=0 note=61 velocity=0 time=160
note_on channel=0 note=57 velocity=37 time=0
note_on channel=0 note=57 velocity=0 time=160
note_on channel=0 note=54 velocity=37 time=0
note_on channel=0 note=54 velocity=0 time=160
note_on channel=0 note=61 velocity=40 time=0
note_on channel=0 note=61 velocity=0 time=160
note_on channel=0 note=63 velocity=44 time=0
note_on channel=0 note=63 velocity=0 time=160
note_on channel=0 note=69 velocity=46 time=0
note_on channel=0 note=69 velocity=0 time=160
note_on channel=0 note=63 velocity=44 time=0
note_on channel=0 note=63 velocity=0 time=160
note_on channel=0 note=61 velocity=41 time=0
note_on channel=0 note=61 velocity=0 time=160
note_on channel=0 note=44 velocity=33 time=0
note_on channel=0 note=44 velocity=0 time=97
note_on channel=0 note=51 velocity=35 time=0
note_on channel=0 note=51 velocity=0 time=160
note_on channel=0 note=54 velocity=38 time=0
note_on channel=0 note=54 velocity=0 time=160
note_on channel=0 note=60 velocity=39 time=0
note_on channel=0 note=60 velocity=0 time=160
note_on channel=0 note=54 velocity=36 time=0
note_on channel=0 note=54 velocity=0 time=160
note_on channel=0 note=51 velocity=34 time=0
note_on channel=0 note=51 velocity=0 time=160
note_on channel=0 note=44 velocity=29 time=0
note_on channel=0 note=44 velocity=0 time=160
note_on channel=0 note=51 velocity=31 time=0
note_on channel=0 note=51 velocity=0 time=160
note_on channel=0 note=54 velocity=33 time=0
note_on channel=0 note=54 velocity=0 time=160
note_on channel=0 note=60 velocity=33 time=0
note_on channel=0 note=60 velocity=0 time=160
note_on channel=0 note=54 velocity=29 time=0
note_on channel=0 note=54 velocity=0 time=160
note_on channel=0 note=51 velocity=26 time=0
note_on channel=0 note=51 velocity=0 time=160
note_on channel=0 note=49 velocity=22 time=0
note_on channel=0 note=49 velocity=0 time=97
note_on channel=0 note=56 velocity=25 time=0
note_on channel=0 note=56 velocity=0 time=160
note_on channel=0 note=61 velocity=28 time=0
note_on channel=0 note=61 velocity=0 time=160
note_on channel=0 note=64 velocity=30 time=0
note_on channel=0 note=64 velocity=0 time=160
note_on channel=0 note=61 velocity=28 time=0
note_on channel=0 note=61 velocity=0 time=160
note_on channel=0 note=56 velocity=27 time=0
note_on channel=0 note=56 velocity=0 time=160
note_on channel=0 note=52 velocity=26 time=0
note_on channel=0 note=52 velocity=0 time=80
note_on channel=0 note=56 velocity=28 time=0
note_on channel=0 note=56 velocity=0 time=160
note_on channel=0 note=61 velocity=30 time=0
note_on channel=0 note=61 velocity=0 time=160
note_on channel=0 note=64 velocity=31 time=0
note_on channel=0 note=64 velocity=0 time=160
note_on channel=0 note=61 velocity=28 time=0
note_on channel=0 note=61 velocity=0 time=160
note_on channel=0 note=56 velocity=27 time=0
note_on channel=0 note=56 velocity=0 time=160
note_on channel=0 note=54 velocity=25 time=0
note_on channel=0 note=54 velocity=0 time=97
note_on channel=0 note=61 velocity=29 time=0
note_on channel=0 note=61 velocity=0 time=160
note_on channel=0 note=63 velocity=32 time=0
note_on channel=0 note=63 velocity=0 time=160
note_on channel=0 note=69 velocity=34 time=0
note_on channel=0 note=69 velocity=0 time=160
note_on channel=0 note=63 velocity=33 time=0
note_on channel=0 note=63 velocity=0 time=160
note_on channel=0 note=61 velocity=31 time=0
note_on channel=0 note=61 velocity=0 time=160
note_on channel=0 note=56 velocity=30 time=0
note_on channel=0 note=56 velocity=0 time=80
note_on channel=0 note=61 velocity=32 time=0
note_on channel=0 note=61 velocity=0 time=160
note_on channel=0 note=65 velocity=35 time=0
note_on channel=0 note=65 velocity=0 time=160
note_on channel=0 note=71 velocity=37 time=0
note_on channel=0 note=71 velocity=0 time=160
note_on channel=0 note=65 velocity=34 time=0
note_on channel=0 note=65 velocity=0 time=160
note_on channel=0 note=61 velocity=32 time=0
note_on channel=0 note=61 velocity=0 time=160
note_on channel=0 note=57 velocity=30 time=0
note_on channel=0 note=57 velocity=0 time=97
note_on channel=0 note=61 velocity=34 time=0
note_on channel=0 note=61 velocity=0 time=160
note_on channel=0 note=66 velocity=37 time=0
note_on channel=0 note=66 velocity=0 time=160
note_on channel=0 note=69 velocity=40 time=0
note_on channel=0 note=69 velocity=0 time=160
note_on channel=0 note=66 velocity=39 time=0
note_on channel=0 note=66 velocity=0 time=160
note_on channel=0 note=61 velocity=35 time=0
note_on channel=0 note=61 velocity=0 time=160
note_on channel=0 note=56 velocity=34 time=0
note_on channel=0 note=56 velocity=0 time=80
note_on channel=0 note=61 velocity=36 time=0
note_on channel=0 note=61 velocity=0 time=160
note_on channel=0 note=65 velocity=39 time=0
note_on channel=0 note=65 velocity=0 time=160
note_on channel=0 note=71 velocity=40 time=0
note_on channel=0 note=71 velocity=0 time=160
note_on channel=0 note=65 velocity=37 time=0
note_on channel=0 note=65 velocity=0 time=160
note_on channel=0 note=61 velocity=34 time=0
note_on channel=0 note=61 velocity=0 time=160
note_on channel=0 note=57 velocity=32 time=0
note_on channel=0 note=57 velocity=0 time=97
note_on channel=0 note=61 velocity=36 time=0
note_on channel=0 note=61 velocity=0 time=160
note_on channel=0 note=66 velocity=39 time=0
note_on channel=0 note=66 velocity=0 time=160
note_on channel=0 note=69 velocity=42 time=0
note_on channel=0 note=69 velocity=0 time=160
note_on channel=0 note=66 velocity=40 time=0
note_on channel=0 note=66 velocity=0 time=160
note_on channel=0 note=61 velocity=38 time=0
note_on channel=0 note=61 velocity=0 time=160
note_on channel=0 note=48 velocity=36 time=0
note_on channel=0 note=48 velocity=0 time=80
note_on channel=0 note=54 velocity=38 time=0
note_on channel=0 note=54 velocity=0 time=160
note_on channel=0 note=56 velocity=41 time=0
note_on channel=0 note=56 velocity=0 time=160
note_on channel=0 note=63 velocity=42 time=0
note_on channel=0 note=63 velocity=0 time=160
note_on channel=0 note=56 velocity=39 time=0
note_on channel=0 note=56 velocity=0 time=160
note_on channel=0 note=54 velocity=37 time=0
note_on channel=0 note=54 velocity=0 time=160
note_on channel=0 note=49 velocity=35 time=0
note_on channel=0 note=49 velocity=0 time=97
note_on channel=0 note=56 velocity=39 time=0
note_on channel=0 note=56 velocity=0 time=160
note_on channel=0 note=61 velocity=43 time=0
note_on channel=0 note=61 velocity=0 time=160
note_on channel=0 note=64 velocity=45 time=0
note_on channel=0 note=64 velocity=0 time=160
note_on channel=0 note=61 velocity=44 time=0
note_on channel=0 note=61 velocity=0 time=160
note_on channel=0 note=56 velocity=42 time=0
note_on channel=0 note=56 velocity=0 time=160
note_on channel=0 note=51 velocity=44 time=0
note_on channel=0 note=51 velocity=0 time=74
note_on channel=0 note=56 velocity=41 time=0
note_on channel=0 note=56 velocity=0 time=160
note_on channel=0 note=60 velocity=45 time=0
note_on channel=0 note=60 velocity=0 time=160
note_on channel=0 note=66 velocity=46 time=0
note_on channel=0 note=66 velocity=0 time=160
note_on channel=0 note=60 velocity=44 time=0
note_on channel=0 note=60 velocity=0 time=160
note_on channel=0 note=56 velocity=41 time=0
note_on channel=0 note=56 velocity=0 time=160
note_on channel=0 note=52 velocity=35 time=0
note_on channel=0 note=52 velocity=0 time=97
note_on channel=0 note=56 velocity=39 time=0
note_on channel=0 note=56 velocity=0 time=160
note_on channel=0 note=61 velocity=43 time=0
note_on channel=0 note=61 velocity=0 time=160
note_on channel=0 note=64 velocity=45 time=0
note_on channel=0 note=64 velocity=0 time=160
note_on channel=0 note=61 velocity=44 time=0
note_on channel=0 note=61 velocity=0 time=160
note_on channel=0 note=56 velocity=42 time=0
note_on channel=0 note=56 velocity=0 time=160
note_on channel=0 note=54 velocity=44 time=0
note_on channel=0 note=54 velocity=0 time=80
note_on channel=0 note=61 velocity=41 time=0
note_on channel=0 note=61 velocity=0 time=160
note_on channel=0 note=63 velocity=45 time=0
note_on channel=0 note=63 velocity=0 time=160
note_on channel=0 note=69 velocity=46 time=0
note_on channel=0 note=69 velocity=0 time=160
note_on channel=0 note=63 velocity=48 time=0
note_on channel=0 note=63 velocity=0 time=160
note_on channel=0 note=61 velocity=51 time=0
note_on channel=0 note=61 velocity=0 time=160
note_on channel=0 note=68 velocity=71 time=0
note_on channel=0 note=64 velocity=71 time=0
note_on channel=0 note=61 velocity=71 time=0
note_on channel=0 note=56 velocity=71 time=0
note_on channel=0 note=56 velocity=0 time=240
note_on channel=0 note=68 velocity=0 time=0
note_on channel=0 note=64 velocity=0 time=0
note_on channel=0 note=61 velocity=0 time=0
note_on channel=0 note=69 velocity=71 time=720
note_on channel=0 note=64 velocity=71 time=0
note_on channel=0 note=61 velocity=71 time=0
note_on channel=0 note=55 velocity=71 time=0
note_on channel=0 note=55 velocity=0 time=469
note_on channel=0 note=69 velocity=0 time=0
note_on channel=0 note=64 velocity=0 time=0
note_on channel=0 note=61 velocity=0 time=0
note_on channel=0 note=32 velocity=78 time=937
note_on channel=0 note=44 velocity=78 time=0
note_on channel=0 note=44 velocity=0 time=113
note_on channel=0 note=32 velocity=0 time=0
note_on channel=0 note=76 velocity=75 time=346
note_on channel=0 note=64 velocity=75 time=0
note_on channel=0 note=64 velocity=0 time=480
note_on channel=0 note=76 velocity=0 time=0
note_on channel=0 note=61 velocity=78 time=0
note_on channel=0 note=73 velocity=78 time=0
note_on channel=0 note=73 velocity=0 time=480
note_on channel=0 note=61 velocity=0 time=0
note_on channel=0 note=56 velocity=78 time=0
note_on channel=0 note=68 velocity=78 time=0
note_on channel=0 note=68 velocity=0 time=480
note_on channel=0 note=56 velocity=0 time=0
note_on channel=0 note=52 velocity=78 time=0
note_on channel=0 note=64 velocity=78 time=0
note_on channel=0 note=64 velocity=0 time=480
note_on channel=0 note=52 velocity=0 time=0
note_on channel=0 note=49 velocity=74 time=0
note_on channel=0 note=61 velocity=74 time=0
note_on channel=0 note=61 velocity=0 time=480
note_on channel=0 note=49 velocity=0 time=0
note_on channel=0 note=44 velocity=78 time=0
note_on channel=0 note=56 velocity=78 time=0
note_on channel=0 note=56 velocity=0 time=480
note_on channel=0 note=44 velocity=0 time=0
note_on channel=0 note=40 velocity=74 time=0
note_on channel=0 note=52 velocity=74 time=0
note_on channel=0 note=52 velocity=0 time=480
note_on channel=0 note=40 velocity=0 time=0
note_on channel=0 note=37 velocity=78 time=0
note_on channel=0 note=49 velocity=78 time=0
note_on channel=0 note=49 velocity=0 time=409
note_on channel=0 note=37 velocity=0 time=0
note_on channel=0 note=32 velocity=73 time=0
note_on channel=0 note=44 velocity=73 time=0
note_on channel=0 note=44 velocity=0 time=480
note_on channel=0 note=32 velocity=0 time=0
note_on channel=0 note=32 velocity=78 time=0
note_on channel=0 note=44 velocity=78 time=0
note_on channel=0 note=44 velocity=0 time=480
note_on channel=0 note=32 velocity=0 time=0
note_on channel=0 note=33 velocity=74 time=0
note_on channel=0 note=45 velocity=74 time=0
note_on channel=0 note=45 velocity=0 time=388
note_on channel=0 note=33 velocity=0 time=0
note_on channel=0 note=32 velocity=78 time=0
note_on channel=0 note=44 velocity=78 time=0
note_on channel=0 note=44 velocity=0 time=406
note_on channel=0 note=32 velocity=0 time=0
note_on channel=0 note=31 velocity=72 time=0
note_on channel=0 note=43 velocity=72 time=0
note_on channel=0 note=43 velocity=0 time=360
note_on channel=0 note=31 velocity=0 time=0
note_on channel=0 note=32 velocity=69 time=0
note_on channel=0 note=44 velocity=69 time=0
note_on channel=0 note=44 velocity=0 time=360
note_on channel=0 note=32 velocity=0 time=0
note_on channel=0 note=37 velocity=93 time=0
note_on channel=0 note=37 velocity=0 time=166
note_on channel=0 note=52 velocity=56 time=0
note_on channel=0 note=52 velocity=0 time=240
note_on channel=0 note=49 velocity=58 time=0
note_on channel=0 note=49 velocity=0 time=240
note_on channel=0 note=44 velocity=58 time=0
note_on channel=0 note=44 velocity=0 time=240
note_on channel=0 note=37 velocity=63 time=0
note_on channel=0 note=37 velocity=0 time=113
note_on channel=0 note=54 velocity=58 time=0
note_on channel=0 note=54 velocity=0 time=240
note_on channel=0 note=48 velocity=58 time=0
note_on channel=0 note=48 velocity=0 time=240
note_on channel=0 note=44 velocity=58 time=0
note_on channel=0 note=44 velocity=0 time=240
note_on channel=0 note=37 velocity=63 time=0
note_on channel=0 note=37 velocity=0 time=99
note_on channel=0 note=52 velocity=58 time=0
note_on channel=0 note=52 velocity=0 time=240
note_on channel=0 note=49 velocity=58 time=0
note_on channel=0 note=49 velocity=0 time=240
note_on channel=0 note=44 velocity=58 time=0
note_on channel=0 note=44 velocity=0 time=240
note_on channel=0 note=37 velocity=47 time=0
note_on channel=0 note=37 velocity=0 time=84
note_on channel=0 note=54 velocity=43 time=0
note_on channel=0 note=54 velocity=0 time=240
note_on channel=0 note=48 velocity=43 time=0
note_on channel=0 note=48 velocity=0 time=240
note_on channel=0 note=44 velocity=43 time=0
note_on channel=0 note=44 velocity=0 time=240
note_on channel=0 note=37 velocity=47 time=0
note_on channel=0 note=37 velocity=0 time=92
note_on channel=0 note=52 velocity=43 time=0
note_on channel=0 note=52 velocity=0 time=240
note_on channel=0 note=49 velocity=58 time=0
note_on channel=0 note=49 velocity=0 time=240
note_on channel=0 note=44 velocity=58 time=0
note_on channel=0 note=44 velocity=0 time=240
note_on channel=0 note=37 velocity=63 time=0
note_on channel=0 note=37 velocity=0 time=77
note_on channel=0 note=54 velocity=58 time=0
note_on channel=0 note=54 velocity=0 time=240
note_on channel=0 note=48 velocity=58 time=0
note_on channel=0 note=48 velocity=0 time=240
note_on channel=0 note=44 velocity=58 time=0
note_on channel=0 note=44 velocity=0 time=240
note_on channel=0 note=37 velocity=63 time=0
note_on channel=0 note=37 velocity=0 time=141
note_on channel=0 note=52 velocity=58 time=0
note_on channel=0 note=52 velocity=0 time=240
note_on channel=0 note=49 velocity=58 time=0
note_on channel=0 note=49 velocity=0 time=240
note_on channel=0 note=44 velocity=58 time=0
note_on channel=0 note=44 velocity=0 time=240
note_on channel=0 note=37 velocity=47 time=0
note_on channel=0 note=37 velocity=0 time=120
note_on channel=0 note=54 velocity=36 time=0
note_on channel=0 note=54 velocity=0 time=240
note_on channel=0 note=48 velocity=36 time=0
note_on channel=0 note=48 velocity=0 time=240
note_on channel=0 note=44 velocity=36 time=0
note_on channel=0 note=44 velocity=0 time=240
note_on channel=0 note=37 velocity=39 time=0
note_on channel=0 note=37 velocity=0 time=127
note_on channel=0 note=52 velocity=36 time=0
note_on channel=0 note=52 velocity=0 time=240
note_on channel=0 note=49 velocity=36 time=0
note_on channel=0 note=49 velocity=0 time=240
note_on channel=0 note=44 velocity=36 time=0
note_on channel=0 note=44 velocity=0 time=240
note_on channel=0 note=37 velocity=39 time=0
note_on channel=0 note=37 velocity=0 time=148
note_on channel=0 note=56 velocity=36 time=0
note_on channel=0 note=56 velocity=0 time=240
note_on channel=0 note=49 velocity=36 time=0
note_on channel=0 note=49 velocity=0 time=240
note_on channel=0 note=44 velocity=36 time=0
note_on channel=0 note=44 velocity=0 time=240
note_on channel=0 note=37 velocity=39 time=0
note_on channel=0 note=37 velocity=0 time=127
note_on channel=0 note=52 velocity=36 time=0
note_on channel=0 note=52 velocity=0 time=240
note_on channel=0 note=49 velocity=36 time=0
note_on channel=0 note=49 velocity=0 time=240
note_on channel=0 note=44 velocity=36 time=0
note_on channel=0 note=44 velocity=0 time=240
note_on channel=0 note=37 velocity=39 time=0
note_on channel=0 note=37 velocity=0 time=120
note_on channel=0 note=56 velocity=36 time=0
note_on channel=0 note=56 velocity=0 time=240
note_on channel=0 note=49 velocity=36 time=0
note_on channel=0 note=49 velocity=0 time=240
note_on channel=0 note=44 velocity=36 time=0
note_on channel=0 note=44 velocity=0 time=240
note_on channel=0 note=37 velocity=39 time=0
note_on channel=0 note=37 velocity=0 time=169
note_on channel=0 note=52 velocity=35 time=0
note_on channel=0 note=52 velocity=0 time=240
note_on channel=0 note=49 velocity=35 time=0
note_on channel=0 note=49 velocity=0 time=240
note_on channel=0 note=44 velocity=34 time=0
note_on channel=0 note=44 velocity=0 time=240
note_on channel=0 note=37 velocity=38 time=0
note_on channel=0 note=37 velocity=0 time=120
note_on channel=0 note=52 velocity=34 time=0
note_on channel=0 note=52 velocity=0 time=240
note_on channel=0 note=49 velocity=33 time=0
note_on channel=0 note=49 velocity=0 time=240
note_on channel=0 note=44 velocity=33 time=0
note_on channel=0 note=44 velocity=0 time=240
note_on channel=0 note=37 velocity=35 time=0
note_on channel=0 note=37 velocity=0 time=155
note_on channel=0 note=52 velocity=31 time=0
note_on channel=0 note=52 velocity=0 time=240
note_on channel=0 note=49 velocity=31 time=0
note_on channel=0 note=49 velocity=0 time=240
note_on channel=0 note=44 velocity=30 time=0
note_on channel=0 note=44 velocity=0 time=240
note_on channel=0 note=37 velocity=34 time=0
note_on channel=0 note=37 velocity=0 time=106
note_on channel=0 note=52 velocity=30 time=0
note_on channel=0 note=52 velocity=0 time=240
note_on channel=0 note=49 velocity=29 time=0
note_on channel=0 note=49 velocity=0 time=240
note_on channel=0 note=44 velocity=29 time=0
note_on channel=0 note=44 velocity=0 time=240
note_on channel=0 note=37 velocity=31 time=0
note_on channel=0 note=37 velocity=0 time=317
note_on channel=0 note=37 velocity=39 time=3360
note_on channel=0 note=44 velocity=48 time=0
note_on channel=0 note=44 velocity=0 time=1920
note_on channel=0 note=37 velocity=0 time=0
note_on channel=0 note=46 velocity=47 time=0
note_on channel=0 note=46 velocity=0 time=416
note_on channel=0 note=44 velocity=50 time=0
note_on channel=0 note=44 velocity=0 time=480
note_on channel=0 note=49 velocity=52 time=0
note_on channel=0 note=49 velocity=0 time=324
note_on channel=0 note=51 velocity=56 time=0
note_on channel=0 note=51 velocity=0 time=480
note_on channel=0 note=53 velocity=58 time=0
note_on channel=0 note=53 velocity=0 time=1856
note_on channel=0 note=56 velocity=60 time=0
note_on channel=0 note=56 velocity=0 time=1856
note_on channel=0 note=54 velocity=56 time=0
note_on channel=0 note=54 velocity=0 time=840
note_on channel=0 note=53 velocity=56 time=0
note_on channel=0 note=53 velocity=0 time=868
note_on channel=0 note=51 velocity=57 time=0
note_on channel=0 note=51 velocity=0 time=823
note_on channel=0 note=53 velocity=56 time=0
note_on channel=0 note=53 velocity=0 time=409
note_on channel=0 note=49 velocity=48 time=0
note_on channel=0 note=49 velocity=0 time=480
note_on channel=0 note=44 velocity=53 time=0
note_on channel=0 note=44 velocity=0 time=1834
note_on channel=0 note=32 velocity=50 time=0
note_on channel=0 note=44 velocity=50 time=0
note_on channel=0 note=44 velocity=0 time=1823
note_on channel=0 note=32 velocity=0 time=0
note_on channel=0 note=37 velocity=33 time=0
note_on channel=0 note=44 velocity=36 time=4
note_on channel=0 note=44 velocity=0 time=1860
note_on channel=0 note=37 velocity=0 time=0
note_on channel=0 note=37 velocity=31 time=0
note_on channel=0 note=44 velocity=37 time=0
note_on channel=0 note=44 velocity=0 time=1860
note_on channel=0 note=37 velocity=0 time=0
$
note_on channel=0 note=60 velocity=69 time=0
note_on channel=0 note=48 velocity=65 time=0
note_off channel=0 note=60 velocity=0 time=960
note_on channel=0 note=60 velocity=76 time=0
note_off channel=0 note=60 velocity=0 time=960
note_on channel=0 note=67 velocity=87 time=0
note_off channel=0 note=48 velocity=0 time=0
note_on channel=0 note=52 velocity=76 time=0
note_off channel=0 note=67 velocity=0 time=960
note_on channel=0 note=67 velocity=81 time=0
note_off channel=0 note=67 velocity=0 time=960
note_on channel=0 note=69 velocity=80 time=0
note_off channel=0 note=52 velocity=0 time=0
note_on channel=0 note=53 velocity=76 time=0
note_off channel=0 note=69 velocity=0 time=960
note_on channel=0 note=69 velocity=77 time=0
note_off channel=0 note=69 velocity=0 time=960
note_on channel=0 note=67 velocity=76 time=0
note_off channel=0 note=53 velocity=0 time=0
note_on channel=0 note=52 velocity=77 time=0
note_off channel=0 note=67 velocity=0 time=1920
note_on channel=0 note=65 velocity=67 time=0
note_off channel=0 note=52 velocity=0 time=0
note_on channel=0 note=50 velocity=76 time=0
note_off channel=0 note=65 velocity=0 time=960
note_on channel=0 note=65 velocity=74 time=0
note_off channel=0 note=65 velocity=0 time=960
note_on channel=0 note=64 velocity=73 time=0
note_off channel=0 note=50 velocity=0 time=0
note_on channel=0 note=48 velocity=75 time=0
note_off channel=0 note=64 velocity=0 time=960
note_on channel=0 note=64 velocity=74 time=0
note_off channel=0 note=64 velocity=0 time=960
note_on channel=0 note=62 velocity=71 time=0
note_off channel=0 note=48 velocity=0 time=0
note_on channel=0 note=53 velocity=81 time=0
note_off channel=0 note=62 velocity=0 time=960
note_on channel=0 note=62 velocity=77 time=0
note_off channel=0 note=53 velocity=0 time=0
note_on channel=0 note=55 velocity=78 time=0
note_off channel=0 note=62 velocity=0 time=960
note_on channel=0 note=60 velocity=68 time=0
note_off channel=0 note=55 velocity=0 time=0
note_on channel=0 note=52 velocity=70 time=0
note_off channel=0 note=52 velocity=0 time=960
note_on channel=0 note=48 velocity=72 time=0
note_off channel=0 note=60 velocity=0 time=960
note_on channel=0 note=67 velocity=87 time=0
note_off channel=0 note=48 velocity=0 time=0
note_on channel=0 note=52 velocity=84 time=0
note_off channel=0 note=67 velocity=0 time=960
note_on channel=0 note=67 velocity=78 time=0
note_off channel=0 note=67 velocity=0 time=960
note_on channel=0 note=65 velocity=68 time=0
note_off channel=0 note=52 velocity=0 time=0
note_on channel=0 note=53 velocity=76 time=0
note_off channel=0 note=65 velocity=0 time=960
note_on channel=0 note=65 velocity=72 time=0
note_off channel=0 note=65 velocity=0 time=960
note_on channel=0 note=64 velocity=74 time=0
note_off channel=0 note=53 velocity=0 time=0
note_on channel=0 note=55 velocity=83 time=0
note_off channel=0 note=64 velocity=0 time=960
note_on channel=0 note=64 velocity=75 time=0
note_off channel=0 note=64 velocity=0 time=960
note_on channel=0 note=62 velocity=74 time=0
note_off channel=0 note=55 velocity=0 time=0
note_on channel=0 note=55 velocity=76 time=0
note_off channel=0 note=62 velocity=0 time=1920
note_on channel=0 note=67 velocity=87 time=0
note_off channel=0 note=55 velocity=0 time=0
note_on channel=0 note=52 velocity=71 time=0
note_off channel=0 note=67 velocity=0 time=960
note_on channel=0 note=67 velocity=81 time=0
note_off channel=0 note=67 velocity=0 time=960
note_on channel=0 note=65 velocity=68 time=0
note_off channel=0 note=52 velocity=0 time=0
note_on channel=0 note=53 velocity=77 time=0
note_off channel=0 note=65 velocity=0 time=960
note_on channel=0 note=65 velocity=75 time=0
note_off channel=0 note=65 velocity=0 time=960
note_on channel=0 note=64 velocity=77 time=0
note_off channel=0 note=53 velocity=0 time=0
note_on channel=0 note=55 velocity=80 time=0
note_off channel=0 note=64 velocity=0 time=960
note_on channel=0 note=64 velocity=77 time=0
note_off channel=0 note=64 velocity=0 time=960
note_on channel=0 note=62 velocity=72 time=0
note_off channel=0 note=55 velocity=0 time=0
note_on channel=0 note=55 velocity=74 time=0
note_off channel=0 note=62 velocity=0 time=1920
note_on channel=0 note=60 velocity=73 time=0
note_off channel=0 note=55 velocity=0 time=0
note_on channel=0 note=48 velocity=73 time=0
note_off channel=0 note=60 velocity=0 time=960
note_on channel=0 note=60 velocity=74 time=0
note_off channel=0 note=60 velocity=0 time=960
note_on channel=0 note=67 velocity=85 time=0
note_off channel=0 note=48 velocity=0 time=0
note_on channel=0 note=52 velocity=85 time=0
note_off channel=0 note=67 velocity=0 time=960
note_on channel=0 note=67 velocity=79 time=0
note_off channel=0 note=67 velocity=0 time=960
note_on channel=0 note=69 velocity=79 time=0
note_off channel=0 note=52 velocity=0 time=0
note_on channel=0 note=53 velocity=84 time=0
note_off channel=0 note=69 velocity=0 time=960
note_on channel=0 note=69 velocity=77 time=0
note_off channel=0 note=69 velocity=0 time=960
note_on channel=0 note=67 velocity=69 time=0
note_off channel=0 note=53 velocity=0 time=0
note_on channel=0 note=52 velocity=74 time=0
note_off channel=0 note=67 velocity=0 time=1920
note_on channel=0 note=65 velocity=74 time=0
note_off channel=0 note=52 velocity=0 time=0
note_on channel=0 note=50 velocity=79 time=0
note_off channel=0 note=65 velocity=0 time=960
note_on channel=0 note=65 velocity=77 time=0
note_off channel=0 note=65 velocity=0 time=960
note_on channel=0 note=64 velocity=76 time=0
note_off channel=0 note=50 velocity=0 time=0
note_on channel=0 note=48 velocity=74 time=0
note_off channel=0 note=64 velocity=0 time=960
note_on channel=0 note=64 velocity=76 time=0
note_off channel=0 note=64 velocity=0 time=960
note_on channel=0 note=62 velocity=73 time=0
note_off channel=0 note=48 velocity=0 time=0
note_on channel=0 note=53 velocity=80 time=0
note_off channel=0 note=62 velocity=0 time=960
note_on channel=0 note=62 velocity=77 time=0
note_off channel=0 note=53 velocity=0 time=0
note_on channel=0 note=55 velocity=81 time=0
note_off channel=0 note=62 velocity=0 time=960
note_on channel=0 note=60 velocity=71 time=0
note_off channel=0 note=55 velocity=0 time=0
note_on channel=0 note=48 velocity=69 time=0
note_off channel=0 note=60 velocity=0 time=1920
note_off channel=0 note=48 velocity=0 time=0
